<svg id="boite" xmlns="http://www.w3.org/2000/svg" width="28.421" height="27.752" viewBox="0 0 28.421 27.752">
  <path id="Tracé_41" data-name="Tracé 41" d="M28.421,6.36A6.445,6.445,0,0,0,21.908,0H6.513A6.445,6.445,0,0,0,0,6.36V7.516A3.982,3.982,0,0,0,1.184,10.34V21.392A6.445,6.445,0,0,0,7.7,27.752H20.723a6.445,6.445,0,0,0,6.513-6.36V10.34a3.981,3.981,0,0,0,1.184-2.824Zm-24.868,0a2.926,2.926,0,0,1,2.96-2.891H21.907A2.926,2.926,0,0,1,24.868,6.36V7.516a.585.585,0,0,1-.592.578H4.145a.585.585,0,0,1-.592-.578ZM23.684,21.392a2.926,2.926,0,0,1-2.96,2.891H7.7a2.926,2.926,0,0,1-2.96-2.891V11.563H23.684Z" fill="#fff"/>
  <path id="Tracé_42" data-name="Tracé 42" d="M173.814,256H184.3c1.738,0,3.147.793,3.147,1.771h0c0,.978-1.409,1.771-3.147,1.771h-10.49c-1.738,0-3.147-.793-3.147-1.771h0C170.667,256.793,172.076,256,173.814,256Z" transform="translate(-164.849 -242.124)" fill="#fff"/>
</svg>
