<?xml version="1.0" encoding="UTF-8"?>
<svg id="Calque_2" data-name="Calque 2" xmlns="http://www.w3.org/2000/svg" viewBox="0 0 666.2 795.57">
  <defs>
    <style>
      .cls-1 {
        fill: #ce866c;
      }

      .cls-2 {
        fill: #fff;
      }

      .cls-3 {
        fill: #272935;
      }

      .cls-4 {
        fill: #b57561;
      }

      .cls-5 {
        fill: #fe855d;
      }

      .cls-6 {
        fill: #2a2c3a;
      }

      .cls-7 {
        fill: #ffdd45;
      }

      .cls-8 {
        fill: #ee1a11;
      }

      .cls-9 {
        fill: #3b3d4f;
      }

      .cls-10 {
        fill: #d68f00;
      }

      .cls-11 {
        fill: #1f212b;
      }

      .cls-12 {
        fill: #ffc8a9;
      }

      .cls-13 {
        fill: #d66f6f;
      }

      .cls-14 {
        fill: #a9b1bd;
      }

      .cls-15 {
        fill: #21242e;
      }

      .cls-16 {
        fill: #eaa688;
      }

      .cls-17 {
        fill: #3d3c40;
      }

      .cls-18 {
        fill: #201f21;
      }

      .cls-19 {
        fill: #2e2c30;
      }
    </style>
  </defs>
  <g id="Layer_1" data-name="Layer 1">
    <g>
      <g>
        <path class="cls-12" d="m174.08,519.06c-7.29-12.93-15.58-29.53-21.62-39.24-8.83-14.23-26.27-5.47-19.21,10.84,5.81,13.44,13.15,26.21,21.82,38.01l19.01-9.61Z"/>
        <path class="cls-12" d="m143.08,585.68c3.1.77,4.42,6.02,6.54,9.9l44.49-23.37s-4.8-6.13-4.92-10.05c-.19-6.53,3.75-12.48,4.7-18.94,1.13-7.63-2.33-15.76-8.6-20.25-14.18-10.14-33.95,1.46-28.54,12.22.73,1.46,1.79,2.52,3.03,3.31l-43,29.01c4.85,10.18,15.61,15.5,26.3,18.17Z"/>
        <path class="cls-12" d="m155.05,548.88c3.73-.82,7.47-3.25,7.91-10.06l-15.82-23.39c-6.08.05-13.64,5.94-13.64,13.25-7.36-.94-14.22,2.79-15,11.13-12.61,0-18.67,9.95-9.86,21.06,10.91,13.76,25.26,8.28,25.43-2.54,7.06,1.96,14.57-2.7,12.01-10.85l-.06-.09c2.83,1.51,5.91,2.19,9.04,1.51Z"/>
        <path class="cls-2" d="m203.32,580.35c-.18-1.18-8.86-14.57-8.86-14.57-19.09,12.49-38.54,22.09-49.63,27.14,0,0,3.19,7.72,6.94,11.87,5.35,5.91,51.55-24.45,51.55-24.45Z"/>
        <path class="cls-14" d="m166.31,601.65c-2.31-5.29-4.61-10.58-6.33-16.04-5.89,2.99-11.08,5.46-15.15,7.31,0,0,3.19,7.72,6.94,11.87,1.69,1.87,7.45.12,14.54-3.15Z"/>
        <path class="cls-6" d="m299.79,657.22l-16.31-106.85s-18.92,20.43-31.6,34.76c-12.68,14.32-21.6,20.44-21.6,20.44,0,0-18.67-24.68-24.99-34.55-5.77,3.62-34.29,21.78-60.46,34.55,0,0,21.7,77.48,68.61,84.06,46.9,6.58,86.35-32.41,86.35-32.41Z"/>
        <path class="cls-15" d="m299.79,657.22l-2.91-19.04c-9.92,8.66-44.05,35.28-83.45,29.75-32.14-4.51-52.44-42.3-62.04-65.65-2.19,1.12-4.39,2.23-6.56,3.29,0,0,21.7,77.48,68.61,84.06,46.9,6.58,86.35-32.41,86.35-32.41Z"/>
        <path class="cls-6" d="m345.35,794.12l12.71-19.73,1.2,19.73s72.61,8.13,144.87-14.15c-5.28-34.91-10.3-87.15-3.45-134.5,11.62-80.31,14.65-97.93,14.65-97.93,0,0-25.34-21.14-60.33-34.52l-117.34,4.28s-27.24,9.03-54.2,33.06c0,0,11.08,135.9-8.41,228.28,15.42,4.81,45.56,11.95,70.28,15.48Z"/>
        <path class="cls-15" d="m483.9,759.29v-25.63l-15.87-20.84-42.84,24.33s-4.29,22.51,18.76,31.21c19.91,7.51,39.95-9.08,39.95-9.08Z"/>
        <path class="cls-15" d="m504.14,779.97c-.3-3.09-11.5-67.54-4.39-127.35l-11.39-2.05s-11.98,40.69-11.27,93.88c.22,16.74.39,30.59-.61,42.67,9.12-1.94,18.39-4.29,27.66-7.15Z"/>
        <path class="cls-9" d="m357.79,685.63l5.05-28.41,23.37-159.69s-35.77-1.59-48.53,6.6c-12.76,8.19-41.71,53.28-41.71,53.28l24.72,13.97-19.05,27.6s46.75,61.29,56.15,86.65Z"/>
        <path class="cls-3" d="m377.9,515.84s4.73-24.48-20.81-13.61c-20.98,8.92-19.41,27.24-19.41,27.24h31.89l8.34-13.63Z"/>
        <path class="cls-9" d="m478.5,511.15c-6.34-12.21-36.87-11.43-36.87-11.43l-51.09,4.41-28.75,153.08-4,28.41s89.01-63.41,115.78-77.5l-15.97-27.48s25.13-12.68,34.99-18.32c0,0-7.75-38.98-14.09-51.19Z"/>
        <path class="cls-3" d="m462.77,516.18c-3.6-9.89-23.95-13.28-23.95-13.28l6.32,19.37,12.47,7.2s6.3-10.18,5.17-13.29Z"/>
        <path class="cls-14" d="m384.8,513.03l-44.93,40.86s15.34,77.5,21.92,103.33c0,0,71.5-88.16,82.16-105.52l-59.15-38.67Z"/>
        <path class="cls-5" d="m361.79,657.22s14.17-17.47,30.83-38.39l-5.47-47.45,13.3-17.02-20.58-21.6-20.9,18.79,7.28,17.14-15.43,39c4.02,19.25,8.25,38.83,10.97,49.53Z"/>
        <path class="cls-8" d="m359.27,646.71c.93,4.03,1.78,7.6,2.52,10.51,0,0,14.17-17.47,30.83-38.39l-5.47-47.45,13.3-17.02-12.45-13.06c.15,3.07,4.1,17.12-24.3,21.39l2.55,6s9.36-1.64,12,9.32c2.43,10.08-.03,51.61-18.98,68.71Z"/>
        <path class="cls-2" d="m377.9,537.08l-17.99-25.93s-13.78,7.05-22.23,18.32c-.69,6.5.47,15.13,2.19,24.42l12.84,11.9s11.56-18.89,25.19-28.7Z"/>
        <path class="cls-2" d="m443.95,551.7l13.65-22.23c-9.71-12.84-15.97-29.75-15.97-29.75l-63.73,37.36c10.97,8.51,27.86,34.3,27.86,34.3,10.35-2.93,38.19-19.68,38.19-19.68Z"/>
        <path class="cls-12" d="m443.95,497.53l-86.86,4.7s-3.14,15.6,20.81,34.86c0,0,57.18-10.9,66.05-39.55Z"/>
        <path class="cls-1" d="m377.9,537.08s57.18-10.9,66.05-39.55l-86.86,4.7s-.58,2.89.67,7.72l.34,1.21s16.21,9.34,42.36,6.16-6.75,16.12-22.55,19.78Z"/>
        <path class="cls-11" d="m361.52,792.48c.64-26.47-.21-52.94-.6-79.4-.11-7.04-.18-14.07-.17-21.11,0-2.88-4.47-2.88-4.47,0-.03,26.08.95,52.14,1,78.22.01,7.43-.04,14.86-.22,22.29-.07,2.88,4.4,2.88,4.47,0Z"/>
        <path class="cls-6" d="m360.75,681.6c.62-7.24,1.42-14.58,3.53-21.56.83-2.76-3.48-3.94-4.31-1.19-2.22,7.35-3.03,15.13-3.69,22.75-.1,1.2,1.1,2.24,2.24,2.24,1.3,0,2.13-1.03,2.24-2.24Z"/>
        <path class="cls-12" d="m439.99,758.08c3.13,2.66,7.75,1.14,7.75,1.14,0,0,.75,5.96,10.94,4.23,10.19-1.73,21.88-13.58,25.22-12.3s11.82,6.37,20.29,3.07c8.47-3.31,11.15-4.95,11.15-4.95-4.78-17.51-11.73-32.32-21.11-44.15l-10.33,3.44s-10.33-9.79-23.01-8.85c-12.68.94-34.6,20.75-37.77,30.77-2.82,8.92,3.7,12.5,6.28,9.76,0,0-1.26,3.93.96,7.26,2.62,3.94,7.05,2.58,7.05,2.58,0,0-.36,5.48,2.58,7.98Z"/>
        <path class="cls-2" d="m500.81,695.73c-1.17.23-12.45,8.45-12.45,8.45,5.92,8.64,19.49,29.62,25.13,49.47,0,0,10.36-3.71,14.32-7.67,5.64-5.64-27.01-50.25-27.01-50.25Z"/>
        <path class="cls-6" d="m513.02,721.09c12.05,22.86,13.62,35.69,13.62,35.69,0,0,42.64-18.96,63.41-45.56,15.03-19.26,3.62-45.93-6.11-65.75-12.21-24.89-52.65-81.72-68.6-97.93,0,0-23.93,45.79-31.44,97.93l26.3,30.06-17.61,16.2s13.42,16.07,20.43,29.35Z"/>
        <path class="cls-11" d="m505.38,673.41c1.08,1.23,2.16,2.47,3.24,3.7.8.91,2.35.81,3.16,0,.9-.9.8-2.25,0-3.16-2.96-3.39-5.93-6.78-8.89-10.17-4.72-5.4-9.44-10.8-14.17-16.19-1.08-1.23-2.16-2.47-3.24-3.7-.8-.91-2.35-.81-3.16,0-.9.9-.8,2.25,0,3.16,2.96,3.39,5.93,6.78,8.89,10.17,4.72,5.4,9.44,10.8,14.17,16.19Z"/>
        <g>
          <path class="cls-11" d="m494.17,693.32c.49-.45.98-.9,1.47-1.35-.49-.6-.97-1.21-1.47-1.81v3.16Z"/>
          <path class="cls-11" d="m519.04,670.44c2.12-1.95-1.05-5.11-3.16-3.16-7.26,6.68-14.52,13.36-21.78,20.03-1.03.95-2.06,1.89-3.09,2.84-.95.87-.75,2.27,0,3.16,4.52,5.41,8.62,10.9,12.64,16.79,6.54,9.57,11.87,19.94,16.02,30.76,1.48,3.86,2.8,7.79,3.83,11.8.71,2.79,5.03,1.6,4.31-1.19-2.36-9.2-6.13-18.05-10.32-26.55-4.96-10.04-11.19-19.25-18.02-28.11-1.26-1.63-2.54-3.25-3.83-4.86-.49.45-.98.9-1.47,1.35v-3.16c.5.6.98,1.21,1.47,1.81,6.77-6.23,13.54-12.46,20.31-18.68,1.03-.95,2.06-1.89,3.09-2.84Z"/>
        </g>
        <path class="cls-1" d="m150.37,551.19c3.17.46,6.46-.03,9.17-1.81,2.63-1.72,4.7-4.44,5.13-7.6.16-1.2-.29-2.4-1.56-2.75-1.04-.29-2.59.36-2.75,1.56-.63,4.65-5.42,7.05-9.77,6.12-4.94-1.05-8.9-4.95-11.61-9.02-1.59-2.38-5.46-.15-3.86,2.26,3.5,5.24,8.76,10.3,15.25,11.24Z"/>
        <path class="cls-1" d="m137,556.5c-5.22-.07-9.21-4.55-12.08-8.43-.72-.97-1.94-1.46-3.06-.8-.95.56-1.53,2.08-.8,3.06,4.02,5.42,9.54,11.11,16.89,10.61,3.27-.22,6.57-1.4,8.67-4.02,2.31-2.88,2.67-6.58,1.63-10.06-.82-2.75-5.14-1.58-4.31,1.19.66,2.2.59,4.56-.91,6.22-1.46,1.61-3.74,2.26-6.01,2.23Z"/>
        <g>
          <path class="cls-1" d="m131.81,559.65s-.02.1-.02.15c0,.02,0-.03.02-.15Z"/>
          <path class="cls-1" d="m122.09,571.27c4.64.34,9.22-1.65,11.97-5.42,1.51-2.07,2.22-4.64,2.25-7.17.03-2.88-4.44-2.88-4.47,0,0,.3-.02.61-.04.91-.01.13-.02.2-.02.22,0-.05.02-.1.02-.15-.02.12-.03.17-.02.15-.02.1-.03.19-.05.29-.12.56-.26,1.11-.46,1.66-.02.04-.03.07-.04.1,0-.02.02-.03.02-.05-.07.17-.08.18-.02.05-.05.11-.1.22-.16.33-.13.25-.26.49-.41.73-.41.66-.32.54-.77,1.04-.35.38-.73.74-1.13,1.06.03-.02.03-.01-.09.08.03-.02.06-.05.09-.08-.07.04-.3.21-.31.22-.24.15-.48.31-.72.44-.95.53-1.66.79-2.96,1.03-.6.11-2.39.15-3.06.07-1.19-.16-2.48-.53-3.53-.98-3.21-1.38-5.8-3.83-7.96-6.52-.76-.94-2.37-.79-3.16,0-.93.93-.76,2.22,0,3.16,3.74,4.66,8.93,8.38,15.04,8.83Z"/>
          <path class="cls-1" d="m131.25,561.79s-.02.03-.02.05c-.05.13-.05.12.02-.05Z"/>
          <path class="cls-1" d="m128.76,565.01s-.06.05-.09.08c.11-.09.12-.1.09-.08Z"/>
        </g>
        <g>
          <path class="cls-1" d="m158.11,532.25s0-.08,0-.12c0-.02,0,0,0,.12Z"/>
          <path class="cls-1" d="m193.3,545.37c1.05.29,2.58-.36,2.75-1.56.95-6.87-1.02-13.72-5.5-19.03-4.16-4.93-10.48-7.79-16.9-7.95-5.51-.14-11.15,1.69-15.34,5.3-3.52,3.04-5.76,7.87-4.2,12.49,2.44,7.22,10.19,8.25,16.8,8.34,2.88.04,2.88-4.43,0-4.47-4.2-.06-9.94-.08-12.16-4.3-.29-.55-.23-.41-.4-.97-.06-.21-.12-.42-.17-.63-.02-.09-.07-.42-.08-.47,0,.04,0,.08,0,.12-.01-.12-.01-.14,0-.12-.03-.37-.04-.75-.02-1.13,0-.08.02-.26.03-.34,0,.04-.02.07-.02.11.03-.17.03-.17.02-.11.04-.2.07-.4.12-.6.39-1.57,1.26-2.88,2.53-4.12,2.86-2.81,7.16-4.42,11.29-4.62,5.02-.25,10.04,1.45,13.73,4.92,4.35,4.1,6.79,10.4,5.96,16.37-.17,1.19.29,2.4,1.56,2.75Z"/>
          <path class="cls-1" d="m158.09,530.77s.02-.07.02-.11c0-.06,0-.06-.02.11Z"/>
        </g>
        <path class="cls-1" d="m155.5,530.83c.54.15,1.25.08,1.72-.23.92-.6,1.55-2.06.8-3.06-2.16-2.89-4.3-5.81-6.31-8.81-.65-.97-2-1.48-3.06-.8-.97.62-1.5,2.02-.8,3.06,2.01,3,4.15,5.92,6.31,8.81.36.48.73.86,1.34,1.03Z"/>
        <path class="cls-1" d="m431.87,738.74c5.07-6.36,11.42-11.51,18.7-15.14,1.08-.54,1.38-2.07.8-3.06-.64-1.1-1.97-1.34-3.06-.8-7.58,3.78-14.33,9.22-19.6,15.83-.75.94-.92,2.24,0,3.16.78.78,2.4.95,3.16,0Z"/>
        <path class="cls-1" d="m441.09,749.52c5.22-5.82,11.49-10.52,18.52-13.93,1.09-.53,1.38-2.07.8-3.06-.65-1.11-1.97-1.33-3.06-.8-7.34,3.56-13.98,8.56-19.43,14.63-.81.9-.89,2.28,0,3.16.82.82,2.35.9,3.16,0Z"/>
        <path class="cls-1" d="m451.01,759.43c5.25-5.39,11.38-9.78,18.15-13.05,1.09-.52,1.38-2.08.8-3.06-.65-1.11-1.97-1.33-3.06-.8-7.09,3.42-13.56,8.11-19.06,13.75-2.01,2.06,1.15,5.23,3.16,3.16Z"/>
        <path class="cls-11" d="m290.43,665.67c-.03-12.32-1.35-24.62-3.9-36.68-.6-2.81-4.91-1.62-4.31,1.19,2.47,11.67,3.71,23.56,3.74,35.49,0,2.88,4.48,2.88,4.47,0Z"/>
        <path class="cls-11" d="m525.03,757.03c.02.17.02.13,0,0h0Z"/>
      </g>
      <g>
        <path class="cls-17" d="m525.03,757.03c.02.17.02.13,0,0h0Z"/>
        <path class="cls-17" d="m597.1,467.08h.03s0,0,0,0c0,0-.02,0-.03,0Z"/>
      </g>
      <g>
        <path class="cls-7" d="m67.12,194.03C30.05,194.03,0,224.08,0,261.15c0,18.15,7.22,34.61,18.93,46.7h-.02s18.7,19.15,18.7,42.1h59.02c0-22.95,18.7-42.1,18.7-42.1h-.02c11.71-12.08,18.93-28.54,18.93-46.7,0-37.07-30.05-67.12-67.12-67.12Z"/>
        <path class="cls-10" d="m71.72,345.07h-34.39c.18,1.6.29,3.23.29,4.88h59.02c0-22.95,18.7-42.1,18.7-42.1h-.02c11.71-12.08,18.93-28.54,18.93-46.7,0-21.13-9.77-39.97-25.04-52.28,19.36,25.68,21.3,65.04-3.98,92.43h.02s-11.91,12.81-16.62,30.19c-2.17,7.99-9,13.58-16.9,13.58Z"/>
        <path class="cls-10" d="m58.2,297.67c-1.32.01.12.01,0,0h0Z"/>
        <path class="cls-10" d="m93.88,292.7c3.78-9.59-8.12-17.67-13.34-11.12-2.76,3.47-3.69,11.63-3.93,16.02-12.56.03-17.02.05-18.41.06.12.01-1.32.01,0,0-.03,0-.19,0-.56-.02-.27-5.17-1.4-15.54-6.08-17.81-5.48-2.65-12.11,3.11-11.9,9.44.18,5.46,4.93,11.26,13.63,12.56.04,4.66-.21,34.21-.29,41.66-.03,2.57-.05,5.15-.09,7.72-.04,2.88,4.43,2.88,4.47,0,.15-9.71.42-43.45.38-49.05.09,0,18.6-.1,18.7-.1-.05,3.09.26,40.21.39,49.15.04,2.87,4.51,2.88,4.47,0-.19-12.75-.42-48.72-.41-49.49,5.62-.81,10.68-3.22,12.96-9.03Zm-5.69-7.86c4.66,4.32.42,11.1-7.11,12.43.44-6.89,2.07-17.1,7.11-12.43Zm-38.33-.82c2.17,1.86,3.11,10.38,3.28,13.25-13.98-2.49-8.56-16.26-3.28-13.25Z"/>
        <rect class="cls-9" x="29.51" y="345.07" width="75.22" height="21.99" rx="7.49" ry="7.49"/>
        <path class="cls-6" d="m98.04,367.06c3.7,0,6.69-3.49,6.69-7.79v-6.42c0-4.3-3-7.79-6.69-7.79h-2.71v7.98c0,3.13-2.18,5.67-4.87,5.67H29.51v.56c0,4.3,3,7.79,6.69,7.79h61.84Z"/>
        <rect class="cls-9" x="29.51" y="367.06" width="75.22" height="21.99" rx="7.49" ry="7.49"/>
        <path class="cls-6" d="m98.04,389.05c3.7,0,6.69-3.49,6.69-7.79v-6.42c0-4.3-3-7.79-6.69-7.79h-2.71v7.98c0,3.13-2.18,5.67-4.87,5.67H29.51v.56c0,4.3,3,7.79,6.69,7.79h61.84Z"/>
        <path class="cls-6" d="m78.11,405.2c5.32,0,9.62-4.31,9.62-9.62v-12.9h-41.22v12.9c0,5.32,4.31,9.62,9.62,9.62h21.98Z"/>
        <g>
          <path class="cls-2" d="m22.22,237.61s0-.01,0-.02c.02-.04.03-.09.05-.13-.24.56-.26.61-.06.15Z"/>
          <path class="cls-2" d="m27.84,227.99s.02-.02.03-.03c.02-.03.04-.05.06-.08-.36.46-.39.5-.09.12Z"/>
          <path class="cls-2" d="m35.44,220.31s.06-.04.08-.06c.28-.23.47-.39-.08.06Z"/>
          <path class="cls-2" d="m20.05,244.42c.41-1.73.91-3.43,1.51-5.1.15-.42.31-.83.47-1.24.06-.16.13-.33.2-.49,0,0,0,.01,0,.02-.2.46-.18.41.06-.15-.02.04-.03.09-.05.13.36-.8.73-1.6,1.12-2.39.8-1.58,1.69-3.12,2.66-4.6.49-.74.99-1.47,1.52-2.19.11-.15.22-.3.34-.45,0,.01-.02.02-.03.03-.3.39-.27.35.09-.12-.02.03-.04.05-.06.08.23-.29.47-.58.71-.87,1.1-1.32,2.27-2.59,3.5-3.79.64-.62,1.29-1.22,1.96-1.8.33-.29.67-.58,1.02-.86.07-.06.29-.24.48-.4-.03.02-.06.04-.08.06.56-.45.36-.29.08-.06,2.71-2.19,5.87-3.95,9.03-5.38,2.14-.97,2.82-4.23,1.6-6.12-1.42-2.21-3.83-2.64-6.12-1.6-10.89,4.91-20.02,14.08-25.07,24.89-1.5,3.22-2.73,6.55-3.55,10.01-.54,2.27.71,4.95,3.12,5.5,2.29.52,4.93-.69,5.5-3.12Z"/>
        </g>
        <circle class="cls-2" cx="13.13" cy="256.68" r="5.43" transform="translate(-229.03 170.58) rotate(-67.5)"/>
      </g>
      <g>
        <path class="cls-16" d="m239.92,425.11c35.58-12.97-10.18-86.89-10.18-86.89,0,0-33.32-5.48-45.45,24.66-13.14,32.64,18.05,75.93,55.62,62.23Z"/>
        <g>
          <path class="cls-4" d="m215.83,379.93c.82.6-.36-.31,0,0h0Z"/>
          <path class="cls-4" d="m208.09,375.41c.09.03.18.07.27.1.18.05.12.01-.27-.1Z"/>
          <path class="cls-4" d="m222.17,386.37c.41.56.79,1.13,1.17,1.7,1.28,1.96,4.02,2.96,6.12,1.6,1.95-1.26,2.97-4.02,1.6-6.12-6.1-9.36-15.77-16.26-26.72-18.64-2.28-.5-4.94.68-5.5,3.12-.51,2.26.68,4.97,3.12,5.5,1.18.26,2.35.56,3.5.93.6.19,1.2.4,1.79.62.27.1.54.2.8.31.14.06.24.09.31.11-.09-.03-.18-.07-.27-.1.39.11.44.15.27.1,1.02.35,2.05,1,2.97,1.51,1.05.59,2.08,1.22,3.08,1.9.47.32.94.66,1.4,1,0,0,.01,0,.02.01-.36-.31.82.6,0,0,.01.01.01.01.03.03.22.19.45.36.67.55.92.77,1.81,1.59,2.66,2.45.85.86,1.66,1.75,2.42,2.69.09.11.29.29.4.39.1.09.08.07,0,0-.05-.04-.12-.1-.25-.21.16.13.29.38.41.55Z"/>
          <path class="cls-4" d="m222,386.03c.08.07.1.09,0,0h0Z"/>
        </g>
        <g>
          <path class="cls-4" d="m221.06,387.18c.04-.06.08-.11.12-.17.32-.44-.56.69-.12.17Z"/>
          <path class="cls-4" d="m217.87,392.63c-.25.58-.05.11.06-.13.07-.17.12-.29-.06.13Z"/>
          <path class="cls-4" d="m224.87,383.36c-.26.19-.77.72,0,0h0Z"/>
          <path class="cls-4" d="m224.88,383.36c.97-.71,1.72-1.47,2.05-2.67.29-1.07.16-2.5-.45-3.45-1.2-1.86-4.1-3.08-6.12-1.6-6.47,4.73-11.38,12.06-12.59,20.08-.19,1.23-.21,2.32.45,3.45.54.93,1.61,1.81,2.67,2.05,2.13.48,5.13-.65,5.5-3.12.24-1.61.64-3.18,1.19-4.71.08-.22.16-.43.24-.65.02-.05.06-.15.1-.24-.11.24-.31.71-.06.13.18-.42.13-.3.06-.13.02-.04.03-.08.04-.1.08-.17.16-.34.24-.5.38-.8.8-1.58,1.26-2.34.43-.72.89-1.42,1.38-2.1.07-.09.14-.19.21-.28-.44.52.44-.6.12-.17-.04.06-.08.11-.12.17.01-.01.01-.01.02-.03.27-.32.53-.64.81-.95.55-.61,1.12-1.2,1.72-1.76.3-.28.6-.54.91-.8.14-.11.29-.22.41-.34-.03.02-.04.04-.06.06,0,0,0,0,0,0Z"/>
        </g>
        <path class="cls-12" d="m257.62,463.47c35.67,31.61,91.14,46.25,146.97,42.73,94.43-5.95,136.7-44.69,158.13-72.06,28.77-36.74,63.82-163.47,34.34-248.27-24.66-70.94-97.75-107.04-183.17-106.56-54.71.31-131.21,23.78-162.92,84.54-40.12,76.9-30.82,125.09-29.94,170.86.65,33.74-8,89.24,36.58,128.75Z"/>
        <path class="cls-16" d="m392.85,501.68c-32.25,2.03-64.38-2.01-92.65-11.87,30.93,13.13,67.58,18.7,104.39,16.39,94.43-5.95,136.7-44.69,158.13-72.06,28.77-36.74,63.82-163.47,34.34-248.27-15.92-45.79-52.02-77.06-98.6-93.35,40.87,17.24,72.3,46.97,86.86,88.83,29.48,84.8-5.58,211.54-34.34,248.27-21.43,27.36-63.7,66.11-158.13,72.06Z"/>
        <path class="cls-19" d="m548.92,370.46c5.87,4.75,87.75-3.59,87.75-3.59,0,0,41.41-98.51,26.14-184.22S561.84,10.62,432.39.94c-129.45-9.69-178.77,58.12-189.33,95.11,0,0-56.36,17.61-69.57,85.42-13.21,67.81,23.59,164.43,23.59,164.43,0,0,9.83-6.57,24-7.57,0,0,1.04-61.66,1.55-78.78,0,0,44.5-45.79,52.72-97.46,0,0,35.23,41.1,105.68,65.17,0,0-25.24-25.83-29.35-59.3,0,0,44.03,48.14,123.87,66.34,0,0-19.96-24.66-22.9-41.68,0,0,62.23,21.34,101.57,57.35,0,0,7.83,26.02,2.35,70.05-4.14,33.25-13.5,45.69-7.63,50.44Z"/>
        <g>
          <path class="cls-18" d="m282.23,169.16s0,0,0,0h0Z"/>
          <path class="cls-18" d="m282.23,169.16s0,0,0,0c0,0,0,0,0,0Z"/>
          <path class="cls-18" d="m208.26,236.67c-4.24-7.36-7.29-15.4-9-23.73-3.05,16.53-13.09,30.06-25.45,41.86,7.03,48.48,23.26,91.1,23.26,91.1,0,0,9.83-6.57,24-7.57,0,0,1.04-61.66,1.55-78.78,0,0,19.69-20.26,35.29-49.04,8.04-15.21,14.66-31.01,17.43-48.42,5.7,5.85,6.78,6.95,6.89,7.07-.05-.05-.21-.21.01.01h0c13.4,12.81,46.32,40.17,98.78,58.09,0,0-25.24-25.83-29.35-59.3,0,0,44.03,48.14,123.87,66.34,0,0-19.96-24.66-22.9-41.68,0,0,62.23,21.34,101.57,57.35,0,0,7.83,26.02,2.35,70.05-4.14,33.25-13.5,45.69-7.63,50.44,5.87,4.75,87.75-3.59,87.75-3.59,0,0,19.19-45.67,26.62-101.87-8.07,19.21-24.37,34.94-44.06,41.88,4.83-13.87-.45-40.87-10.41-52.44,0,0-7.42,21.87-21.47,42.68.83-107.05-135.31-112.73-176.86-160,.81,20.71,12.54,50.63,7.91,47.28-33.7-17.2-74.83-58.61-93.83-91.32-8.43,34.2-4.35,59.9-4.35,59.9-37.99-14.95-73.31-67.65-72.38-69.76-2.08,4.54-3.66,8.86-4.79,12.83,33.62,56.93,10.42,114.55-34.79,140.62Z"/>
        </g>
        <path class="cls-12" d="m605.58,439.49c33.76-12.04,44.03-57.53,26.42-80.72-15.02-19.78-52.54-23.48-75.44,7.04-22.9,30.53-11.75,64.61-11.75,64.61,0,0,24.82,21.89,60.77,9.07Z"/>
        <path class="cls-16" d="m592.94,433c-18.47,6.59-34,4.01-44.74-.05,7.95,5.36,29.26,16.57,57.38,6.54,33.76-12.04,44.03-57.53,26.42-80.72-4.67-6.15-11.52-10.74-19.42-13.24,26.61,20.3,17.4,74.27-19.64,87.47Z"/>
        <g>
          <path class="cls-1" d="m578.01,390.41c.07-.09.15-.17.22-.26.06-.08.03-.05-.22.26Z"/>
          <path class="cls-1" d="m572.78,399.46s.03-.08.05-.12c.17-.48-.31.7-.05.12Z"/>
          <path class="cls-1" d="m585.18,383.19c-.22.17-.17.13-.05.04.14-.11.36-.29.05-.04Z"/>
          <path class="cls-1" d="m570.82,405.67c.42-1.74.93-3.45,1.55-5.13.14-.39.31-.78.45-1.17,0-.02,0-.02.01-.04-.02.04-.03.08-.05.12-.26.58.23-.6.05-.12.05-.12.11-.25.16-.37.39-.87.8-1.73,1.25-2.57.83-1.58,1.76-3.11,2.77-4.59.24-.34.48-.68.72-1.02.09-.12.4-.51.49-.64-.07.09-.15.17-.22.26.25-.31.28-.34.22-.26.49-.61.98-1.21,1.5-1.79,1.19-1.33,2.45-2.6,3.8-3.78.31-.28.63-.55.95-.81.19-.16.38-.31.57-.46.01,0,.05-.04.09-.07-.12.09-.18.13.05-.04.31-.24.09-.07-.05.04.12-.09.29-.22.35-.26.15-.11.3-.22.46-.33.46-.33.92-.65,1.39-.96,1.52-1,3.09-1.91,4.72-2.72.45-.22.9-.44,1.36-.65.17-.08.35-.15.51-.23.01,0,.01,0,.02-.01-.02,0-.03.01-.05.02-.62.24.59-.28.05-.02.86-.34,1.71-.67,2.59-.97,2.02-.68,4.08-1.23,6.18-1.62.49-.09.99-.17,1.48-.25.03,0,.07-.01.1-.02-.06,0-.12.01-.18.03.78-.19.43-.08.18-.03.19-.03.39-.04.57-.06,1.12-.12,2.25-.19,3.37-.23,2.34-.08,4.58-2,4.47-4.47-.11-2.36-1.97-4.55-4.47-4.47-16.9.56-32.67,9.89-41.02,24.64-2.24,3.95-3.95,8.25-5.01,12.67-.55,2.27.72,4.95,3.12,5.5,2.3.52,4.92-.69,5.5-3.12Z"/>
          <path class="cls-1" d="m604.11,375.24c.06-.01.12-.02.18-.03.25-.06.6-.17-.18.03Z"/>
          <path class="cls-1" d="m593.88,378.1s.03-.01.05-.02c.53-.26-.67.26-.05.02Z"/>
        </g>
        <g>
          <path class="cls-1" d="m583.73,388.77s.02.02.03.04c.02.02.04.05.07.07.51.59-.53-.76-.09-.11Z"/>
          <path class="cls-1" d="m581.82,386.8c-.36-.27-.26-.19-.1-.05.26.19.5.36.1.05Z"/>
          <path class="cls-1" d="m587.41,406.81s0,.01,0,.02c0,0,0,0,0,0-.11,1.01.13-.76,0-.03Z"/>
          <path class="cls-1" d="m587.41,398.59c.16.97-.07-.75,0,0h0Z"/>
          <path class="cls-1" d="m585.67,392.09c.04.12.1.24.15.37,0,0,0,.02,0,.02.02.02.03.05.04.07.02.02-.36-.92-.2-.46Z"/>
          <path class="cls-1" d="m587.41,406.81c.12-.73-.11,1.04,0,.03,0,0,0,0,0,0-.06.33-.11.66-.17.99-.11.62-.25,1.23-.4,1.83-.3,1.18-.67,2.33-1.13,3.46-.89,2.17.97,5.01,3.12,5.5,2.6.59,4.54-.8,5.5-3.12,1.96-4.77,2.53-10.28,2.16-15.39-.4-5.59-1.81-11.48-5.19-16.05-1.98-2.69-4.43-5.03-7.51-6.42-2.13-.96-4.91-.69-6.12,1.6-1.03,1.95-.67,5.09,1.6,6.12.5.22.98.47,1.45.74.21.13.42.26.63.4.05.03.2.14.35.25-.16-.13-.26-.21.1.05.4.3.16.13-.1-.05.11.09.26.21.31.26.22.19.43.39.63.59.39.39.74.8,1.1,1.22,0-.01-.02-.02-.03-.04-.44-.65.6.7.09.11-.02-.02-.04-.05-.07-.07.16.23.32.46.47.69.32.5.63,1.01.9,1.54.24.45.41,1.02.69,1.45,0,0,0-.02,0-.02-.05-.12-.1-.24-.15-.37-.16-.45.21.49.2.46-.02-.02-.03-.05-.04-.07.12.32.24.65.35.97.38,1.1.68,2.23.92,3.37.12.58.22,1.16.31,1.74,0,0,0,0,0,.02-.07-.75.16.97,0,0,0,0,0,0,0,.02.03.32.07.64.1.95.21,2.43.16,4.85-.1,7.27,0,0,0-.01,0-.02Z"/>
        </g>
        <ellipse class="cls-19" cx="463.16" cy="357.53" rx="27.93" ry="37.34"/>
        <circle class="cls-2" cx="474.36" cy="349.34" r="8.19"/>
        <ellipse class="cls-19" cx="292.29" cy="357.53" rx="27.93" ry="37.34"/>
        <circle class="cls-2" cx="303.49" cy="349.34" r="8.19"/>
        <path class="cls-19" d="m380.83,465.11c33.03-1.49,36.42-37.53,36.42-37.53-19.84,7.78-59.55,8.63-77.56,4.64,0,0,8.82,34.35,41.15,32.9Z"/>
        <path class="cls-13" d="m409.91,448.37c-.19-.09-.38-.19-.57-.28-5.72-2.6-12.22-2.86-18.5-2.52-12.52.69-25.48,4.05-35.45,11.33,6.14,5.04,14.42,8.7,25.43,8.21,14.97-.67,23.85-8.44,29.08-16.74Z"/>
        <g>
          <path class="cls-19" d="m392.2,458.2c.32-.14.28-.12.13-.06-.3.13-.67.29-.13.06Z"/>
          <path class="cls-19" d="m374.53,460.47c-.08-.02-.16-.03-.24-.04-.09-.01-.18-.02-.26-.03-.5-.04.54.08.51.07Z"/>
          <path class="cls-19" d="m384.27,460.35s-.11.01-.23.02c-.09,0-.18.02-.27.03-.02,0-.05.01-.08.02.05-.02.42-.06.57-.07Z"/>
          <path class="cls-19" d="m398.69,454.39s-.04.03-.05.04c-.78.64.56-.4.05-.04Z"/>
          <path class="cls-19" d="m393.62,428.5c-.68.09-1.36.17-2.04.25-1.43.16-2.86.31-4.29.44-10.9,1-21.91,1.22-32.83.48-2.62-.18-5.24-.42-7.84-.75h-.02s.07,0,.11.01c.57.09-1.03-.13-.46-.06.12.01.23.03.35.05-.28-.04-.56-.08-.84-.12-.57-.09-1.15-.18-1.72-.27-1.06-.18-2.12-.39-3.17-.62-3.32-.73-6.38,2.08-5.5,5.5,1.18,4.59,3.32,9.1,5.69,13.18,4.83,8.3,11.89,15.66,20.8,19.52,11.56,5.01,25.47,4.75,36.71-1.07,8.43-4.36,14.78-12.11,18.53-20.73,1.45-3.33,2.67-6.74,3.51-10.28.41-1.74.85-3.62,1.02-5.44-.4,1.5-1.7,2.72-3.19,3.3-2.32.91-4.71,1.65-7.12,2.3-.38,1.33-.81,2.64-1.29,3.94-.15.4-.3.79-.46,1.19-.06.15-.12.29-.18.44,0-.02.02-.03.02-.05.35-.78-.46,1.13-.07.17.02-.04.03-.08.05-.12-.37.85-.76,1.69-1.17,2.52-.9,1.79-1.91,3.53-3.05,5.18-.29.42-.58.83-.88,1.23-.02.03-.04.06-.06.08.07-.09.13-.17.21-.26,0,0-.72.96-.33.42.04-.05.08-.11.12-.16-.12.16-.25.31-.37.47-.69.84-1.41,1.64-2.16,2.42-.78.79-1.59,1.55-2.44,2.27-.2.16-.39.33-.59.49-.01,0-.01,0-.02.02.02-.01.04-.03.05-.04.5-.36-.83.68-.05.04-.47.34-.93.68-1.41,1-.99.66-2.01,1.27-3.07,1.82-.53.28-1.06.54-1.6.78-.05.02-.13.06-.23.1.15-.06.19-.07-.13.06-.54.23-.17.07.13-.06-.21.08-.63.25-.73.29-1.23.47-2.49.86-3.77,1.19-1.31.33-2.77.4-4.05.79.09-.01.18-.02.27-.03.11-.01.18-.02.23-.02.07,0,.08,0,0,0-.15.02-.52.06-.57.07.02,0,.05-.01.08-.02-.05,0-.11.01-.16.02-.38.04-.77.08-1.16.11-.8.07-1.59.11-2.39.13-1.51.04-3.02,0-4.52-.11-.33-.03-.65-.06-.98-.09-.1-.01-.19-.02-.29-.03.08.02.16.02.24.04.03,0-1.01-.11-.51-.07.09,0,.18.02.26.03-.66-.13-1.34-.21-2.01-.34-1.3-.26-2.59-.6-3.86-1-.55-.18-1.1-.37-1.64-.57-.21-.08-.42-.16-.63-.25.04.02.07.03.11.06-.08-.04-.17-.08-.25-.11-.05-.02-.1-.04-.15-.06-.09-.04-.18-.08-.24-.12-1.08-.49-2.13-1.04-3.15-1.64-.99-.58-1.94-1.2-2.87-1.87-.22-.16-.43-.32-.65-.48.71.59-.64-.47-.08-.06.03.02.05.04.08.06-.02-.02-.02-.02-.05-.04-.45-.37-.91-.74-1.35-1.13-1.64-1.45-3.17-3.03-4.57-4.7-.28-.33-.55-.67-.82-1.01,0,0,0,.01.01.02.62.84-.47-.58-.09-.11.03.03.05.06.08.09-.15-.21-.31-.41-.46-.62-.6-.83-1.18-1.68-1.73-2.54-.98-1.53-1.88-3.11-2.7-4.73-.23-.45-.45-.92-.67-1.38-2.73-.35-5.44-.8-8.11-1.39l5.5-5.5c.02.08.04.16.07.24.53,1.64,1.07,3.26,1.72,4.86.01.03.02.06.04.08.14.33.29.66.44.98.11.24.23.48.35.72,7.14.92,14.42,1.14,21.56,1.11,11.55-.04,23.16-.9,34.54-2.95,2.89-.52,5.77-1.13,8.62-1.89.41-1.43.77-2.87,1.06-4.33.16-.8.3-1.61.42-2.42,0-.04.02-.08.02-.12.01-.1.02-.14.02-.14.37-2.29,1.94-3.95,4.4-4.06.66-.03,1.33.15,1.95.46-.95-.53-2.06-.72-3.14-.3-4.33,1.69-8.86,2.84-13.41,3.75-2.61.52-5.25.96-7.89,1.33-.09.01-.17.02-.24.03.06,0,.12-.01.2-.02-.36.04-.73.1-1.09.14Z"/>
          <path class="cls-19" d="m346.71,428.93s-.07-.01-.11-.02c-.12-.02-.23-.03-.35-.05-.57-.07,1.02.15.46.06Z"/>
          <path class="cls-19" d="m404.43,448.52c-.07.08-.14.17-.21.26-.04.05-.08.11-.12.16-.39.54.32-.42.33-.42Z"/>
          <path class="cls-19" d="m394.51,428.38c-.39.05-.3.04,0,0h0Z"/>
          <path class="cls-19" d="m409.42,439.71s-.02.03-.02.05c-.02.04-.03.08-.05.12-.39.96.42-.96.07-.17Z"/>
          <path class="cls-19" d="m412.75,427.81c-.01.09-.02.18-.03.27-.06.59.14-.94.13-.91,0,.05-.02.1-.02.14,0,.01,0,.02,0,.03,0,.03-.01.06-.02.09,0,.05-.02.09-.02.14,0,.08-.02.16-.03.23Z"/>
          <path class="cls-19" d="m412.82,427.31s.02-.1.02-.14c0,0,0,.05-.02.14Z"/>
          <path class="cls-19" d="m365.62,458.04s.06.03.09.04c.1.04.2.09.3.13.05.02.09.04.14.05-.61-.31-.65-.3-.53-.23Z"/>
          <path class="cls-19" d="m421.56,426.39c.09.27.14.54.17.81-.04-1.51-1.14-2.93-2.53-3.63,1.1.62,1.99,1.69,2.36,2.82Z"/>
          <path class="cls-19" d="m358.95,454.06s-.05-.04-.08-.06c-.57-.42.79.64.08.06Z"/>
          <path class="cls-19" d="m421.69,427.82c0,.25-.04.51-.07.76.12-.44.16-.91.1-1.39,0,.13,0,.25,0,.38,0,.08-.02.17-.03.25Z"/>
          <path class="cls-19" d="m412.82,427.31s-.02.08-.02.12c0-.03.01-.06.02-.09,0-.01,0-.02,0-.03Z"/>
          <path class="cls-19" d="m352.17,447.19s0-.01-.01-.02c-.03-.03-.05-.06-.08-.09-.38-.47.71.95.09.11Z"/>
          <path class="cls-19" d="m412.84,427.17s-.19,1.5-.13.91c.01-.09.02-.18.03-.27,0-.08.02-.16.03-.23,0-.05.02-.09.02-.14-.12.81-.26,1.62-.42,2.42-.29,1.46-.65,2.9-1.06,4.33,2.41-.64,4.79-1.39,7.12-2.3,1.49-.58,2.79-1.8,3.19-3.3.02-.25.06-.51.07-.76,0-.08.02-.17.03-.25.01-.13.01-.25,0-.38-.03-.27-.08-.53-.17-.81-.37-1.13-1.25-2.21-2.36-2.82-.62-.31-1.29-.49-1.95-.46-2.47.11-4.03,1.78-4.4,4.06Z"/>
          <path class="cls-19" d="m345.79,436.16s0-.03-.01-.04c-.06-.14-.12-.28-.18-.42-.04-.08.5,1.22.2.46Z"/>
          <path class="cls-19" d="m345.81,436.2s-.02-.06-.04-.08c0,.01,0,.03.01.04.31.76-.23-.54-.2-.46.06.14.12.28.18.42-.64-1.6-1.18-3.22-1.72-4.86-.03-.08-.04-.16-.07-.24l-5.5,5.5c2.67.59,5.38,1.03,8.11,1.39-.11-.24-.24-.48-.35-.72-.15-.33-.3-.65-.44-.98Z"/>
        </g>
        <path class="cls-17" d="m439.18,126.65l1.07-22.16s43.41,50.48,123.71,67.29l-6.17-23.53s31.42,10.65,72.14,7.91c0,0-75.7-26.37-102.89-47.48,0,0,2.58,13.78,11.49,26.87,0,0-82.3-39.5-111.41-72.65,0,0-2.99,16.31-1.47,30.49,0,0-34.86-21.67-53.12-40.18,0,0,17.59,42.54,66.65,73.44Z"/>
        <path class="cls-17" d="m215.17,171.78c14.39-31.4,12.3-46.09,12.3-46.09-3.84,12.33-15.38,25.05-15.38,25.05l-8.94-5.67c-2.33,12.92-14.11,39.33-14.11,39.33,18.03-16.94,18.2-22.3,18.2-22.3l7.93,9.69Z"/>
        <g>
          <path class="cls-19" d="m261.45,282.68s.06-.04.09-.07c.08-.06.16-.13.24-.19-.11.09-.22.17-.34.26Z"/>
          <path class="cls-19" d="m284.7,273.41c.25-.03.49-.05.74-.08.35-.05.7-.11,1.04-.16-.59.08-1.19.16-1.78.24Z"/>
          <path class="cls-19" d="m270.12,277.55c.29-.12.59-.24.89-.35.24-.11.47-.22.71-.32-.53.23-1.07.45-1.6.68Z"/>
          <path class="cls-19" d="m257.97,285.8c1.04-1.03,2.12-2,3.25-2.92.11-.09.22-.17.33-.26-.03.02-.06.04-.09.07l-.45.34c.14-.12.29-.23.45-.34.11-.09.22-.17.34-.26-.08.06-.16.13-.24.19.11-.08.23-.16.34-.24.64-.46,1.29-.91,1.95-1.33,2.28-1.48,4.69-2.74,7.18-3.85-.3.12-.59.23-.89.35.53-.23,1.07-.45,1.6-.68-.24.1-.47.22-.71.32,4.64-1.86,9.48-3.11,14.43-3.86-.25.03-.49.05-.74.08.59-.08,1.19-.16,1.78-.24-.35.05-.7.11-1.04.16,9.15-1.12,18.39-.65,27.53.42,1.59.19,3.66-.88,4.74-1.96,1.16-1.16,2.04-3.07,1.96-4.74-.08-1.73-.65-3.53-1.96-4.74-1.39-1.28-2.87-1.75-4.74-1.96-17.91-2.09-36.79-1.58-52.94,7.34-4.2,2.32-8.13,5.26-11.54,8.63-2.5,2.47-2.66,7.04,0,9.48,2.69,2.47,6.82,2.64,9.48,0Z"/>
        </g>
        <g>
          <path class="cls-19" d="m491.59,283.96c-.36-.29-1.28-.88,0,0h0Z"/>
          <path class="cls-19" d="m465.38,273.78c.34.05.67.1,1.01.15.26.03.52.05.77.09-.59-.08-1.19-.16-1.78-.24Z"/>
          <path class="cls-19" d="m439.36,274.46c.25-.03.5-.06.75-.09.34-.05.68-.1,1.03-.15-.59.08-1.19.16-1.78.24Z"/>
          <path class="cls-19" d="m480.28,277.5c.31.13.61.27.92.41.23.09.46.18.69.27-.53-.23-1.07-.45-1.6-.68Z"/>
          <path class="cls-19" d="m491.61,283.98c.57.47,1.14.95,1.69,1.45,2.62,2.34,6.94,2.77,9.48,0,2.34-2.55,2.79-6.99,0-9.48-14.66-13.1-34.69-17.07-53.84-15.85-6.13.39-12.23,1.23-18.28,2.26-1.56.26-3.24,1.77-4.01,3.08-.84,1.44-1.2,3.56-.68,5.17.53,1.62,1.53,3.19,3.08,4.01,1.68.89,3.3.99,5.17.68,1.96-.33,3.92-.63,5.89-.91-.25.03-.5.06-.75.09.59-.08,1.19-.16,1.78-.24-.34.05-.69.1-1.03.15,8.72-1.11,17.54-1.51,26.28-.44-.34-.05-.67-.11-1.01-.15.59.08,1.19.16,1.78.24-.26-.03-.52-.05-.77-.09,5.07.77,10.04,2.07,14.8,3.98-.31-.13-.61-.28-.92-.41.53.23,1.07.45,1.6.68-.23-.09-.46-.18-.69-.27,2.24.99,4.41,2.1,6.5,3.38,1.15.71,2.28,1.46,3.37,2.27.25.18.49.38.74.55-.08-.06-.15-.1-.22-.15,0,0,.02.01.02.02Z"/>
        </g>
      </g>
    </g>
  </g>
</svg>