<svg xmlns="http://www.w3.org/2000/svg" width="20.982" height="18.179" viewBox="0 0 20.982 18.179">
  <path id="Icon_awesome-shopping-basket" data-name="Icon awesome-shopping-basket" d="M20.982,9.716v.649a.928.928,0,0,1-.874.974h-.291l-.951,7.417a1.822,1.822,0,0,1-1.731,1.672H3.848a1.822,1.822,0,0,1-1.731-1.672L1.166,11.34H.874A.928.928,0,0,1,0,10.366V9.716a.928.928,0,0,1,.874-.974H3.327l3.89-5.958A1.09,1.09,0,0,1,8.845,2.5,1.4,1.4,0,0,1,9.1,4.312L6.21,8.742h8.562l-2.892-4.43A1.4,1.4,0,0,1,12.137,2.5a1.09,1.09,0,0,1,1.628.286l3.89,5.958h2.453A.928.928,0,0,1,20.982,9.716Zm-9.617,7.142V12.313a.928.928,0,0,0-.874-.974.928.928,0,0,0-.874.974v4.545a.928.928,0,0,0,.874.974A.928.928,0,0,0,11.365,16.858Zm4.08,0V12.313a.879.879,0,1,0-1.748,0v4.545a.879.879,0,1,0,1.748,0Zm-8.16,0V12.313a.928.928,0,0,0-.874-.974.928.928,0,0,0-.874.974v4.545a.928.928,0,0,0,.874.974A.928.928,0,0,0,7.285,16.858Z" transform="translate(0 -2.25)" fill="#fff"/>
</svg>
