<?xml version="1.0" standalone="no"?>
<!DOCTYPE svg PUBLIC "-//W3C//DTD SVG 20010904//EN"
 "http://www.w3.org/TR/2001/REC-SVG-20010904/DTD/svg10.dtd">
<svg version="1.0" xmlns="http://www.w3.org/2000/svg"
 width="2000.000000pt" height="1000.000000pt" viewBox="0 0 2000.000000 1000.000000"
 preserveAspectRatio="xMidYMid meet">

<g transform="translate(0.000000,1000.000000) scale(0.100000,-0.100000)"
fill="#000000" stroke="none">
<path d="M7458 9083 c7 -3 16 -2 19 1 4 3 -2 6 -13 5 -11 0 -14 -3 -6 -6z"/>
<path d="M7548 9083 c7 -3 16 -2 19 1 4 3 -2 6 -13 5 -11 0 -14 -3 -6 -6z"/>
<path d="M7585 9080 c-3 -5 1 -10 10 -10 9 0 13 5 10 10 -3 6 -8 10 -10 10 -2
0 -7 -4 -10 -10z"/>
<path d="M7625 9070 c-3 -5 1 -10 10 -10 9 0 13 5 10 10 -3 6 -8 10 -10 10 -2
0 -7 -4 -10 -10z"/>
<path d="M7670 9051 c0 -5 15 -14 33 -20 19 -6 66 -32 106 -56 40 -25 79 -45
87 -45 8 0 14 -6 15 -12 0 -7 52 -53 115 -103 64 -49 127 -100 142 -113 15
-13 47 -40 72 -60 25 -20 54 -46 66 -58 12 -11 44 -38 70 -60 27 -21 51 -41
54 -44 3 -3 30 -25 60 -50 30 -24 96 -81 145 -126 122 -110 216 -185 226 -178
10 6 -10 26 -71 74 -25 19 -46 38 -48 42 -2 5 -12 8 -23 8 -10 0 -19 7 -19 15
0 8 -7 15 -15 15 -8 0 -15 6 -15 13 0 14 -41 53 -52 49 -5 -1 -8 5 -8 13 0 8
-6 15 -12 15 -7 1 -24 14 -38 30 -13 17 -30 30 -38 30 -7 0 -11 4 -8 8 3 5
-12 22 -32 39 -21 17 -60 53 -88 80 -28 26 -74 68 -104 93 -29 25 -59 51 -66
58 -7 6 -15 12 -18 12 -3 0 -26 20 -53 45 -26 25 -53 45 -60 45 -7 0 -13 7
-13 15 0 8 -6 15 -14 15 -8 0 -16 7 -20 15 -3 8 -12 15 -20 15 -7 0 -16 7 -20
15 -3 8 -12 15 -21 15 -8 0 -15 5 -15 10 0 6 -7 10 -15 10 -8 0 -15 5 -15 10
0 6 -9 10 -19 10 -10 0 -21 7 -25 15 -3 8 -12 15 -21 15 -8 0 -15 5 -15 10 0
6 -9 10 -20 10 -11 0 -20 5 -20 10 0 6 -9 10 -20 10 -11 0 -20 5 -20 11 0 6
-9 9 -19 6 -11 -3 -22 1 -25 9 -3 7 -12 11 -21 8 -8 -3 -15 -1 -15 5 0 6 -7
11 -15 11 -8 0 -15 -4 -15 -9z"/>
<path d="M8420 8646 c0 -4 9 -16 20 -28 11 -12 20 -17 20 -11 0 5 -9 18 -20
28 -11 10 -20 15 -20 11z"/>
<path d="M2791 8033 c-51 -7 -147 -107 -193 -203 -47 -99 -108 -289 -159 -497
-22 -92 -65 -260 -94 -373 -108 -417 -154 -637 -161 -765 -7 -125 -23 -175
-55 -175 -25 0 -51 -36 -56 -75 -4 -36 4 -44 25 -23 9 9 12 8 12 -5 0 -14 10
-17 49 -17 28 0 52 -4 55 -9 3 -5 23 -12 43 -16 21 -4 43 -10 48 -14 30 -21
183 -59 535 -132 52 -11 124 -28 160 -38 36 -10 110 -28 165 -40 55 -12 132
-31 170 -41 39 -10 96 -22 128 -26 31 -3 60 -10 63 -15 9 -15 54 -10 61 7 3 8
11 13 17 11 14 -5 91 49 91 64 0 5 3 9 8 9 10 0 61 29 140 80 57 37 67 48 67
72 0 16 4 27 9 23 5 -3 13 -1 16 5 5 8 11 8 20 0 9 -8 29 4 81 50 102 88 164
151 164 165 0 7 14 15 30 19 17 3 29 11 28 17 -2 7 13 22 34 33 20 12 69 51
108 86 40 36 109 92 154 125 120 88 174 134 181 155 3 11 15 22 25 25 10 3 33
19 49 34 17 16 38 31 46 35 9 3 13 11 10 16 -4 6 -1 18 6 26 12 14 14 14 25
-1 11 -15 16 -13 51 18 21 19 54 42 73 52 39 20 145 103 203 158 20 21 41 37
46 37 9 0 107 74 172 129 20 17 44 31 52 31 9 0 27 10 41 23 13 12 50 42 80
66 57 45 65 56 44 63 -12 4 51 48 70 48 5 0 12 7 16 15 3 8 15 15 26 15 11 0
20 5 20 10 0 6 6 10 13 8 14 -3 98 44 117 66 18 22 8 20 -57 -14 -111 -57
-279 -133 -403 -182 -69 -27 -141 -58 -160 -68 -31 -16 -81 -36 -300 -118 -36
-13 -74 -25 -85 -26 -11 -2 -27 -5 -35 -8 -16 -7 -35 -11 -150 -34 -100 -20
-112 -21 -205 -29 -100 -9 -390 -9 -404 -1 -5 4 -13 2 -16 -4 -5 -8 -11 -7
-21 1 -7 6 -41 13 -74 14 -33 2 -63 6 -67 8 -5 3 -23 8 -42 12 -19 4 -48 16
-65 26 -17 10 -37 19 -44 19 -18 0 -88 75 -102 110 -6 16 -20 36 -31 46 -10 9
-19 26 -19 36 0 10 -7 29 -15 41 -19 29 -55 138 -61 184 -2 19 -9 43 -14 53
-6 10 -10 32 -10 48 0 16 -9 54 -19 84 -10 31 -24 82 -31 114 -21 103 -131
216 -246 254 -21 7 -44 19 -51 26 -7 7 -39 15 -70 19 -32 4 -67 7 -78 9 -11 1
-30 7 -42 14 -12 6 -30 13 -40 15 -10 1 -24 6 -31 11 -7 4 -29 5 -48 2 -21 -4
-34 -3 -34 4 0 5 -6 9 -12 8 -7 0 -28 -3 -47 -5z"/>
<path d="M8800 7291 c0 -5 7 -12 16 -15 24 -9 28 -7 14 9 -14 17 -30 20 -30 6z"/>
<path d="M7865 7240 c-3 -5 1 -10 9 -10 9 0 16 5 16 10 0 6 -4 10 -9 10 -6 0
-13 -4 -16 -10z"/>
<path d="M7780 7184 c0 -8 5 -12 10 -9 6 4 8 11 5 16 -9 14 -15 11 -15 -7z"/>
<path d="M7910 7150 c0 -5 5 -10 10 -10 6 0 10 5 10 10 0 6 -4 10 -10 10 -5 0
-10 -4 -10 -10z"/>
<path d="M7665 7110 c-3 -5 -2 -10 4 -10 5 0 13 5 16 10 3 6 2 10 -4 10 -5 0
-13 -4 -16 -10z"/>
<path d="M7795 7080 c-3 -5 -1 -10 4 -10 6 0 11 5 11 10 0 6 -2 10 -4 10 -3 0
-8 -4 -11 -10z"/>
<path d="M7556 7031 c-4 -7 -5 -15 -2 -18 9 -9 19 4 14 18 -4 11 -6 11 -12 0z"/>
<path d="M7705 7020 c-3 -5 -2 -10 4 -10 5 0 13 5 16 10 3 6 2 10 -4 10 -5 0
-13 -4 -16 -10z"/>
<path d="M7590 6929 c0 -5 5 -7 10 -4 6 3 10 8 10 11 0 2 -4 4 -10 4 -5 0 -10
-5 -10 -11z"/>
<path d="M7431 6921 c-10 -7 -10 -10 -1 -16 6 -4 16 -3 22 3 13 13 -4 23 -21
13z"/>
<path d="M7470 6820 c0 -5 5 -10 10 -10 6 0 10 5 10 10 0 6 -4 10 -10 10 -5 0
-10 -4 -10 -10z"/>
<path d="M7327 6803 c-4 -3 -7 -11 -7 -17 0 -6 5 -5 12 2 6 6 9 14 7 17 -3 3
-9 2 -12 -2z"/>
<path d="M7355 6710 c-3 -5 -1 -10 4 -10 6 0 11 5 11 10 0 6 -2 10 -4 10 -3 0
-8 -4 -11 -10z"/>
<path d="M7200 6685 c-10 -12 -10 -15 4 -15 9 0 16 7 16 15 0 8 -2 15 -4 15
-2 0 -9 -7 -16 -15z"/>
<path d="M7090 6581 c-6 -12 -7 -21 -1 -21 10 0 24 30 17 37 -2 3 -9 -5 -16
-16z"/>
<path d="M7120 6479 c0 -5 5 -7 10 -4 6 3 10 8 10 11 0 2 -4 4 -10 4 -5 0 -10
-5 -10 -11z"/>
<path d="M6960 6459 c0 -5 5 -7 10 -4 6 3 10 8 10 11 0 2 -4 4 -10 4 -5 0 -10
-5 -10 -11z"/>
<path d="M10690 6432 c0 -12 19 -26 26 -19 2 2 -2 10 -11 17 -9 8 -15 8 -15 2z"/>
<path d="M7005 6370 c-3 -5 -1 -10 4 -10 6 0 11 5 11 10 0 6 -2 10 -4 10 -3 0
-8 -4 -11 -10z"/>
<path d="M6840 6350 c0 -5 5 -10 10 -10 6 0 10 5 10 10 0 6 -4 10 -10 10 -5 0
-10 -4 -10 -10z"/>
<path d="M6889 6253 c-13 -16 -12 -17 4 -4 9 7 17 15 17 17 0 8 -8 3 -21 -13z"/>
<path d="M6726 6251 c-4 -7 -5 -15 -2 -18 9 -9 19 4 14 18 -4 11 -6 11 -12 0z"/>
<path d="M4490 6139 c0 -5 5 -7 10 -4 6 3 10 8 10 11 0 2 -4 4 -10 4 -5 0 -10
-5 -10 -11z"/>
<path d="M8160 6139 c0 -5 5 -7 10 -4 6 3 10 8 10 11 0 2 -4 4 -10 4 -5 0 -10
-5 -10 -11z"/>
<path d="M6610 6120 c0 -5 5 -10 10 -10 6 0 10 5 10 10 0 6 -4 10 -10 10 -5 0
-10 -4 -10 -10z"/>
<path d="M9992 6048 c5 -15 58 -24 58 -10 0 11 -24 22 -47 22 -8 0 -13 -6 -11
-12z"/>
<path d="M6497 6023 c-4 -3 -7 -11 -7 -17 0 -6 5 -5 12 2 6 6 9 14 7 17 -3 3
-9 2 -12 -2z"/>
<path d="M8050 6021 c0 -6 5 -13 10 -16 6 -3 10 1 10 9 0 9 -4 16 -10 16 -5 0
-10 -4 -10 -9z"/>
<path d="M10437 6023 c-15 -14 -6 -23 22 -23 34 0 49 15 25 24 -21 8 -39 8
-47 -1z"/>
<path d="M4267 5964 c-4 -4 -7 -14 -7 -23 0 -11 3 -12 11 -4 6 6 10 16 7 23
-2 6 -7 8 -11 4z"/>
<path d="M6540 5920 c0 -5 5 -10 10 -10 6 0 10 5 10 10 0 6 -4 10 -10 10 -5 0
-10 -4 -10 -10z"/>
<path d="M6387 5913 c-4 -3 -7 -11 -7 -17 0 -6 5 -5 12 2 6 6 9 14 7 17 -3 3
-9 2 -12 -2z"/>
<path d="M7948 5903 c7 -3 16 -2 19 1 4 3 -2 6 -13 5 -11 0 -14 -3 -6 -6z"/>
<path d="M9767 5884 c-11 -12 3 -24 28 -24 13 0 26 4 29 9 10 15 -43 29 -57
15z"/>
<path d="M10225 5871 c-7 -12 32 -34 45 -26 5 3 7 12 3 20 -6 17 -39 20 -48 6z"/>
<path d="M11807 5854 c3 -7 14 -16 25 -20 32 -10 32 3 -1 19 -23 12 -28 12
-24 1z"/>
<path d="M10682 5842 c4 -21 38 -29 38 -9 0 8 -9 17 -21 20 -15 4 -19 1 -17
-11z"/>
<path d="M7845 5780 c-3 -5 -2 -10 4 -10 5 0 13 5 16 10 3 6 2 10 -4 10 -5 0
-13 -4 -16 -10z"/>
<path d="M10005 5690 c-9 -15 14 -40 36 -40 28 0 32 17 7 34 -26 19 -35 20
-43 6z"/>
<path d="M3910 5669 c0 -5 5 -7 10 -4 6 3 10 8 10 11 0 2 -4 4 -10 4 -5 0 -10
-5 -10 -11z"/>
<path d="M9545 5670 c-10 -16 4 -30 31 -30 27 0 33 24 8 34 -22 8 -32 8 -39
-4z"/>
<path d="M10452 5658 c8 -22 36 -34 50 -20 10 10 10 15 -2 22 -21 14 -52 12
-48 -2z"/>
<path d="M7730 5640 c0 -5 7 -10 15 -10 8 0 15 5 15 10 0 6 -7 10 -15 10 -8 0
-15 -4 -15 -10z"/>
<path d="M10902 5628 c3 -7 13 -15 22 -16 12 -3 17 1 14 10 -3 7 -13 15 -22
16 -12 3 -17 -1 -14 -10z"/>
<path d="M11338 5613 c-24 -6 -23 -20 1 -33 20 -10 51 -4 51 11 0 13 -33 26
-52 22z"/>
<path d="M6096 5545 c-3 -8 -1 -15 4 -15 6 0 10 7 10 15 0 8 -2 15 -4 15 -2 0
-6 -7 -10 -15z"/>
<path d="M7636 5521 c-4 -7 -5 -15 -2 -18 9 -9 19 4 14 18 -4 11 -6 11 -12 0z"/>
<path d="M9314 5479 c-9 -16 21 -43 40 -36 9 4 16 16 16 27 0 15 -7 20 -24 20
-14 0 -28 -5 -32 -11z"/>
<path d="M10233 5473 c-4 -9 1 -22 12 -30 16 -11 21 -11 33 1 17 17 10 32 -18
39 -14 4 -23 0 -27 -10z"/>
<path d="M9755 5470 c-10 -17 8 -40 31 -40 34 0 33 36 -1 42 -14 3 -28 2 -30
-2z"/>
<path d="M10684 5469 c-3 -6 1 -18 9 -27 13 -13 19 -13 32 -2 12 10 13 16 4
26 -14 17 -35 18 -45 3z"/>
<path d="M11120 5436 c0 -18 31 -29 44 -16 8 8 7 14 -4 20 -22 14 -40 12 -40
-4z"/>
<path d="M6020 5430 c0 -5 5 -10 10 -10 6 0 10 5 10 10 0 6 -4 10 -10 10 -5 0
-10 -4 -10 -10z"/>
<path d="M11542 5404 c4 -24 48 -33 48 -10 0 9 -4 16 -9 16 -5 0 -17 3 -26 6
-13 5 -16 2 -13 -12z"/>
<path d="M3525 5379 c-4 -6 -5 -12 -2 -15 2 -3 7 2 10 11 7 17 1 20 -8 4z"/>
<path d="M5960 5319 c0 -5 5 -7 10 -4 6 3 10 8 10 11 0 2 -4 4 -10 4 -5 0 -10
-5 -10 -11z"/>
<path d="M3410 5305 c-8 -9 -8 -15 -2 -15 12 0 26 19 19 26 -2 2 -10 -2 -17
-11z"/>
<path d="M10452 5237 c2 -14 10 -22 22 -22 29 0 29 18 0 32 -23 11 -25 10 -22
-10z"/>
<path d="M9127 5243 c-11 -10 -8 -43 3 -43 15 0 24 30 13 41 -5 5 -12 6 -16 2z"/>
<path d="M9562 5238 c-7 -7 -8 -17 -1 -30 12 -22 23 -23 44 -1 16 16 16 17 -1
30 -22 16 -27 16 -42 1z"/>
<path d="M10890 5231 c0 -16 6 -21 26 -21 33 0 30 33 -4 38 -17 3 -22 -2 -22
-17z"/>
<path d="M11322 5233 c2 -10 14 -19 26 -21 19 -3 23 1 20 15 -2 10 -14 19 -26
21 -19 3 -23 -1 -20 -15z"/>
<path d="M9982 5218 c2 -15 10 -23 23 -23 30 0 27 39 -3 43 -20 3 -23 0 -20
-20z"/>
<path d="M7330 5149 c0 -5 5 -7 10 -4 6 3 10 8 10 11 0 2 -4 4 -10 4 -5 0 -10
-5 -10 -11z"/>
<path d="M6124 5087 c-16 -14 -26 -33 -26 -50 0 -15 -4 -27 -8 -27 -4 0 -8
-10 -8 -22 0 -13 -1 -29 -3 -37 -5 -16 128 -43 172 -34 17 3 37 -2 54 -13 19
-13 50 -19 97 -21 43 -1 79 -8 93 -17 22 -15 179 -54 235 -60 14 -1 36 2 48 8
20 8 27 6 42 -13 9 -13 22 -21 27 -18 6 4 25 0 42 -9 17 -8 42 -17 56 -18 14
-1 28 -6 32 -9 3 -4 30 -7 60 -7 48 0 53 2 54 23 0 21 1 21 9 2 12 -31 30 -42
84 -49 28 -3 53 -12 58 -18 5 -10 10 -10 19 -1 9 9 15 8 27 -4 8 -8 26 -13 38
-10 13 2 25 -1 27 -7 3 -8 10 -8 23 0 14 8 22 8 30 0 6 -7 36 -18 67 -26 48
-11 59 -11 74 1 15 12 16 12 10 -3 -5 -14 1 -18 31 -23 20 -3 49 -8 65 -10 16
-3 27 0 27 7 0 7 6 5 13 -4 6 -9 28 -19 47 -21 19 -2 42 -7 50 -10 15 -7 109
-25 165 -31 17 -3 48 -9 70 -15 58 -17 228 -41 238 -34 5 3 13 0 17 -7 4 -7
28 -13 54 -13 25 -1 46 -6 46 -11 0 -5 3 -7 6 -3 3 3 18 1 32 -4 37 -14 112
-1 112 20 0 42 -22 92 -45 101 -28 11 -291 67 -540 116 -99 19 -265 52 -370
74 -104 21 -273 55 -375 75 -447 88 -972 213 -1032 245 -13 7 -24 4 -44 -13z"/>
<path d="M7210 5040 c0 -5 5 -10 10 -10 6 0 10 5 10 10 0 6 -4 10 -10 10 -5 0
-10 -4 -10 -10z"/>
<path d="M9762 5038 c-19 -19 -14 -37 12 -44 44 -11 65 25 27 46 -24 13 -24
13 -39 -2z"/>
<path d="M5831 5024 c0 -11 3 -14 6 -6 3 7 2 16 -1 19 -3 4 -6 -2 -5 -13z"/>
<path d="M9294 5025 c-4 -9 0 -24 10 -33 15 -15 18 -15 26 -2 6 8 9 22 7 30
-3 21 -36 25 -43 5z"/>
<path d="M10214 5025 c-9 -23 3 -45 25 -45 23 0 35 28 20 46 -15 18 -38 18
-45 -1z"/>
<path d="M11105 5030 c-7 -11 12 -50 25 -50 16 0 39 31 34 45 -7 17 -50 20
-59 5z"/>
<path d="M10650 5010 c-9 -16 -8 -22 5 -26 23 -9 45 3 45 26 0 27 -36 27 -50
0z"/>
<path d="M11580 5020 c0 -5 5 -10 11 -10 5 0 7 5 4 10 -3 6 -8 10 -11 10 -2 0
-4 -4 -4 -10z"/>
<path d="M5802 4860 c0 -14 2 -19 5 -12 2 6 2 18 0 25 -3 6 -5 1 -5 -13z"/>
<path d="M6155 4820 c3 -5 10 -10 16 -10 5 0 9 5 9 10 0 6 -7 10 -16 10 -8 0
-12 -4 -9 -10z"/>
<path d="M10417 4819 c-21 -12 -22 -45 -1 -53 22 -9 34 1 34 29 0 29 -10 36
-33 24z"/>
<path d="M10856 4814 c-8 -21 1 -34 24 -34 10 0 21 4 24 9 10 16 -5 41 -24 41
-10 0 -21 -7 -24 -16z"/>
<path d="M9550 4807 c27 -15 36 -14 25 2 -3 6 -16 11 -28 11 -21 0 -21 -1 3
-13z"/>
<path d="M6300 4790 c0 -5 7 -10 16 -10 8 0 12 5 9 10 -3 6 -10 10 -16 10 -5
0 -9 -4 -9 -10z"/>
<path d="M9964 4786 c-9 -24 3 -46 26 -46 17 0 21 5 18 27 -3 31 -34 44 -44
19z"/>
<path d="M6460 4760 c-13 -8 -12 -10 3 -10 9 0 17 5 17 10 0 12 -1 12 -20 0z"/>
<path d="M5792 4710 c0 -14 2 -19 5 -12 2 6 2 18 0 25 -3 6 -5 1 -5 -13z"/>
<path d="M9365 4720 c3 -5 11 -10 16 -10 6 0 7 5 4 10 -3 6 -11 10 -16 10 -6
0 -7 -4 -4 -10z"/>
<path d="M6755 4700 c3 -5 11 -10 16 -10 6 0 7 5 4 10 -3 6 -11 10 -16 10 -6
0 -7 -4 -4 -10z"/>
<path d="M9520 4675 c7 -9 15 -13 17 -11 7 7 -7 26 -19 26 -6 0 -6 -6 2 -15z"/>
<path d="M11265 4680 c4 -6 11 -8 16 -5 14 9 11 15 -7 15 -8 0 -12 -5 -9 -10z"/>
<path d="M6920 4660 c0 -5 7 -10 16 -10 8 0 12 5 9 10 -3 6 -10 10 -16 10 -5
0 -9 -4 -9 -10z"/>
<path d="M9660 4640 c0 -5 5 -10 11 -10 5 0 7 5 4 10 -3 6 -8 10 -11 10 -2 0
-4 -4 -4 -10z"/>
<path d="M7090 4630 c0 -5 5 -10 10 -10 6 0 10 5 10 10 0 6 -4 10 -10 10 -5 0
-10 -4 -10 -10z"/>
<path d="M11140 4610 c0 -5 5 -10 10 -10 6 0 10 5 10 10 0 6 -4 10 -10 10 -5
0 -10 -4 -10 -10z"/>
<path d="M9820 4601 c0 -10 30 -24 37 -17 3 2 -5 9 -16 16 -12 6 -21 7 -21 1z"/>
<path d="M7250 4590 c0 -5 5 -10 10 -10 6 0 10 5 10 10 0 6 -4 10 -10 10 -5 0
-10 -4 -10 -10z"/>
<path d="M9950 4570 c0 -5 5 -10 11 -10 5 0 7 5 4 10 -3 6 -8 10 -11 10 -2 0
-4 -4 -4 -10z"/>
<path d="M7565 4520 c3 -5 10 -10 16 -10 5 0 9 5 9 10 0 6 -7 10 -16 10 -8 0
-12 -4 -9 -10z"/>
<path d="M10455 4510 c3 -5 11 -10 16 -10 6 0 7 5 4 10 -3 6 -11 10 -16 10 -6
0 -7 -4 -4 -10z"/>
<path d="M10858 4513 c7 -3 16 -2 19 1 4 3 -2 6 -13 5 -11 0 -14 -3 -6 -6z"/>
<path d="M10720 4500 c0 -6 7 -10 15 -10 8 0 15 2 15 4 0 2 -7 6 -15 10 -8 3
-15 1 -15 -4z"/>
<path d="M7712 4488 c5 -15 28 -23 28 -10 0 5 -7 13 -16 16 -10 4 -14 1 -12
-6z"/>
<path d="M9123 4464 c3 -4 -1 -13 -10 -22 -14 -14 -14 -17 1 -28 11 -8 13 -14
7 -19 -6 -3 -11 -10 -11 -15 0 -14 31 -41 41 -35 5 3 17 1 28 -4 10 -6 45 -13
78 -16 142 -12 178 -18 184 -27 7 -11 95 -29 254 -53 61 -9 128 -20 150 -25
62 -13 204 -31 263 -32 29 -1 55 -5 58 -10 3 -5 10 -6 15 -2 5 3 16 0 25 -6 9
-8 31 -11 59 -8 25 3 48 1 51 -4 3 -5 11 -5 19 2 9 8 17 7 27 -3 14 -14 73
-24 196 -32 34 -2 67 -7 72 -10 16 -10 119 -25 204 -31 44 -3 87 -9 97 -14 9
-6 50 -12 91 -14 40 -2 85 -9 99 -14 15 -6 30 -8 34 -4 10 10 39 8 47 -2 3 -5
71 -11 150 -12 79 -1 151 -5 161 -9 9 -4 33 -5 51 -3 19 2 32 0 30 -4 -5 -7
42 -13 91 -11 11 1 39 -5 63 -13 59 -19 111 -18 119 3 5 14 8 13 15 -6 5 -16
13 -21 24 -17 9 4 23 1 30 -5 8 -6 40 -15 71 -19 32 -5 78 -14 103 -20 25 -6
63 -12 85 -13 34 -2 42 2 53 23 12 24 12 24 8 2 -5 -28 15 -37 119 -57 98 -18
340 -90 402 -120 29 -13 59 -22 67 -19 8 3 19 -3 26 -15 6 -12 16 -21 23 -21
7 0 23 -9 37 -20 18 -13 28 -16 37 -8 10 8 13 7 13 -3 0 -8 41 -41 91 -74 81
-54 121 -91 327 -303 24 -25 57 -67 74 -93 16 -27 33 -49 37 -49 4 0 23 -28
44 -62 20 -35 48 -73 61 -85 13 -13 27 -38 30 -57 10 -53 65 -146 93 -157 30
-11 163 -12 181 0 11 7 11 9 -2 14 -8 3 -52 61 -97 129 -134 201 -266 365
-404 504 -337 338 -539 456 -960 559 -105 25 -198 49 -208 51 -12 4 -16 12
-12 25 8 23 -10 26 -23 4 -11 -21 -24 -21 -191 4 -145 21 -414 50 -661 71
-623 52 -801 76 -1670 225 -74 13 -228 40 -342 59 -215 37 -235 40 -225 30z"/>
<path d="M14744 4449 c-3 -6 0 -15 7 -20 23 -14 30 -10 19 11 -12 23 -16 24
-26 9z"/>
<path d="M5830 4410 c0 -11 4 -20 9 -20 5 0 7 9 4 20 -3 11 -7 20 -9 20 -2 0
-4 -9 -4 -20z"/>
<path d="M8055 4420 c3 -5 11 -10 16 -10 6 0 7 5 4 10 -3 6 -11 10 -16 10 -6
0 -7 -4 -4 -10z"/>
<path d="M8208 4393 c7 -3 16 -2 19 1 4 3 -2 6 -13 5 -11 0 -14 -3 -6 -6z"/>
<path d="M8378 4353 c7 -3 16 -2 19 1 4 3 -2 6 -13 5 -11 0 -14 -3 -6 -6z"/>
<path d="M9185 4210 c3 -5 8 -10 11 -10 2 0 4 5 4 10 0 6 -5 10 -11 10 -5 0
-7 -4 -4 -10z"/>
<path d="M9348 4183 c7 -3 16 -2 19 1 4 3 -2 6 -13 5 -11 0 -14 -3 -6 -6z"/>
<path d="M9510 4160 c0 -5 7 -10 16 -10 8 0 12 5 9 10 -3 6 -10 10 -16 10 -5
0 -9 -4 -9 -10z"/>
<path d="M12160 4159 c0 -5 5 -7 10 -4 6 3 10 8 10 11 0 2 -4 4 -10 4 -5 0
-10 -5 -10 -11z"/>
<path d="M5910 4145 c0 -5 5 -17 10 -25 5 -8 10 -10 10 -5 0 6 -5 17 -10 25
-5 8 -10 11 -10 5z"/>
<path d="M9688 4133 c7 -3 16 -2 19 1 4 3 -2 6 -13 5 -11 0 -14 -3 -6 -6z"/>
<path d="M2100 4120 c-74 -7 -365 -75 -385 -89 -5 -4 -44 -20 -86 -35 -87 -31
-150 -79 -180 -138 -26 -50 -34 -171 -21 -298 9 -86 12 -96 40 -121 22 -20 45
-29 91 -34 50 -6 61 -10 61 -25 0 -22 9 -24 195 -45 77 -8 160 -17 185 -21
134 -16 449 -38 780 -53 124 -6 272 -13 330 -17 243 -15 549 -20 1090 -20 474
1 580 3 603 15 15 8 27 17 27 21 0 12 77 50 102 50 14 0 27 2 30 5 3 3 -54 65
-127 138 -156 155 -201 197 -214 197 -5 0 -23 14 -41 30 -18 17 -38 30 -45 30
-7 0 -19 7 -26 17 -36 42 -179 84 -286 81 -34 0 -76 5 -92 12 -17 7 -39 9 -48
5 -10 -4 -126 -7 -258 -6 -359 3 -604 23 -810 67 -140 30 -181 46 -388 152
l-169 87 -141 1 c-78 1 -176 -2 -217 -6z"/>
<path d="M9855 4120 c3 -5 10 -10 16 -10 5 0 9 5 9 10 0 6 -7 10 -16 10 -8 0
-12 -4 -9 -10z"/>
<path d="M12247 4123 c-4 -3 -7 -11 -7 -17 0 -6 5 -5 12 2 6 6 9 14 7 17 -3 3
-9 2 -12 -2z"/>
<path d="M10028 4093 c7 -3 16 -2 19 1 4 3 -2 6 -13 5 -11 0 -14 -3 -6 -6z"/>
<path d="M10348 4043 c7 -3 16 -2 19 1 4 3 -2 6 -13 5 -11 0 -14 -3 -6 -6z"/>
<path d="M13430 4039 c0 -5 5 -7 10 -4 6 3 10 8 10 11 0 2 -4 4 -10 4 -5 0
-10 -5 -10 -11z"/>
<path d="M10510 4015 c0 -9 6 -12 15 -9 8 4 15 10 15 15 0 5 -7 9 -15 9 -8 0
-15 -7 -15 -15z"/>
<path d="M10676 4011 c-3 -5 1 -11 9 -15 8 -3 15 -1 15 4 0 13 -18 22 -24 11z"/>
<path d="M5970 4005 c0 -5 5 -17 10 -25 5 -8 10 -10 10 -5 0 6 -5 17 -10 25
-5 8 -10 11 -10 5z"/>
<path d="M10838 3983 c7 -3 16 -2 19 1 4 3 -2 6 -13 5 -11 0 -14 -3 -6 -6z"/>
<path d="M13290 3959 c0 -5 5 -7 10 -4 6 3 10 8 10 11 0 2 -4 4 -10 4 -5 0
-10 -5 -10 -11z"/>
<path d="M11186 3951 c-3 -5 1 -11 9 -15 8 -3 15 -1 15 4 0 13 -18 22 -24 11z"/>
<path d="M11330 3920 c0 -6 7 -10 15 -10 8 0 15 2 15 4 0 2 -7 6 -15 10 -8 3
-15 1 -15 -4z"/>
<path d="M11495 3910 c-3 -5 3 -10 15 -10 12 0 18 5 15 10 -3 6 -10 10 -15 10
-5 0 -12 -4 -15 -10z"/>
<path d="M11660 3890 c0 -5 9 -10 20 -10 11 0 20 5 20 10 0 6 -9 10 -20 10
-11 0 -20 -4 -20 -10z"/>
<path d="M11820 3870 c0 -5 10 -10 23 -10 18 0 19 2 7 10 -19 13 -30 13 -30 0z"/>
<path d="M13150 3864 c0 -8 5 -12 10 -9 6 4 8 11 5 16 -9 14 -15 11 -15 -7z"/>
<path d="M13345 3870 c3 -5 11 -10 16 -10 6 0 7 5 4 10 -3 6 -11 10 -16 10 -6
0 -7 -4 -4 -10z"/>
<path d="M6037 3850 c3 -11 7 -20 9 -20 2 0 4 9 4 20 0 11 -4 20 -9 20 -5 0
-7 -9 -4 -20z"/>
<path d="M12016 3825 c4 -8 10 -15 15 -15 5 0 9 7 9 15 0 8 -7 15 -15 15 -9 0
-12 -6 -9 -15z"/>
<path d="M12160 3810 c0 -5 10 -10 23 -10 18 0 19 2 7 10 -19 13 -30 13 -30 0z"/>
<path d="M13032 3798 c6 -18 28 -21 28 -4 0 9 -7 16 -16 16 -9 0 -14 -5 -12
-12z"/>
<path d="M13220 3790 c0 -5 7 -10 16 -10 8 0 12 5 9 10 -3 6 -10 10 -16 10 -5
0 -9 -4 -9 -10z"/>
<path d="M12478 3733 c7 -3 16 -2 19 1 4 3 -2 6 -13 5 -11 0 -14 -3 -6 -6z"/>
<path d="M12610 3705 c7 -9 15 -13 17 -11 7 7 -7 26 -19 26 -6 0 -6 -6 2 -15z"/>
<path d="M12755 3650 c3 -5 11 -10 16 -10 6 0 7 5 4 10 -3 6 -11 10 -16 10 -6
0 -7 -4 -4 -10z"/>
<path d="M12910 3572 c0 -12 19 -26 26 -19 2 2 -2 10 -11 17 -9 8 -15 8 -15 2z"/>
<path d="M13030 3470 c0 -5 5 -10 11 -10 5 0 7 5 4 10 -3 6 -8 10 -11 10 -2 0
-4 -4 -4 -10z"/>
<path d="M13150 3365 c7 -9 15 -13 17 -11 7 7 -7 26 -19 26 -6 0 -6 -6 2 -15z"/>
<path d="M6610 3301 c0 -5 5 -13 10 -16 6 -3 10 -2 10 4 0 5 -4 13 -10 16 -5
3 -10 2 -10 -4z"/>
<path d="M13280 3245 c7 -9 15 -13 17 -11 7 7 -7 26 -19 26 -6 0 -6 -6 2 -15z"/>
<path d="M13366 3137 c3 -10 9 -15 12 -12 3 3 0 11 -7 18 -10 9 -11 8 -5 -6z"/>
<path d="M1861 3014 c0 -11 3 -14 6 -6 3 7 2 16 -1 19 -3 4 -6 -2 -5 -13z"/>
<path d="M2041 3009 c-13 -5 -21 -12 -18 -15 3 -3 14 -1 25 5 11 6 28 8 36 5
9 -3 16 -1 16 5 0 13 -26 13 -59 0z"/>
<path d="M2265 3000 c3 -5 14 -10 23 -10 15 0 15 2 2 10 -20 13 -33 13 -25 0z"/>
<path d="M2328 3003 c6 -2 18 -2 25 0 6 3 1 5 -13 5 -14 0 -19 -2 -12 -5z"/>
<path d="M2547 2994 c-11 -11 3 -24 18 -17 8 3 15 0 15 -6 0 -6 4 -11 9 -11 5
0 7 9 4 20 -5 19 -32 27 -46 14z"/>
<path d="M2613 2993 c9 -2 23 -2 30 0 6 3 -1 5 -18 5 -16 0 -22 -2 -12 -5z"/>
<path d="M2775 2980 c3 -5 13 -10 21 -10 8 0 12 5 9 10 -3 6 -13 10 -21 10 -8
0 -12 -4 -9 -10z"/>
<path d="M3453 2975 c4 -9 7 -20 7 -24 0 -12 43 -6 80 12 l35 17 -44 -4 c-25
-3 -54 0 -64 6 -17 9 -19 8 -14 -7z"/>
<path d="M3723 2965 c10 -20 19 -25 47 -25 46 0 70 14 53 31 -10 10 -18 10
-39 0 -22 -10 -30 -9 -44 4 -24 22 -30 19 -17 -10z"/>
<path d="M3930 2976 c0 -8 -6 -17 -12 -19 -34 -14 26 -26 129 -26 78 0 122 -5
141 -15 24 -13 30 -12 51 5 23 19 23 19 2 19 -12 0 -21 6 -21 15 0 18 -21 20
-38 3 -9 -9 -12 -9 -12 0 0 17 -48 15 -66 -2 -11 -11 -19 -12 -38 -3 -13 6
-22 16 -20 22 3 6 -20 11 -56 12 -46 2 -60 -1 -60 -11z"/>
<path d="M2830 2966 c0 -9 5 -16 10 -16 6 0 10 4 10 9 0 6 -4 13 -10 16 -5 3
-10 -1 -10 -9z"/>
<path d="M2894 2968 c-5 -8 4 -10 34 -6 23 4 45 1 51 -5 8 -8 11 -8 11 0 0 23
-83 33 -96 11z"/>
<path d="M3030 2965 c-10 -13 -9 -15 8 -15 15 0 20 5 16 15 -4 8 -7 15 -9 15
-1 0 -8 -7 -15 -15z"/>
<path d="M3200 2966 c0 -7 11 -16 23 -18 30 -6 70 9 62 22 -4 6 -13 7 -24 1
-10 -6 -23 -6 -32 0 -20 12 -29 11 -29 -5z"/>
<path d="M4410 2966 c0 -8 -14 -18 -32 -21 -24 -6 -35 -3 -45 11 -7 10 -13 12
-13 6 0 -7 -7 -12 -15 -12 -8 0 -20 -10 -26 -22 -11 -20 -10 -21 3 -10 12 9
79 12 272 12 171 0 256 4 256 11 0 6 5 7 13 2 20 -12 117 -10 117 4 0 6 12 16
28 22 21 8 8 9 -63 8 -62 -1 -93 -5 -100 -15 -7 -9 -47 -15 -129 -19 -102 -5
-120 -4 -128 10 -7 13 -13 14 -32 6 -17 -8 -32 -7 -61 5 -46 19 -45 19 -45 2z"/>
<path d="M5324 2970 c-31 -13 -39 -30 -14 -30 12 0 18 5 15 10 -3 6 -2 10 4
10 5 0 13 -5 16 -11 4 -6 13 -8 20 -5 7 2 15 2 18 -1 3 -3 86 -7 184 -10 98
-3 176 -3 173 0 -4 4 -161 14 -252 17 -10 0 -18 7 -18 15 0 8 -4 15 -10 15 -5
0 -10 -4 -10 -9 0 -12 -43 -22 -50 -11 -8 14 -53 20 -76 10z"/>
<path d="M3160 2960 c0 -5 5 -10 10 -10 6 0 10 5 10 10 0 6 -4 10 -10 10 -5 0
-10 -4 -10 -10z"/>
<path d="M3420 2961 c0 -6 4 -13 10 -16 6 -3 7 1 4 9 -7 18 -14 21 -14 7z"/>
<path d="M3680 2955 c0 -8 7 -15 15 -15 8 0 15 7 15 15 0 8 -7 15 -15 15 -8 0
-15 -7 -15 -15z"/>
<path d="M4358 2963 c7 -3 16 -2 19 1 4 3 -2 6 -13 5 -11 0 -14 -3 -6 -6z"/>
<path d="M5775 2950 c-16 -18 -16 -20 -2 -20 10 0 17 7 17 15 0 17 16 20 25 5
4 -6 11 -8 16 -5 5 4 9 1 9 -4 0 -6 18 -10 43 -9 37 1 38 2 9 5 -18 3 -36 11
-39 19 -8 21 -57 17 -78 -6z"/>
<path d="M6290 2944 c0 -14 4 -23 10 -19 6 3 10 15 10 26 0 10 -4 19 -10 19
-5 0 -10 -12 -10 -26z"/>
<path d="M6325 2949 c-10 -31 0 -33 31 -5 l29 25 -27 1 c-18 0 -29 -6 -33 -21z"/>
<path d="M6795 2950 c-3 -5 -1 -10 5 -10 6 0 8 -4 5 -10 -3 -5 -2 -10 3 -10
12 0 23 26 15 34 -9 9 -21 7 -28 -4z"/>
<path d="M3870 2940 c0 -5 7 -7 15 -4 8 4 15 8 15 10 0 2 -7 4 -15 4 -8 0 -15
-4 -15 -10z"/>
<path d="M4976 2943 c5 -5 77 -6 159 -2 l150 5 -159 2 c-88 1 -156 -1 -150 -5z"/>
<path d="M6245 2941 c-6 -11 9 -23 19 -14 9 9 7 23 -3 23 -6 0 -12 -4 -16 -9z"/>
<path d="M5943 2933 c9 -2 23 -2 30 0 6 3 -1 5 -18 5 -16 0 -22 -2 -12 -5z"/>
<path d="M6023 2933 c9 -2 23 -2 30 0 6 3 -1 5 -18 5 -16 0 -22 -2 -12 -5z"/>
<path d="M6113 2933 c9 -2 25 -2 35 0 9 3 1 5 -18 5 -19 0 -27 -2 -17 -5z"/>
<path d="M6385 2930 l-30 -8 33 -1 c17 0 32 4 32 9 0 6 -1 9 -2 9 -2 -1 -16
-5 -33 -9z"/>
<path d="M6760 2930 c0 -5 5 -10 10 -10 6 0 10 5 10 10 0 6 -4 10 -10 10 -5 0
-10 -4 -10 -10z"/>
<path d="M7319 2916 c21 -23 24 -23 42 -8 29 25 23 32 -23 32 l-41 0 22 -24z"/>
<path d="M6453 2923 c9 -2 25 -2 35 0 9 3 1 5 -18 5 -19 0 -27 -2 -17 -5z"/>
<path d="M6558 2923 c23 -2 59 -2 80 0 20 2 1 4 -43 4 -44 0 -61 -2 -37 -4z"/>
<path d="M6688 2923 c7 -3 16 -2 19 1 4 3 -2 6 -13 5 -11 0 -14 -3 -6 -6z"/>
<path d="M6840 2922 c0 -4 62 -9 138 -11 75 -1 135 -1 132 2 -9 8 -270 17
-270 9z"/>
<path d="M7270 2910 c0 -5 5 -10 11 -10 5 0 7 5 4 10 -3 6 -8 10 -11 10 -2 0
-4 -4 -4 -10z"/>
<path d="M7842 2884 c-1 -14 2 -23 8 -19 6 3 10 13 10 21 0 11 6 13 21 9 15
-5 19 -4 15 4 -4 6 -17 11 -29 11 -17 0 -23 -6 -25 -26z"/>
<path d="M7398 2893 c12 -2 32 -2 45 0 12 2 2 4 -23 4 -25 0 -35 -2 -22 -4z"/>
<path d="M7573 2883 c15 -2 37 -2 50 0 12 2 0 4 -28 4 -27 0 -38 -2 -22 -4z"/>
<path d="M8305 2860 c-8 -13 -1 -24 14 -19 6 3 7 10 2 18 -6 10 -10 10 -16 1z"/>
<path d="M8343 2844 c0 -28 -2 -28 30 -11 l25 13 -28 11 c-25 9 -27 8 -27 -13z"/>
<path d="M13560 2824 c0 -8 5 -12 10 -9 6 4 8 11 5 16 -9 14 -15 11 -15 -7z"/>
<path d="M8518 2803 c7 -3 16 -2 19 1 4 3 -2 6 -13 5 -11 0 -14 -3 -6 -6z"/>
<path d="M8805 2800 c-3 -5 -1 -10 4 -10 6 0 11 5 11 10 0 6 -2 10 -4 10 -3 0
-8 -4 -11 -10z"/>
<path d="M8836 2793 c-4 -9 -3 -20 2 -25 11 -11 36 17 27 32 -9 15 -22 12 -29
-7z"/>
<path d="M13595 2780 c3 -5 11 -10 16 -10 6 0 7 5 4 10 -3 6 -11 10 -16 10 -6
0 -7 -4 -4 -10z"/>
<path d="M9286 2743 c-3 -3 6 -12 20 -19 19 -10 31 -11 46 -3 11 6 17 13 14
16 -8 8 -73 12 -80 6z"/>
<path d="M18340 2719 c0 -5 5 -7 10 -4 6 3 10 8 10 11 0 2 -4 4 -10 4 -5 0
-10 -5 -10 -11z"/>
<path d="M9408 2693 c6 -2 18 -2 25 0 6 3 1 5 -13 5 -14 0 -19 -2 -12 -5z"/>
<path d="M9820 2660 c0 -13 7 -20 20 -20 13 0 20 7 20 20 0 13 -7 20 -20 20
-13 0 -20 -7 -20 -20z"/>
<path d="M9790 2659 c0 -5 5 -7 10 -4 6 3 10 8 10 11 0 2 -4 4 -10 4 -5 0 -10
-5 -10 -11z"/>
<path d="M18025 2640 c-19 -7 -19 -8 -2 -15 19 -8 31 -2 26 13 -2 5 -13 6 -24
2z"/>
<path d="M10290 2618 c0 -9 5 -20 10 -23 13 -8 13 5 0 25 -8 13 -10 13 -10 -2z"/>
<path d="M17695 2610 c4 -12 2 -20 -5 -20 -6 0 -8 -5 -4 -11 4 -8 13 -4 25 12
24 31 24 39 -2 39 -16 0 -19 -4 -14 -20z"/>
<path d="M10344 2596 c-1 -18 2 -23 13 -19 15 6 14 34 -2 40 -5 1 -11 -8 -11
-21z"/>
<path d="M10255 2600 c-3 -5 -1 -10 4 -10 6 0 11 5 11 10 0 6 -2 10 -4 10 -3
0 -8 -4 -11 -10z"/>
<path d="M17340 2590 c0 -5 7 -10 16 -10 8 0 12 5 9 10 -3 6 -10 10 -16 10 -5
0 -9 -4 -9 -10z"/>
<path d="M10800 2554 c0 -8 5 -12 10 -9 6 3 10 10 10 16 0 5 -4 9 -10 9 -5 0
-10 -7 -10 -16z"/>
<path d="M16936 2562 c-3 -6 8 -12 24 -14 19 -3 29 -1 27 6 -5 14 -43 20 -51
8z"/>
<path d="M17317 2563 c-10 -9 -9 -23 2 -23 5 0 11 7 15 15 5 15 -5 20 -17 8z"/>
<path d="M17445 2560 c-7 -11 25 -11 70 0 27 7 25 8 -17 9 -26 0 -50 -3 -53
-9z"/>
<path d="M10837 2553 c-14 -13 -6 -33 13 -33 13 0 20 7 20 20 0 19 -20 27 -33
13z"/>
<path d="M16520 2531 c-13 -25 -13 -41 0 -41 6 0 10 7 10 16 0 9 9 18 20 21
26 7 26 23 0 23 -10 0 -24 -9 -30 -19z"/>
<path d="M17093 2540 c-101 -6 -138 -20 -52 -20 74 0 189 12 189 19 0 7 -19 7
-137 1z"/>
<path d="M16912 2528 c3 -7 13 -15 24 -17 16 -3 17 -1 5 13 -16 19 -34 21 -29
4z"/>
<path d="M16100 2520 c0 -5 7 -10 15 -10 8 0 20 -9 27 -20 7 -11 20 -20 28
-19 11 0 12 2 2 6 -7 3 -17 16 -22 29 -9 24 -50 35 -50 14z"/>
<path d="M11308 2502 c12 -11 22 -25 22 -31 0 -20 38 -12 43 9 3 11 2 21 -1
21 -4 1 -16 3 -27 4 -11 2 -29 6 -40 10 -18 6 -18 5 3 -13z"/>
<path d="M15636 2498 c-9 -12 -16 -28 -16 -35 0 -21 18 -15 25 8 5 16 13 20
31 16 26 -5 31 2 12 21 -18 18 -35 15 -52 -10z"/>
<path d="M16641 2503 c-13 -9 5 -11 83 -6 145 8 174 22 42 20 -65 -1 -115 -7
-125 -14z"/>
<path d="M16545 2500 c-3 -5 -1 -10 4 -10 6 0 11 5 11 10 0 6 -2 10 -4 10 -3
0 -8 -4 -11 -10z"/>
<path d="M11078 2493 c7 -3 16 -2 19 1 4 3 -2 6 -13 5 -11 0 -14 -3 -6 -6z"/>
<path d="M11255 2489 c-4 -6 -5 -12 -2 -15 2 -3 7 2 10 11 7 17 1 20 -8 4z"/>
<path d="M15205 2491 c-3 -5 -1 -12 5 -16 12 -7 30 2 30 16 0 12 -27 12 -35 0z"/>
<path d="M16328 2490 c-53 -3 -100 -9 -104 -13 -7 -7 206 1 214 8 10 8 -23 10
-110 5z"/>
<path d="M14760 2480 c-8 -5 -11 -12 -8 -16 10 -9 38 3 38 16 0 12 -10 13 -30
0z"/>
<path d="M16080 2480 c0 -5 5 -10 10 -10 6 0 10 5 10 10 0 6 -4 10 -10 10 -5
0 -10 -4 -10 -10z"/>
<path d="M16110 2480 c0 -5 5 -10 10 -10 6 0 10 5 10 10 0 6 -4 10 -10 10 -5
0 -10 -4 -10 -10z"/>
<path d="M15773 2473 c-7 -3 -13 -9 -13 -14 0 -6 20 -8 48 -5 26 2 83 5 126 5
44 1 76 4 72 8 -8 8 -213 13 -233 6z"/>
<path d="M4792 2450 c0 -14 2 -19 5 -12 2 6 2 18 0 25 -3 6 -5 1 -5 -13z"/>
<path d="M11820 2449 c0 -20 6 -24 35 -26 39 -3 47 15 18 38 -13 11 -17 11
-21 1 -3 -10 -7 -10 -18 -1 -11 9 -14 7 -14 -12z"/>
<path d="M15172 2458 c5 -15 28 -23 28 -10 0 5 -7 13 -16 16 -10 4 -14 1 -12
-6z"/>
<path d="M15660 2460 c0 -5 5 -10 11 -10 5 0 7 5 4 10 -3 6 -8 10 -11 10 -2 0
-4 -4 -4 -10z"/>
<path d="M15700 2460 c0 -5 7 -10 16 -10 8 0 12 5 9 10 -3 6 -10 10 -16 10 -5
0 -9 -4 -9 -10z"/>
<path d="M14277 2445 c-4 -8 -3 -16 1 -19 12 -7 53 14 47 24 -9 15 -42 12 -48
-5z"/>
<path d="M15225 2450 c-3 -5 -1 -10 4 -10 6 0 11 5 11 10 0 6 -2 10 -4 10 -3
0 -8 -4 -11 -10z"/>
<path d="M15310 2449 c-14 -4 37 -6 114 -4 76 2 141 7 144 10 9 9 -229 3 -258
-6z"/>
<path d="M11593 2443 c9 -2 23 -2 30 0 6 3 -1 5 -18 5 -16 0 -22 -2 -12 -5z"/>
<path d="M11775 2441 c-3 -5 -1 -12 5 -16 5 -3 10 1 10 9 0 18 -6 21 -15 7z"/>
<path d="M14731 2434 c0 -11 3 -14 6 -6 3 7 2 16 -1 19 -3 4 -6 -2 -5 -13z"/>
<path d="M15005 2439 c-69 -5 -68 -6 29 -7 55 -1 96 1 92 6 -9 9 -29 9 -121 1z"/>
<path d="M5810 2429 c0 -5 5 -7 10 -4 6 3 10 8 10 11 0 2 -4 4 -10 4 -5 0 -10
-5 -10 -11z"/>
<path d="M12332 2419 c15 -23 72 -37 65 -16 -2 7 -16 13 -30 15 -15 2 -27 8
-27 13 0 5 -5 9 -11 9 -8 0 -7 -7 3 -21z"/>
<path d="M14440 2424 c0 -8 5 -12 10 -9 6 4 8 11 5 16 -9 14 -15 11 -15 -7z"/>
<path d="M14800 2430 c0 -5 7 -10 16 -10 8 0 12 5 9 10 -3 6 -10 10 -16 10 -5
0 -9 -4 -9 -10z"/>
<path d="M13743 2411 c-23 -19 -33 -48 -12 -35 6 3 15 0 20 -7 7 -11 9 -10 9
3 0 10 9 22 20 28 11 6 20 15 20 20 0 16 -33 11 -57 -9z"/>
<path d="M14560 2420 l-85 -6 87 -2 c49 -1 89 2 93 8 3 6 3 9 -2 8 -4 -1 -46
-5 -93 -8z"/>
<path d="M11998 2413 c7 -3 16 -2 19 1 4 3 -2 6 -13 5 -11 0 -14 -3 -6 -6z"/>
<path d="M12060 2410 c-9 -6 -10 -10 -3 -10 6 0 15 5 18 10 8 12 4 12 -15 0z"/>
<path d="M12128 2403 c12 -2 30 -2 40 0 9 3 -1 5 -23 4 -22 0 -30 -2 -17 -4z"/>
<path d="M12802 2390 c6 -28 88 -19 88 10 0 4 -20 7 -45 6 -34 -1 -45 -5 -43
-16z"/>
<path d="M13254 2395 c2 -7 -1 -18 -7 -25 -10 -10 -6 -11 16 -8 15 3 27 1 27
-3 0 -15 19 -10 35 9 22 25 15 34 -33 37 -32 2 -42 -1 -38 -10z"/>
<path d="M14250 2400 c0 -5 5 -10 10 -10 6 0 10 5 10 10 0 6 -4 10 -10 10 -5
0 -10 -4 -10 -10z"/>
<path d="M14290 2399 c0 -5 5 -7 10 -4 6 3 10 8 10 11 0 2 -4 4 -10 4 -5 0
-10 -5 -10 -11z"/>
<path d="M14338 2403 c7 -3 16 -2 19 1 4 3 -2 6 -13 5 -11 0 -14 -3 -6 -6z"/>
<path d="M5805 2389 c-10 -15 1 -23 20 -15 9 3 13 10 10 16 -8 13 -22 13 -30
-1z"/>
<path d="M13817 2393 c-4 -3 -7 -11 -7 -17 0 -6 5 -5 12 2 6 6 9 14 7 17 -3 3
-9 2 -12 -2z"/>
<path d="M4780 2380 c0 -5 7 -10 15 -10 8 0 15 5 15 10 0 6 -7 10 -15 10 -8 0
-15 -4 -15 -10z"/>
<path d="M12513 2383 c9 -2 25 -2 35 0 9 3 1 5 -18 5 -19 0 -27 -2 -17 -5z"/>
<path d="M12598 2383 c7 -3 16 -2 19 1 4 3 -2 6 -13 5 -11 0 -14 -3 -6 -6z"/>
<path d="M12678 2383 c6 -2 18 -2 25 0 6 3 1 5 -13 5 -14 0 -19 -2 -12 -5z"/>
<path d="M12758 2383 c7 -3 16 -2 19 1 4 3 -2 6 -13 5 -11 0 -14 -3 -6 -6z"/>
<path d="M13215 2380 c-3 -5 -1 -10 4 -10 6 0 11 5 11 10 0 6 -2 10 -4 10 -3
0 -8 -4 -11 -10z"/>
<path d="M13690 2370 c0 -5 5 -10 11 -10 5 0 7 5 4 10 -3 6 -8 10 -11 10 -2 0
-4 -4 -4 -10z"/>
<path d="M12938 2363 c7 -3 16 -2 19 1 4 3 -2 6 -13 5 -11 0 -14 -3 -6 -6z"/>
<path d="M13047 2363 c18 -2 50 -2 70 0 21 2 7 4 -32 4 -38 0 -55 -2 -38 -4z"/>
<path d="M13400 2360 c-10 -7 1 -8 35 -4 28 4 52 8 54 10 10 9 -75 3 -89 -6z"/>
<path d="M5505 2341 c-3 -5 -1 -12 5 -16 5 -3 10 1 10 9 0 18 -6 21 -15 7z"/>
<path d="M13110 2190 c0 -5 5 -10 10 -10 6 0 10 5 10 10 0 6 -4 10 -10 10 -5
0 -10 -4 -10 -10z"/>
<path d="M18635 2135 c-16 -7 -56 -16 -88 -19 -33 -4 -69 -11 -82 -16 -19 -7
-26 -4 -39 13 -12 17 -15 19 -15 6 -1 -9 -8 -20 -17 -23 -12 -4 -15 -2 -10 9
7 19 9 19 -109 -9 -540 -129 -1318 -224 -2380 -291 -137 -9 -333 -23 -435 -32
-122 -11 -302 -18 -530 -19 -376 -2 -1001 -34 -1160 -59 -165 -27 -405 -107
-750 -250 -355 -148 -413 -160 -710 -150 -124 4 -236 8 -249 8 -22 2 -25 -4
-37 -58 -8 -33 -19 -69 -25 -80 -17 -28 -24 -147 -11 -184 12 -35 12 -35 -83
-32 -54 2 -269 29 -296 37 -18 5 -34 38 -45 94 -3 19 -12 38 -18 42 -18 13
-134 9 -142 -4 -4 -6 -6 -35 -5 -63 4 -79 3 -79 -220 -71 -105 4 -202 12 -215
18 -22 10 -34 34 -49 103 -4 16 -12 33 -18 37 -15 9 -103 10 -136 1 -23 -6
-23 -9 -18 -69 7 -73 -5 -90 -53 -80 -17 3 -128 8 -248 11 -426 12 -874 36
-906 49 -41 17 -56 36 -70 93 l-12 48 -70 0 -69 0 0 -70 0 -70 -180 2 c-276 2
-292 8 -315 104 -7 27 -18 52 -25 57 -7 4 -41 5 -75 4 l-62 -4 4 -71 3 -72
-148 -3 c-224 -4 -236 7 -256 218 -21 230 -21 239 -1 250 15 8 17 16 9 47 -5
21 -9 55 -9 76 0 21 -7 51 -15 67 -25 48 -60 60 -202 65 -70 3 -150 7 -178 10
-27 2 -216 7 -420 10 -203 3 -484 8 -622 10 -197 4 -253 2 -253 -8 0 -9 -2 -9
-8 0 -6 9 -50 11 -177 8 -94 -2 -172 -4 -175 -5 -19 -3 -2245 0 -2445 4 -137
2 -235 2 -217 0 35 -6 45 -24 12 -24 -28 0 -26 -30 3 -31 12 -1 28 -1 35 0 6
1 12 -3 12 -9 0 -5 12 -10 27 -10 14 0 35 -8 46 -18 11 -9 17 -11 13 -4 -4 7
-1 12 9 12 12 0 15 -6 10 -20 -4 -11 -2 -20 4 -20 6 0 11 7 11 17 0 9 3 14 6
11 3 -3 2 -23 -2 -43 -5 -29 -9 -34 -16 -22 -5 9 -15 14 -24 10 -11 -4 -12 -9
-3 -19 12 -14 -2 -20 -15 -7 -13 14 -105 10 -111 -5 -3 -7 -9 -11 -14 -8 -12
8 -41 -3 -41 -15 0 -4 24 -8 53 -8 28 0 77 -2 107 -4 30 -3 91 -8 135 -12 44
-3 89 -7 100 -10 21 -4 576 -19 683 -19 51 0 62 -2 62 -16 0 -9 -4 -20 -9 -26
-5 -5 -19 -45 -31 -89 -27 -95 -29 -255 -6 -385 11 -62 4 -65 -164 -64 -172 1
-179 4 -210 86 l-15 43 -69 3 c-38 2 -73 -1 -77 -5 -5 -5 -3 -32 5 -61 18 -72
13 -74 -133 -70 -110 3 -121 5 -145 27 -14 13 -33 43 -42 66 l-16 42 -65 6
c-36 4 -69 4 -73 2 -4 -3 -4 -22 2 -42 23 -90 24 -89 -19 -96 -21 -4 -72 -7
-113 -7 -82 0 -125 18 -154 63 -25 37 -39 177 -34 331 5 158 16 195 67 216 53
22 64 44 76 149 l11 98 -105 7 c-119 7 -212 7 -193 -1 6 -2 12 -13 12 -23 0
-27 -37 -169 -48 -183 -5 -7 -12 -25 -16 -42 -4 -16 -14 -37 -22 -47 -38 -41
-58 -254 -35 -361 5 -23 12 -72 16 -108 7 -63 6 -66 -16 -72 -13 -3 -68 -2
-123 3 -117 11 -138 23 -178 95 -28 51 -44 63 -90 64 -39 1 -43 -15 -18 -70
13 -27 20 -52 17 -55 -9 -9 -205 15 -293 36 -93 22 -113 36 -155 107 -23 38
-42 59 -57 61 -40 6 -24 -25 43 -84 41 -36 64 -63 60 -72 -3 -10 0 -12 10 -8
8 3 15 1 15 -5 0 -17 25 -37 54 -45 14 -3 29 -10 32 -16 3 -5 14 -6 25 -3 10
4 19 2 19 -3 0 -6 24 -13 53 -17 28 -4 68 -10 87 -15 80 -20 265 -33 595 -41
193 -5 391 -13 440 -19 196 -24 2564 -33 2740 -11 77 10 170 10 410 2 228 -8
441 -7 810 2 275 6 815 11 1200 9 632 -2 1200 -7 3800 -28 768 -7 1477 4 1900
27 94 5 269 13 390 19 540 23 1341 84 1445 110 19 4 76 11 125 15 50 3 124 10
165 15 41 5 107 12 145 15 200 17 955 103 1008 114 23 5 78 14 122 20 110 15
256 51 249 62 -3 5 2 16 11 25 22 23 14 37 -26 47 -19 4 -39 15 -46 24 -7 8
-17 12 -24 7 -8 -5 -10 -3 -4 5 5 9 -2 11 -28 7 -20 -3 -39 -1 -42 4 -7 11 11
33 35 43 16 7 -42 -1 -74 -10 -16 -4 -15 0 8 39 33 57 33 68 -1 68 -54 0 -73
-12 -100 -61 -28 -52 -59 -78 -107 -89 -137 -33 -260 -60 -263 -57 -2 2 4 20
12 40 21 52 19 57 -22 57 -65 0 -83 -10 -107 -59 -34 -66 -52 -78 -126 -84
-56 -4 -132 -16 -205 -31 -11 -2 -28 -8 -39 -12 -17 -7 -18 -4 -12 39 l7 47
-33 0 c-18 0 -50 -3 -70 -6 -33 -6 -39 -12 -54 -50 -9 -24 -26 -51 -37 -61
-11 -10 -17 -12 -13 -5 9 15 -24 16 -74 2 -19 -5 -62 -12 -95 -14 -33 -3 -86
-12 -117 -19 -32 -8 -59 -12 -62 -10 -2 3 -2 20 1 39 7 43 -8 49 -84 38 -58
-9 -62 -13 -88 -77 -9 -25 -19 -36 -26 -31 -17 10 -146 5 -178 -7 -14 -6 -51
-13 -81 -15 -113 -10 -104 -12 -110 26 l-5 35 -64 3 c-75 4 -95 -10 -105 -67
-5 -36 -36 -80 -36 -52 0 9 -19 11 -67 6 -150 -13 -304 -24 -418 -31 -66 -3
-124 -10 -130 -14 -18 -14 -134 -20 -141 -8 -8 13 -6 498 2 546 4 18 14 36 23
41 9 4 129 11 266 14 138 4 324 11 415 17 91 5 239 14 330 20 399 24 517 32
700 51 107 11 251 24 319 29 68 6 169 17 225 25 55 8 171 24 257 35 253 31
632 98 804 142 147 37 343 101 398 129 100 52 148 102 62 64z m-15008 -336
c-14 -8 -22 -8 -30 0 -8 8 -3 11 19 11 25 -1 27 -2 11 -11z m1455 -9 c31 0 31
0 12 -21 -12 -14 -17 -32 -15 -55 3 -43 -27 -114 -40 -93 -10 17 -12 150 -2
175 4 11 8 13 11 6 2 -7 17 -12 34 -12z m-397 -2 c7 -6 -7 -118 -15 -118 -7 0
-21 26 -40 77 -8 21 -17 30 -26 26 -8 -3 -14 0 -14 6 0 6 -8 8 -17 5 -14 -5
-15 -4 -4 4 12 9 107 9 116 0z m1582 -4 c-3 -3 -12 -4 -19 -1 -8 3 -5 6 6 6
11 1 17 -2 13 -5z m99 -9 c3 -8 1 -22 -4 -31 -9 -16 -11 -15 -28 4 -10 12 -24
22 -31 22 -6 0 -14 4 -17 9 -3 5 12 9 35 9 25 1 42 -4 45 -13z m414 -4 c-1 -3
-7 -17 -14 -30 -8 -14 -12 -31 -9 -38 3 -7 0 -13 -6 -13 -11 0 -16 82 -5 93 7
7 34 -2 34 -12z m1250 -15 c0 -11 -19 -15 -25 -6 -3 5 1 10 9 10 9 0 16 -2 16
-4z m-2268 -209 c313 -1 568 -5 568 -9 0 -4 -7 -27 -14 -50 -35 -103 -43 -204
-26 -321 7 -45 14 -94 15 -109 l3 -28 -116 -1 c-65 -1 -141 -2 -170 -2 -63 0
-80 13 -103 81 l-16 47 -79 -3 c-43 -2 -82 -7 -86 -10 -4 -4 2 -32 12 -62 12
-35 15 -57 8 -61 -5 -4 -76 -7 -157 -8 -166 -2 -167 -2 -196 79 -9 24 -21 47
-27 51 -10 6 -119 2 -145 -6 -8 -3 -6 -21 8 -66 11 -34 18 -63 16 -65 -2 -2
-72 -5 -156 -6 -149 -2 -154 -2 -172 21 -35 43 -44 99 -43 266 1 256 19 280
204 270 58 -4 360 -7 672 -8z m1283 -12 c635 -15 945 -17 945 -6 0 6 5 11 11
11 6 0 9 -6 6 -14 -3 -7 -1 -18 4 -23 6 -6 3 -24 -7 -48 -34 -82 -36 -301 -4
-340 8 -10 8 -19 0 -34 -10 -20 -19 -21 -164 -21 -178 0 -198 8 -217 86 -6 24
-16 47 -21 50 -5 3 -43 2 -84 -1 l-76 -8 6 -31 c3 -17 9 -48 12 -68 l7 -38
-136 0 c-75 0 -147 4 -161 9 -23 9 -32 25 -64 104 -11 26 -14 27 -87 27 -89 0
-95 -6 -70 -80 9 -28 15 -54 12 -56 -3 -3 -71 -6 -152 -7 -142 -2 -147 -1
-165 21 -28 34 -44 124 -44 252 1 203 24 234 164 225 41 -2 170 -7 285 -10z"/>
<path d="M18263 1668 c-24 -6 -38 -19 -53 -49 -12 -22 -30 -49 -40 -59 -20
-20 -20 -20 10 -20 33 0 64 27 101 87 26 42 22 52 -18 41z"/>
<path d="M4580 1440 c0 -5 5 -10 10 -10 6 0 10 5 10 10 0 6 -4 10 -10 10 -5 0
-10 -4 -10 -10z"/>
</g>
</svg>
