<?xml version="1.0" standalone="no"?>
<!DOCTYPE svg PUBLIC "-//W3C//DTD SVG 20010904//EN"
 "http://www.w3.org/TR/2001/REC-SVG-20010904/DTD/svg10.dtd">
<svg version="1.0" xmlns="http://www.w3.org/2000/svg"
 width="2000.000000pt" height="1000.000000pt" viewBox="0 0 2000.000000 1000.000000"
 preserveAspectRatio="xMidYMid meet">

<g transform="translate(0.000000,1000.000000) scale(0.100000,-0.100000)"
fill="#000000" stroke="none">
<path d="M7627 9118 c-7 -4 4 -8 25 -8 125 0 308 -87 556 -263 64 -46 135 -97
158 -113 81 -57 240 -179 323 -246 46 -37 88 -65 94 -61 5 3 7 1 4 -4 -4 -6
34 -45 83 -88 50 -42 96 -82 102 -88 7 -7 52 -44 99 -84 47 -39 100 -86 118
-103 26 -26 34 -30 46 -20 21 17 19 25 -10 40 -14 7 -25 18 -25 24 0 14 -47
54 -167 139 -55 39 -99 74 -97 76 5 6 -37 51 -47 51 -12 0 -79 69 -79 80 0 6
-6 10 -13 10 -11 0 -35 18 -103 81 -12 10 -24 19 -27 19 -3 0 -18 11 -33 25
-15 14 -33 25 -40 25 -8 0 -14 4 -14 9 0 9 -116 93 -126 91 -4 -1 -11 5 -16
14 -5 9 -16 16 -23 16 -8 0 -15 7 -15 15 0 8 -7 15 -15 15 -8 0 -15 5 -15 10
0 6 -7 10 -15 10 -8 0 -28 12 -44 28 -46 42 -59 52 -70 52 -5 0 -11 7 -15 15
-3 8 -12 15 -21 15 -8 0 -15 5 -15 10 0 6 -9 10 -20 10 -11 0 -20 5 -20 10 0
6 -5 10 -11 10 -6 0 -25 10 -42 23 -18 12 -50 31 -72 43 -22 11 -49 25 -60 31
-40 22 -140 68 -150 69 -5 0 -32 4 -60 8 -69 12 -113 13 -128 4z"/>
<path d="M7575 9100 c-3 -5 1 -10 9 -10 8 0 18 5 21 10 3 6 -1 10 -9 10 -8 0
-18 -4 -21 -10z"/>
<path d="M8434 8923 c10 -10 46 -11 40 -1 -3 4 -15 8 -26 8 -12 0 -18 -3 -14
-7z"/>
<path d="M8619 8809 c21 -17 22 -22 10 -29 -12 -8 -10 -13 8 -30 13 -11 18
-15 13 -8 -26 32 0 38 31 7 11 -11 22 -19 24 -17 6 6 -73 85 -92 92 -13 4 -11
1 6 -15z"/>
<path d="M8570 8805 c0 -2 10 -10 23 -16 20 -11 21 -11 8 4 -13 16 -31 23 -31
12z"/>
<path d="M8679 8696 c31 -43 25 -55 -10 -18 -33 36 -63 45 -33 10 29 -34 58
-57 71 -58 25 0 21 19 -13 56 -20 22 -27 27 -15 10z"/>
<path d="M8930 8402 c0 -4 9 -13 20 -20 23 -14 26 -7 6 14 -16 15 -26 18 -26
6z"/>
<path d="M9195 8200 c-3 -5 -1 -10 4 -10 6 0 11 5 11 10 0 6 -2 10 -4 10 -3 0
-8 -4 -11 -10z"/>
<path d="M7985 8163 c-155 -18 -371 -98 -521 -193 -35 -22 -68 -40 -74 -40 -9
0 -203 -128 -260 -172 -52 -40 -298 -212 -516 -361 -71 -49 -160 -110 -199
-138 -38 -27 -106 -74 -150 -103 -44 -30 -96 -65 -115 -79 -19 -13 -96 -64
-170 -112 -74 -48 -178 -116 -230 -150 -52 -34 -156 -101 -230 -147 -133 -84
-252 -163 -339 -226 -24 -18 -48 -32 -53 -32 -5 0 -16 -7 -24 -15 -9 -8 -24
-15 -34 -15 -10 0 -21 -8 -24 -18 -7 -19 -64 -67 -72 -59 -3 2 -18 -8 -35 -23
-16 -16 -51 -42 -77 -59 -26 -16 -60 -41 -77 -55 -40 -33 -90 -69 -145 -102
-25 -15 -52 -35 -60 -45 -17 -19 -176 -139 -184 -139 -3 0 -14 -6 -23 -14 -41
-33 -110 -83 -143 -102 -90 -54 -206 -111 -217 -107 -7 3 -13 -1 -13 -7 0 -7
-7 -10 -16 -6 -12 4 -15 2 -10 -9 3 -8 1 -15 -5 -15 -5 0 -19 -9 -31 -20 -12
-11 -27 -20 -34 -20 -27 0 -158 31 -188 44 -30 14 -147 49 -196 59 -14 3 -50
14 -80 26 -30 12 -63 21 -72 21 -24 0 -189 48 -202 59 -6 5 -15 10 -21 11 -19
4 -40 12 -74 27 -19 9 -54 15 -78 15 -45 -1 -78 11 -99 38 -7 8 -25 15 -41 16
-47 3 -108 23 -129 42 -12 12 -32 18 -52 17 -22 -1 -38 5 -54 22 -13 14 -28
21 -39 18 -12 -4 -22 1 -29 15 -24 45 -33 20 -45 -125 -3 -33 -9 -73 -15 -90
-20 -62 -51 -232 -65 -364 -14 -124 -72 -389 -96 -432 -5 -10 -19 -25 -31 -33
-16 -12 -22 -27 -24 -68 -4 -65 -7 -83 -34 -233 -22 -122 -30 -321 -14 -347 5
-7 9 -26 10 -43 0 -16 7 -69 13 -117 13 -87 13 -88 40 -83 l26 5 -25 -11 c-14
-6 -45 -20 -70 -32 -25 -11 -47 -21 -50 -22 -21 -7 -48 -22 -64 -37 -11 -10
-23 -18 -28 -18 -4 0 -8 -5 -8 -12 0 -7 -15 -27 -32 -46 -33 -33 -33 -33 -35
-145 -4 -195 27 -268 120 -283 21 -4 37 -12 37 -20 0 -19 18 -22 245 -39 110
-8 227 -17 260 -20 64 -5 299 -21 455 -30 52 -3 147 -8 210 -10 144 -5 311
-15 370 -21 25 -2 128 -9 230 -14 317 -17 361 -20 500 -30 656 -49 892 -59
961 -40 19 6 46 21 59 35 13 14 29 25 36 25 6 0 16 6 22 13 14 17 195 20 347
7 192 -18 530 -30 960 -35 1353 -17 1632 -24 1915 -50 25 -2 79 -7 120 -10
126 -10 427 -45 570 -65 74 -11 221 -31 325 -45 105 -13 210 -27 234 -31 24
-3 64 -7 90 -9 58 -4 390 -40 561 -60 69 -8 175 -19 235 -25 61 -6 171 -17
245 -25 74 -8 158 -17 185 -19 28 -3 210 -23 405 -46 195 -22 429 -47 520 -55
399 -35 1239 -60 1460 -44 204 15 240 20 240 30 0 5 -7 9 -15 9 -9 0 -15 9
-15 24 0 14 -4 27 -9 31 -6 3 -29 40 -52 83 -24 42 -55 95 -71 116 -15 21 -28
44 -28 50 0 13 -76 124 -103 151 -11 10 -29 35 -42 56 -13 20 -39 47 -57 60
-18 12 -64 55 -103 93 -38 39 -87 80 -109 91 -21 11 -41 25 -43 32 -3 7 -13
13 -22 13 -9 0 -32 13 -52 29 -19 16 -55 39 -80 51 -24 12 -52 26 -61 31 -10
5 -27 9 -38 9 -11 0 -28 4 -38 9 -9 5 -38 15 -64 23 -27 7 -48 16 -48 20 0 4
-17 8 -39 8 -22 0 -44 6 -51 15 -8 9 -23 13 -41 10 -15 -3 -31 -1 -34 5 -3 5
-19 10 -35 10 -16 0 -47 7 -68 15 -22 9 -43 15 -48 14 -17 -5 -119 13 -131 23
-7 5 -17 7 -23 3 -6 -4 -27 3 -47 15 -21 13 -45 19 -57 16 -18 -5 -154 16
-281 44 -22 5 -65 12 -95 15 -87 10 -304 55 -314 65 -5 5 -16 5 -25 1 -15 -8
-60 -3 -166 18 -48 10 -87 14 -245 26 -41 3 -91 7 -110 10 -19 3 -64 7 -100
10 -107 6 -245 26 -248 34 -1 5 -29 6 -61 4 -44 -3 -62 0 -74 11 -10 11 -18
13 -22 5 -5 -6 -12 -4 -22 8 -8 10 -12 12 -8 5 6 -12 -69 -11 -200 3 -22 3
-76 7 -120 10 -44 3 -132 12 -195 20 -63 7 -149 16 -190 20 -110 9 -200 26
-200 37 0 6 -6 8 -14 5 -7 -3 -19 0 -25 6 -8 8 -11 7 -11 -6 0 -21 11 -22
-204 8 -99 13 -182 22 -185 20 -2 -3 -9 -1 -15 4 -7 6 -41 12 -76 16 -36 3
-92 13 -125 22 -33 8 -78 17 -100 19 -22 2 -65 8 -95 13 -30 5 -90 14 -133 20
-42 7 -88 16 -100 20 -13 5 -50 12 -83 16 -32 4 -82 18 -110 31 -60 28 -65 29
-58 9 8 -19 -27 -20 -89 -1 -26 8 -55 12 -65 10 -9 -3 -48 2 -86 10 -38 8 -75
12 -82 9 -7 -2 -18 -19 -24 -36 -6 -18 -26 -57 -44 -87 -33 -53 -49 -106 -133
-444 -13 -54 -44 -213 -67 -353 -34 -205 -46 -257 -60 -265 -31 -17 -152 -5
-183 18 -40 30 -49 91 -23 169 11 33 44 191 74 350 93 491 87 428 55 517 -16
42 -33 107 -40 145 -15 87 -28 103 -90 103 -26 0 -51 5 -54 10 -4 6 -15 8 -25
5 -11 -3 -48 1 -82 9 -35 8 -88 17 -118 21 -30 3 -59 10 -65 15 -15 12 -284
80 -319 80 -9 0 -28 11 -42 25 -29 29 -34 30 -34 11 0 -11 -9 -12 -47 -4 -27
6 -52 14 -58 18 -5 4 -32 11 -60 15 -73 10 -172 45 -191 66 -16 18 -16 21 2
60 l18 42 66 -6 c36 -4 76 -9 90 -12 14 -3 -1 5 -33 19 -85 36 -91 46 -61 87
13 18 24 37 24 42 0 5 11 20 25 33 14 13 25 32 25 43 0 19 84 140 119 171 9 8
34 36 55 63 20 26 43 47 51 47 7 0 16 11 19 24 3 13 15 26 26 29 11 3 23 13
27 23 3 9 28 40 55 68 26 28 48 54 48 58 0 4 6 8 13 8 7 0 26 14 42 30 16 17
32 30 37 30 4 0 56 48 115 108 132 131 194 181 227 184 14 1 30 12 37 24 7 14
17 20 26 17 12 -5 14 -1 8 18 -5 19 -4 21 4 9 10 -13 14 -11 31 10 11 14 20
28 20 33 0 4 7 7 16 7 8 0 13 4 9 9 -3 5 4 12 15 16 11 3 20 10 20 14 0 4 16
13 35 21 37 14 44 25 23 33 -7 3 -3 6 9 6 12 1 27 10 33 21 6 11 15 18 21 15
5 -4 9 -1 9 5 0 6 7 13 15 16 8 3 35 26 62 50 26 24 50 44 53 44 13 0 47 36
62 65 29 57 65 345 103 828 24 295 55 370 182 433 77 37 186 40 248 6 51 -28
89 -61 106 -92 19 -35 14 -276 -11 -543 -11 -114 -20 -225 -20 -247 0 -38 1
-39 38 -45 20 -3 55 -10 77 -16 22 -6 52 -11 67 -12 15 0 26 -5 25 -10 -1 -6
18 -14 43 -19 25 -4 50 -13 55 -20 6 -7 59 -38 118 -68 112 -56 133 -75 123
-115 -6 -25 -82 -105 -100 -105 -6 0 -22 -10 -36 -23 -14 -12 -60 -49 -102
-81 -48 -36 -78 -66 -78 -77 0 -12 -7 -19 -18 -19 -21 0 -64 -29 -58 -39 3 -4
-13 -23 -35 -42 -69 -59 -133 -124 -134 -134 0 -5 -10 -14 -22 -20 -12 -6 -40
-30 -62 -53 -41 -42 -56 -89 -67 -212 -6 -68 -123 -633 -149 -725 -13 -44 -35
-126 -49 -183 -15 -56 -37 -131 -50 -167 -13 -36 -21 -67 -17 -69 7 -4 18 -6
381 -76 146 -28 308 -59 360 -70 282 -57 657 -111 965 -140 328 -31 421 -40
520 -50 50 -6 194 -19 320 -30 127 -11 338 -34 470 -51 815 -103 920 -118
1075 -149 215 -43 282 -51 298 -38 9 7 57 54 107 103 50 50 111 109 135 131
25 23 54 52 66 65 27 31 187 169 242 208 23 17 54 44 69 60 41 41 65 51 119
47 62 -5 132 -29 212 -72 34 -19 70 -34 78 -34 9 0 44 -13 77 -29 34 -15 73
-32 86 -36 13 -4 47 -21 75 -38 44 -25 130 -73 201 -111 11 -6 44 -35 73 -65
37 -38 50 -57 42 -65 -5 -5 -10 -19 -10 -29 0 -10 -9 -21 -20 -24 -11 -3 -20
-9 -20 -14 0 -4 -17 -11 -37 -15 -21 -4 -42 -10 -48 -14 -5 -4 -27 -10 -47
-14 -21 -4 -79 -23 -130 -42 -51 -20 -107 -41 -123 -47 -17 -7 -43 -22 -58
-34 -16 -12 -45 -27 -65 -34 -87 -29 -226 -124 -197 -135 6 -2 50 -28 98 -57
308 -184 463 -370 642 -767 l60 -133 175 7 c187 7 507 29 655 46 153 17 471
41 680 50 298 14 547 28 870 50 160 11 432 29 605 40 173 11 371 27 440 35 69
8 195 22 280 30 85 9 200 23 255 31 55 8 141 19 190 24 50 6 110 13 135 16
134 17 286 62 314 93 14 16 14 29 0 132 -57 421 -256 661 -743 900 -118 58
-188 99 -241 143 l-74 61 -91 -1 c-49 -1 -115 -2 -145 -3 -85 -3 -184 18 -258
53 -37 18 -83 38 -102 44 -44 15 -320 72 -340 71 -8 0 41 -20 110 -43 172 -59
249 -95 230 -106 -25 -13 -208 -27 -315 -23 -55 2 -152 10 -215 18 -181 22
-494 65 -510 70 -8 3 -49 9 -90 15 -41 7 -102 16 -135 21 -126 19 -307 38
-495 50 l-195 13 -60 51 c-66 57 -401 285 -419 285 -6 0 -20 -21 -30 -48 -39
-93 -55 -110 -163 -164 -131 -65 -182 -72 -250 -33 -84 49 -193 176 -193 225
0 5 15 27 34 47 65 73 74 121 29 150 -16 10 -30 20 -33 23 -3 3 -16 11 -29 18
-63 36 -91 53 -156 95 -38 25 -99 68 -135 95 -67 51 -121 82 -140 82 -7 0 -60
-45 -118 -101 -59 -55 -124 -109 -144 -120 -80 -41 -223 -63 -266 -40 -9 5
-24 12 -33 14 -23 7 -63 122 -63 182 0 41 8 63 44 125 24 41 49 82 57 91 19
23 16 39 -7 39 -11 0 -23 6 -26 14 -3 8 -36 29 -72 47 -37 18 -74 36 -82 41
-8 4 -22 11 -30 14 -17 6 -18 7 -91 55 -30 19 -69 41 -87 48 -32 13 -33 13
-90 -40 -71 -68 -141 -118 -211 -154 -52 -26 -84 -30 -193 -26 -33 1 -76 36
-124 102 -35 49 -36 51 -25 96 18 70 44 114 122 204 l72 83 -34 29 c-19 15
-63 42 -99 59 -35 17 -71 39 -80 49 -8 10 -46 34 -84 55 l-68 37 -102 -52
c-61 -31 -128 -75 -169 -111 -87 -76 -133 -91 -250 -81 -109 10 -156 39 -201
126 -28 53 -31 69 -31 145 0 83 1 87 44 155 23 39 55 83 70 98 l26 29 -27 22
c-16 12 -28 31 -29 41 0 11 -3 14 -6 8 -6 -15 -33 -17 -33 -3 0 6 -5 10 -12
10 -6 0 -19 6 -27 14 -9 7 -41 17 -71 20 -51 6 -59 4 -115 -30 -183 -113 -229
-139 -324 -185 -123 -59 -236 -99 -283 -99 -27 0 -42 10 -84 54 -84 90 -99
188 -44 303 17 38 40 77 51 89 17 18 49 114 49 149 0 7 -15 18 -32 25 -32 11
-170 130 -151 130 5 0 14 -5 21 -12 9 -9 12 -8 12 6 0 15 -6 17 -40 11 -25 -4
-40 -3 -40 3 0 6 -11 24 -25 40 -13 16 -22 32 -18 36 14 13 -20 5 -60 -15 -70
-36 -156 -106 -278 -227 l-117 -114 -78 4 c-62 3 -93 11 -145 35 -60 29 -68
36 -88 84 -32 73 -37 147 -14 180 38 56 147 192 209 262 73 82 73 79 -23 123
-29 13 -69 39 -90 57 -21 19 -57 44 -80 56 -23 11 -48 30 -56 41 -18 26 -355
188 -472 228 -260 88 -469 123 -620 105z m-715 -875 c0 -11 -5 -15 -15 -12
-10 4 -15 0 -15 -15 0 -32 -17 -25 -22 9 -5 30 0 36 33 36 11 0 19 -7 19 -18z
m30 -73 c-7 -9 -15 -13 -19 -10 -3 3 1 10 9 15 21 14 24 12 10 -5z m-10 -315
c-6 -11 -18 -20 -28 -20 -13 0 -12 4 8 20 31 25 33 25 20 0z m-359 -23 c-13
-13 -26 -3 -16 12 3 6 11 8 17 5 6 -4 6 -10 -1 -17z m-51 -11 c0 -23 -16 -27
-17 -5 -1 10 2 19 8 19 5 0 9 -6 9 -14z m314 -38 c-4 -6 -10 -5 -15 3 -14 22
-10 33 6 19 8 -7 12 -17 9 -22z m-349 12 c-3 -5 -11 -10 -16 -10 -6 0 -7 5 -4
10 3 6 11 10 16 10 6 0 7 -4 4 -10z m102 -22 c-3 -8 -6 -5 -6 6 -1 11 2 17 5
13 3 -3 4 -12 1 -19z m-230 -32 c-4 -9 -12 -16 -19 -15 -10 0 -10 2 0 6 6 2
12 9 12 14 0 6 -4 8 -9 4 -13 -7 -24 12 -15 26 10 16 38 -16 31 -35z m-322 25
c3 -5 7 -45 10 -88 4 -70 3 -75 -8 -45 -7 18 -16 30 -20 26 -4 -4 -7 2 -7 13
0 11 -7 27 -17 34 -15 13 -16 11 -10 -13 6 -22 4 -26 -8 -22 -8 4 -15 1 -15
-5 0 -6 -4 -11 -10 -11 -5 0 -2 16 7 35 9 19 20 35 24 35 4 0 10 11 13 25 6
25 29 34 41 16z m441 -67 c-4 -9 -9 -15 -11 -12 -3 3 -3 13 1 22 4 9 9 15 11
12 3 -3 3 -13 -1 -22z m74 1 c11 -13 10 -14 -4 -9 -9 3 -16 10 -16 15 0 13 6
11 20 -6z m150 -5 c0 -5 -5 -10 -11 -10 -5 0 -7 5 -4 10 3 6 8 10 11 10 2 0 4
-4 4 -10z m-343 -22 c-3 -8 -6 -5 -6 6 -1 11 2 17 5 13 3 -3 4 -12 1 -19z
m-77 -30 c0 -19 -2 -20 -10 -8 -13 19 -13 30 0 30 6 0 10 -10 10 -22z m-310
-19 c0 -5 -5 -9 -11 -9 -6 0 -9 -6 -6 -13 3 -8 -1 -14 -9 -14 -16 0 -16 3 -8
34 6 21 34 22 34 2z m60 -29 c0 -5 -2 -10 -4 -10 -3 0 -8 5 -11 10 -3 6 -1 10
4 10 6 0 11 -4 11 -10z m29 -68 c-1 -26 -3 -40 -6 -31 -2 9 -14 21 -26 28
l-22 11 23 -6 c16 -4 22 -1 22 10 0 9 -6 16 -14 16 -8 0 -18 5 -22 12 -5 8 -2
9 9 5 10 -3 17 -2 17 4 0 6 5 7 10 4 6 -3 9 -27 9 -53z m140 39 c9 -15 7 -20
-9 -24 -16 -4 -20 0 -20 19 0 29 15 31 29 5z m231 -11 c0 -5 -5 -10 -11 -10
-5 0 -7 5 -4 10 3 6 8 10 11 10 2 0 4 -4 4 -10z m30 -10 c0 -5 -2 -10 -4 -10
-3 0 -8 5 -11 10 -3 6 -1 10 4 10 6 0 11 -4 11 -10z m-610 -35 c0 -15 -11 -19
-38 -16 -10 2 -12 -4 -7 -20 5 -15 3 -20 -6 -17 -22 7 -21 25 2 47 27 25 49
27 49 6z m510 -5 c0 -11 5 -20 10 -20 6 0 10 -6 10 -14 0 -21 -32 -29 -49 -12
-13 14 -13 16 3 22 11 4 15 13 11 25 -4 11 -2 19 4 19 6 0 11 -9 11 -20z
m-440 -10 c0 -5 -4 -10 -10 -10 -5 0 -10 5 -10 10 0 6 5 10 10 10 6 0 10 -4
10 -10z m645 0 c3 -5 2 -10 -4 -10 -5 0 -13 5 -16 10 -3 6 -2 10 4 10 5 0 13
-4 16 -10z m-630 -30 c3 -5 1 -10 -4 -10 -6 0 -11 5 -11 10 0 6 2 10 4 10 3 0
8 -4 11 -10z m295 -9 c0 -11 -4 -22 -9 -25 -5 -3 -8 6 -8 19 0 14 3 25 8 25 5
0 9 -9 9 -19z m330 -11 c-6 -11 -12 -20 -14 -20 -2 0 -2 9 1 20 3 11 9 20 15
20 5 0 4 -9 -2 -20z m-750 -22 c0 -14 -5 -18 -16 -14 -9 3 -18 6 -20 6 -2 0
-4 9 -4 19 0 14 5 18 20 14 12 -3 20 -14 20 -25z m176 7 c3 -8 4 -20 1 -27 -3
-9 -7 -6 -13 7 -4 11 -12 23 -18 27 -7 5 -4 8 7 8 10 0 20 -7 23 -15z m84 -10
c0 -14 -3 -25 -7 -25 -5 0 -8 11 -8 25 0 14 3 25 8 25 4 0 7 -11 7 -25z m105
-35 c-3 -5 -1 -11 4 -15 5 -3 14 3 20 12 13 22 14 2 2 -30 -12 -30 -44 -46
-40 -19 4 25 -10 72 -21 72 -6 0 -10 -7 -10 -17 0 -9 -3 -14 -6 -10 -3 3 -3
15 1 26 6 19 8 20 31 5 13 -9 22 -20 19 -24z m295 20 c0 -5 -5 -10 -11 -10 -5
0 -7 5 -4 10 3 6 8 10 11 10 2 0 4 -4 4 -10z m-642 -41 c40 -44 45 -60 23 -67
-10 -3 -12 0 -8 12 4 11 3 15 -4 11 -14 -9 -49 24 -49 47 0 10 -4 18 -10 18
-5 0 -10 5 -10 10 0 21 23 9 58 -31z m112 37 c0 -11 -19 -15 -25 -6 -3 5 1 10
9 10 9 0 16 -2 16 -4z m80 -46 c8 -15 8 -20 -3 -20 -7 0 -13 9 -14 20 -1 11 0
20 2 20 2 0 9 -9 15 -20z m-90 -10 c0 -5 -4 -10 -9 -10 -6 0 -13 5 -16 10 -3
6 1 10 9 10 9 0 16 -4 16 -10z m184 -5 c-4 -8 -10 -15 -15 -15 -4 0 -6 7 -3
15 4 8 10 15 15 15 4 0 6 -7 3 -15z m375 -1 c7 -6 -11 -24 -25 -24 -9 0 -12 5
-8 11 3 6 0 16 -7 21 -10 6 -6 7 11 2 14 -3 27 -8 29 -10z m-409 -24 c0 -5 -4
-10 -10 -10 -5 0 -10 5 -10 10 0 6 5 10 10 10 6 0 10 -4 10 -10z m-123 -20
c26 0 31 -15 7 -24 -8 -3 -12 -2 -9 4 3 6 0 10 -8 10 -8 0 -21 8 -28 18 -11
14 -11 15 1 5 8 -7 24 -13 37 -13z m138 -20 c3 -5 1 -10 -4 -10 -6 0 -11 5
-11 10 0 6 2 10 4 10 3 0 8 -4 11 -10z m-45 -39 c0 -5 -9 -11 -21 -14 -16 -4
-18 -3 -8 9 13 16 29 19 29 5z m-280 -61 c12 -7 12 -12 2 -22 -16 -16 -64 -18
-59 -3 2 5 12 9 21 8 11 0 15 4 12 13 -6 16 3 18 24 4z m65 -90 c-3 -5 -11
-10 -16 -10 -6 0 -7 5 -4 10 3 6 11 10 16 10 6 0 7 -4 4 -10z m-90 -20 c3 -5
1 -10 -4 -10 -6 0 -11 5 -11 10 0 6 2 10 4 10 3 0 8 -4 11 -10z m4474 -209
c-15 -22 -5 -51 16 -51 9 0 29 7 45 15 28 14 36 14 112 -11 94 -30 297 -125
344 -160 17 -13 35 -24 41 -24 5 0 18 -8 29 -18 42 -39 90 -71 117 -78 16 -3
50 -17 75 -29 26 -12 61 -25 78 -29 16 -4 36 -16 44 -26 8 -11 20 -20 26 -20
6 0 17 -6 23 -14 7 -8 35 -25 64 -39 29 -14 67 -39 85 -56 18 -17 39 -31 46
-31 23 0 151 -110 158 -135 4 -17 3 -25 -5 -23 -21 5 -137 -90 -137 -112 0 -5
-8 -10 -18 -10 -10 0 -31 -18 -48 -40 -16 -22 -33 -40 -37 -40 -4 0 -13 -5
-20 -10 -47 -40 -61 -50 -70 -50 -6 0 -25 -11 -43 -25 -18 -14 -37 -25 -43
-25 -5 0 -12 -8 -15 -17 -6 -17 -48 -43 -70 -43 -6 0 -18 -13 -27 -28 -15 -26
-126 -89 -189 -108 -14 -4 -36 -15 -49 -25 -13 -11 -27 -19 -32 -19 -4 0 -20
-5 -36 -12 -15 -6 -38 -10 -51 -9 -13 2 -30 -3 -38 -10 -19 -15 -335 -16 -420
0 -55 10 -114 19 -184 26 -14 1 -54 3 -89 4 -54 1 -62 3 -51 15 14 18 10 58
-7 63 -19 7 -55 -36 -50 -58 5 -18 3 -18 -25 3 -21 15 -44 21 -73 20 -24 -1
-54 2 -68 7 -14 6 -40 6 -63 1 -24 -6 -41 -5 -44 1 -4 5 -47 11 -97 13 -50 3
-122 13 -160 24 -37 11 -78 20 -90 20 -29 1 -183 74 -183 87 0 6 -9 19 -21 28
-11 10 -18 25 -15 33 3 8 -1 14 -10 14 -20 0 -28 24 -15 48 8 15 7 23 -4 32
-33 27 -10 87 73 193 27 35 80 90 116 122 36 32 66 65 66 72 0 8 4 11 10 8 9
-6 41 19 120 95 20 19 45 42 56 52 10 9 32 32 49 52 16 20 35 36 40 36 6 0 35
25 64 55 29 29 61 57 72 60 17 6 39 24 137 113 14 12 32 22 41 23 9 1 35 2 57
3 23 1 53 10 67 19 38 25 73 31 172 28 50 -1 101 2 115 8 41 16 52 14 39 -8z"/>
<path d="M6376 6735 c4 -8 8 -15 10 -15 2 0 4 7 4 15 0 8 -4 15 -10 15 -5 0
-7 -7 -4 -15z"/>
<path d="M10410 5715 c-9 -11 -10 -19 -3 -26 16 -16 55 -1 51 19 -4 23 -32 26
-48 7z"/>
<path d="M10812 5708 c-19 -19 -15 -48 7 -48 28 0 47 26 31 45 -15 18 -22 19
-38 3z"/>
<path d="M9990 5695 c-16 -19 -6 -45 18 -45 28 0 43 20 31 42 -12 22 -32 23
-49 3z"/>
<path d="M10620 5505 c-15 -18 -6 -45 13 -45 20 0 40 27 33 45 -7 19 -30 19
-46 0z"/>
<path d="M11015 5510 c-3 -5 -1 -19 5 -30 9 -16 15 -18 30 -10 29 16 26 50 -4
50 -14 0 -28 -4 -31 -10z"/>
<path d="M10196 5494 c-10 -26 -7 -34 13 -34 26 0 44 23 29 38 -17 17 -35 15
-42 -4z"/>
<path d="M9774 5485 c-4 -9 -2 -21 4 -27 15 -15 54 1 50 20 -4 23 -46 28 -54
7z"/>
<path d="M11421 5472 c-7 -14 -7 -24 3 -37 18 -25 59 -3 54 28 -4 29 -43 35
-57 9z"/>
<path d="M10829 5309 c-13 -25 0 -43 27 -37 23 4 31 37 12 49 -20 13 -26 11
-39 -12z"/>
<path d="M11245 5300 c-9 -29 10 -48 33 -34 24 16 22 48 -5 52 -15 2 -23 -3
-28 -18z"/>
<path d="M9561 5300 c-8 -4 -20 -6 -27 -3 -6 2 -15 0 -19 -6 -3 -6 -1 -11 5
-11 7 0 20 -10 29 -21 16 -20 18 -20 34 -4 9 9 17 20 17 24 0 16 -26 30 -39
21z"/>
<path d="M9985 5297 c-25 -19 -13 -50 17 -45 17 2 23 10 23 27 0 30 -14 36
-40 18z"/>
<path d="M10400 5291 c-14 -26 -13 -28 10 -34 23 -6 45 16 36 38 -8 21 -33 19
-46 -4z"/>
<path d="M11662 5258 c-29 -29 3 -73 34 -47 19 15 18 45 -2 53 -20 8 -18 8
-32 -6z"/>
<path d="M11030 5120 c-9 -16 -8 -25 0 -35 18 -21 52 0 48 28 -4 29 -34 33
-48 7z"/>
<path d="M10623 5113 c-15 -5 -17 -39 -4 -47 18 -11 41 6 41 30 0 23 -11 28
-37 17z"/>
<path d="M10190 5081 c-13 -26 -13 -28 9 -34 23 -6 41 10 41 35 0 24 -36 23
-50 -1z"/>
<path d="M11466 5081 c-20 -22 -12 -51 15 -51 28 0 43 35 23 54 -19 20 -17 20
-38 -3z"/>
<path d="M9767 5073 c-12 -11 -8 -41 7 -46 17 -7 36 11 36 35 0 18 -29 25 -43
11z"/>
<path d="M9300 5055 c-26 -32 18 -63 48 -33 9 9 8 16 -5 30 -20 22 -27 22 -43
3z"/>
<path d="M10833 4923 c-18 -7 -16 -42 3 -50 8 -3 23 1 31 10 28 28 4 56 -34
40z"/>
<path d="M11270 4896 c-18 -22 -5 -48 22 -44 17 2 23 10 23 28 0 29 -26 38
-45 16z"/>
<path d="M10390 4880 c-14 -26 -1 -44 26 -38 13 2 19 12 19 28 0 32 -30 38
-45 10z"/>
<path d="M9542 4858 c-7 -7 -12 -20 -12 -31 0 -13 6 -18 23 -15 16 2 22 10 22
27 0 28 -15 37 -33 19z"/>
<path d="M9976 4855 c-11 -29 -6 -36 22 -33 19 2 27 9 27 23 0 25 -40 33 -49
10z"/>
<path d="M11034 4704 c-20 -30 -7 -50 25 -39 15 4 21 15 21 36 0 37 -23 39
-46 3z"/>
<path d="M10600 4690 c-25 -25 -22 -44 8 -48 29 -4 50 34 29 55 -13 13 -17 13
-37 -7z"/>
<path d="M10885 7223 c-82 -6 -84 -11 -19 -48 57 -32 254 -103 334 -120 70
-15 175 -72 228 -123 57 -55 60 -56 80 -43 10 6 8 14 -10 37 -13 16 -45 58
-70 94 -60 86 -126 146 -196 178 -50 23 -71 26 -177 28 -66 1 -142 0 -170 -3z
m205 -33 c18 -12 2 -12 -25 0 -13 6 -15 9 -5 9 8 0 22 -4 30 -9z m200 -80 c0
-5 -7 -7 -15 -4 -8 4 -15 8 -15 10 0 2 7 4 15 4 8 0 15 -4 15 -10z m110 -75
c20 -22 14 -20 -25 10 -63 47 -67 51 -30 32 17 -8 41 -27 55 -42z"/>
<path d="M7546 5181 c-4 -6 -4 -11 -1 -11 3 0 -3 -10 -15 -22 -11 -12 -20 -25
-20 -29 0 -4 -9 -9 -19 -12 -10 -2 -27 -21 -36 -41 -11 -23 -23 -35 -31 -32
-9 3 -14 -2 -14 -13 0 -10 -12 -27 -27 -36 -16 -10 -32 -24 -36 -32 -4 -7 -14
-13 -21 -13 -8 0 -16 -8 -18 -18 -3 -10 -23 -26 -44 -36 -21 -10 -56 -26 -76
-35 l-37 -18 67 -27 c66 -26 266 -71 280 -62 4 2 8 30 10 63 2 50 22 175 51
320 8 42 0 76 -13 54z"/>
<path d="M2340 3140 c0 -5 9 -10 20 -10 11 0 20 5 20 10 0 6 -9 10 -20 10 -11
0 -20 -4 -20 -10z"/>
<path d="M2484 3128 c-3 -4 7 -13 21 -18 33 -13 32 -13 38 4 6 15 -50 29 -59
14z"/>
<path d="M2637 3124 c-3 -3 -3 -13 0 -23 3 -13 15 -18 40 -19 44 -2 57 6 42
24 -6 7 -15 12 -19 9 -5 -3 -19 -1 -33 4 -14 5 -27 7 -30 5z"/>
<path d="M2836 3094 c-24 -17 -20 -21 19 -25 57 -4 69 -1 55 16 -7 8 -16 12
-22 9 -5 -3 -14 -1 -21 4 -8 7 -18 6 -31 -4z"/>
<path d="M3066 3091 c-8 -12 21 -41 40 -41 8 0 13 4 9 9 -3 5 -1 12 5 16 5 3
10 11 10 17 0 7 -6 6 -15 -2 -12 -10 -18 -10 -29 -1 -9 8 -16 8 -20 2z"/>
<path d="M3137 3071 c-3 -14 -1 -18 9 -14 8 3 14 11 14 19 0 21 -17 17 -23 -5z"/>
<path d="M3308 3083 c-10 -2 -18 -9 -18 -15 0 -6 10 -8 25 -4 20 5 23 3 18
-11 -5 -12 -2 -15 10 -10 8 3 17 2 19 -3 2 -6 9 -5 18 1 13 8 12 12 -9 29 -23
20 -31 22 -63 13z"/>
<path d="M3390 3079 c0 -5 5 -9 10 -9 6 0 10 -8 10 -17 0 -15 2 -16 10 -3 14
22 12 27 -10 33 -11 3 -20 1 -20 -4z"/>
<path d="M3590 3057 c0 -14 7 -28 16 -31 14 -5 15 -4 4 9 -10 12 -10 15 4 15
9 0 16 -5 16 -11 0 -6 7 -8 16 -5 8 3 12 2 9 -4 -7 -11 14 -12 67 -2 33 6 35
9 24 25 -10 13 -32 19 -85 23 -70 5 -71 5 -71 -19z"/>
<path d="M3775 3070 c-3 -5 -1 -10 4 -10 6 0 11 5 11 10 0 6 -2 10 -4 10 -3 0
-8 -4 -11 -10z"/>
<path d="M3844 3049 c2 -36 29 -46 71 -26 35 17 36 17 31 0 -5 -16 0 -18 42
-15 26 2 51 8 56 12 4 4 0 7 -10 7 -12 -1 -19 5 -19 18 0 18 -8 20 -86 23 -83
3 -86 2 -85 -19z"/>
<path d="M3038 3053 c7 -3 16 -2 19 1 4 3 -2 6 -13 5 -11 0 -14 -3 -6 -6z"/>
<path d="M4102 3045 c-11 -13 -9 -15 12 -15 13 0 26 -7 30 -15 3 -8 10 -15 15
-15 5 0 16 7 25 15 8 8 17 15 20 15 3 0 6 -7 6 -15 0 -22 43 -19 58 5 7 11 21
20 33 20 11 0 17 5 14 10 -10 17 -198 12 -213 -5z m78 -9 c0 -3 -4 -8 -10 -11
-5 -3 -10 -1 -10 4 0 6 5 11 10 11 6 0 10 -2 10 -4z"/>
<path d="M4430 3033 c0 -13 -3 -14 -12 -5 -7 7 -16 8 -23 2 -6 -5 -32 -10 -58
-11 -25 -1 -52 -6 -59 -11 -8 -6 1 -8 27 -7 22 0 42 0 45 -1 23 -8 115 -8 131
0 13 7 19 7 19 0 0 -5 25 -10 58 -11 31 0 83 -4 114 -8 38 -5 59 -3 62 3 2 6
5 1 5 -10 1 -12 8 -27 16 -34 12 -10 15 -9 16 6 1 11 1 25 0 33 -2 7 2 10 8 6
6 -3 21 1 33 9 l21 15 -26 10 c-15 6 -34 8 -42 5 -8 -4 -21 -2 -28 4 -6 5 -78
12 -159 15 -133 5 -148 4 -148 -10z m220 -13 c0 -5 -4 -10 -9 -10 -6 0 -13 5
-16 10 -3 6 1 10 9 10 9 0 16 -4 16 -10z"/>
<path d="M3785 3030 c4 -6 11 -8 16 -5 14 9 11 15 -7 15 -8 0 -12 -5 -9 -10z"/>
<path d="M4840 3020 c0 -5 5 -10 10 -10 6 0 10 5 10 10 0 6 -4 10 -10 10 -5 0
-10 -4 -10 -10z"/>
<path d="M4878 3024 c22 -10 12 -24 -17 -24 -17 0 -33 -4 -36 -10 -4 -6 18
-10 59 -10 36 0 68 5 71 10 9 15 25 12 19 -4 -6 -15 5 -15 1551 -22 918 -5
1124 -9 1680 -35 240 -11 265 -13 465 -29 74 -6 151 -10 170 -8 20 1 41 -2 48
-6 12 -7 82 -15 270 -31 65 -5 72 -4 73 12 0 15 1 15 9 -3 6 -16 16 -20 41
-18 19 1 36 -1 39 -5 7 -10 347 -44 360 -36 5 3 10 1 10 -5 0 -6 4 -9 8 -6 5
3 24 1 43 -4 29 -8 177 -24 329 -35 25 -2 77 -9 115 -15 214 -33 279 -38 303
-24 12 8 22 21 22 29 0 18 -12 19 -28 3 -11 -11 -185 -14 -203 -3 -5 4 -31 6
-59 7 -59 0 -66 14 -12 25 35 7 34 8 -28 14 -43 4 -67 3 -72 -4 -4 -8 -9 -5
-14 6 -3 9 -16 17 -27 17 -16 0 -18 -3 -9 -12 15 -15 16 -32 2 -23 -6 3 -54 8
-108 11 -53 2 -106 6 -117 8 -11 3 -38 5 -60 5 -39 1 -39 1 -17 17 12 8 26 13
31 9 5 -3 13 0 17 6 5 9 -11 11 -61 7 -41 -4 -62 -2 -54 3 10 6 6 9 -13 9 -16
0 -28 -5 -28 -10 0 -11 -234 -5 -251 6 -5 3 -9 11 -9 19 0 20 -76 30 -97 13
-9 -7 -14 -8 -10 -2 10 17 -28 24 -66 13 -38 -11 -256 -9 -263 2 -2 4 3 12 12
17 11 6 13 11 5 16 -6 4 -11 2 -11 -5 0 -8 -4 -8 -12 -2 -23 18 -99 23 -105 7
-3 -8 -10 -11 -15 -8 -6 4 -69 7 -139 7 -71 0 -129 4 -129 8 0 5 8 9 17 9 11
0 13 3 8 9 -12 12 -226 21 -219 9 3 -4 -42 -8 -100 -8 -84 0 -107 3 -114 15
-6 12 -30 17 -100 19 -51 2 -92 0 -92 -5 0 -5 -54 -9 -121 -9 -100 0 -120 2
-116 14 4 11 -6 15 -39 18 -25 2 -47 1 -49 -1 -6 -5 -50 -9 -198 -17 -96 -5
-121 -3 -140 9 -29 19 -161 24 -201 8 -33 -13 -234 -26 -271 -17 -14 4 -23 11
-19 17 4 7 -27 8 -102 4 -159 -11 -246 -11 -269 -1 l-20 9 20 -16 c26 -21 -2
-23 -29 -2 -22 17 -226 22 -226 6 0 -14 -202 -14 -211 0 -9 15 -189 16 -294 2
-38 -5 -81 -7 -95 -4 -23 4 -23 5 -5 12 16 6 13 8 -15 10 -163 9 -363 2 -325
-11 14 -5 4 -9 -31 -12 -63 -6 -122 1 -103 12 7 5 28 6 47 3 27 -5 33 -3 27 7
-6 9 -25 11 -79 5 -39 -4 -78 -6 -86 -6 -94 8 -143 9 -132 5z m665 -21 c-7 -2
-21 -2 -30 0 -10 3 -4 5 12 5 17 0 24 -2 18 -5z m412 -13 c3 -5 2 -10 -4 -10
-5 0 -13 5 -16 10 -3 6 -2 10 4 10 5 0 13 -4 16 -10z m1305 0 c0 -5 -5 -10
-11 -10 -5 0 -7 5 -4 10 3 6 8 10 11 10 2 0 4 -4 4 -10z m433 -17 c-7 -2 -21
-2 -30 0 -10 3 -4 5 12 5 17 0 24 -2 18 -5z m1667 -113 c0 -5 -7 -10 -16 -10
-8 0 -12 5 -9 10 3 6 10 10 16 10 5 0 9 -4 9 -10z"/>
<path d="M18470 2890 c0 -5 6 -10 14 -10 8 0 18 5 21 10 3 6 -3 10 -14 10 -12
0 -21 -4 -21 -10z"/>
<path d="M18560 2880 c7 -4 9 -13 5 -21 -6 -9 -3 -11 9 -6 10 4 27 7 38 7 32
0 -1 25 -36 27 -18 1 -24 -2 -16 -7z"/>
<path d="M18233 2863 c-7 -2 -13 -12 -13 -21 0 -12 -9 -17 -27 -18 -16 -1 -58
-3 -95 -5 -46 -3 -68 -8 -68 -16 0 -7 -4 -13 -10 -13 -5 0 -10 9 -10 20 0 14
-6 20 -22 19 -28 -1 -78 -17 -60 -18 19 -1 5 -20 -16 -19 -9 0 -62 -7 -117
-16 -127 -20 -131 -20 -115 -1 14 17 4 19 -49 9 -22 -5 -31 -12 -31 -26 0 -17
-5 -19 -30 -13 -16 4 -30 3 -30 -2 0 -11 -143 -11 -151 0 -4 5 -37 6 -78 2
-61 -6 -71 -10 -71 -26 0 -10 -5 -19 -11 -19 -6 0 -9 7 -5 15 4 12 2 13 -14 2
-11 -6 -20 -15 -20 -20 0 -4 -4 -6 -8 -3 -5 3 -42 6 -83 7 -41 1 -81 5 -90 10
-13 6 -19 3 -24 -14 -7 -22 -8 -22 -12 -1 -3 17 -10 20 -36 17 -33 -4 -78 -22
-87 -35 -10 -13 -154 -12 -158 1 -2 6 -13 11 -23 11 -13 0 -18 -4 -13 -12 5
-7 3 -8 -6 -3 -7 4 -16 2 -21 -6 -7 -11 -9 -10 -9 5 0 16 -6 18 -42 13 -23 -3
-47 -12 -53 -19 -11 -14 -16 -15 -127 -23 -45 -2 -80 0 -83 5 -3 6 -11 10 -16
10 -6 0 -7 -4 -4 -10 3 -5 -3 -10 -14 -10 -12 0 -21 5 -21 10 0 17 -88 12 -98
-6 -10 -18 -23 -21 -161 -30 -82 -6 -96 -4 -107 11 -15 20 -54 12 -54 -11 0
-8 -5 -14 -10 -14 -6 0 -10 8 -8 18 2 13 -4 17 -27 17 -37 0 -75 -14 -75 -29
0 -6 -12 -11 -27 -12 -16 0 -75 -4 -133 -8 -95 -8 -103 -7 -91 8 12 14 6 16
-65 16 -76 -1 -115 -13 -107 -35 2 -6 -21 -9 -58 -8 -34 1 -69 -2 -78 -6 -22
-12 -71 -2 -71 15 0 8 -10 14 -25 14 -18 0 -25 -5 -25 -20 0 -25 -16 -26 -23
-1 -4 15 -12 19 -42 16 -20 -2 -47 -11 -61 -20 -14 -9 -29 -13 -35 -10 -5 4
-16 2 -23 -4 -7 -6 -53 -14 -102 -17 -49 -4 -97 -11 -106 -16 -10 -5 -18 -6
-18 -3 0 9 23 31 40 38 8 4 -28 5 -80 2 -52 -2 -99 -5 -104 -5 -5 0 -6 -3 -3
-7 15 -14 -46 -30 -144 -37 -57 -4 -121 -9 -143 -12 -25 -3 -47 1 -62 10 -12
9 -35 16 -51 16 -15 0 -39 0 -53 -1 -13 0 -34 -8 -45 -18 -12 -11 -43 -21 -80
-25 -52 -5 -200 -18 -215 -18 -26 -1 -40 4 -40 12 0 6 8 10 18 10 14 0 14 2 3
9 -16 10 -76 4 -104 -11 -9 -5 -23 -5 -30 -1 -21 13 -67 12 -67 -2 0 -10 -31
-13 -127 -14 -82 -1 -124 2 -118 8 6 5 24 11 40 14 27 4 4 7 -92 11 -11 1 -17
-5 -15 -13 3 -12 0 -12 -12 -2 -8 7 -19 10 -24 7 -5 -3 -23 0 -41 7 -27 10
-33 9 -41 -3 -7 -12 -31 -15 -116 -13 -109 2 -144 8 -144 23 0 5 15 11 33 13
25 3 21 4 -18 7 -27 1 -62 4 -77 6 -16 1 -28 -1 -28 -7 0 -5 -8 -4 -19 2 -14
9 -25 9 -49 -3 -22 -12 -50 -15 -99 -11 -37 2 -112 5 -165 6 -98 1 -117 9 -53
21 55 11 31 26 -40 26 -45 0 -68 -5 -80 -16 -11 -11 -19 -13 -28 -6 -8 7 -18
7 -27 2 -8 -5 -18 -7 -22 -4 -4 3 -40 7 -80 10 -60 5 -77 10 -96 30 -17 18
-34 24 -70 26 -68 2 -124 -2 -139 -10 -7 -4 -54 -4 -105 1 -51 5 -117 10 -145
9 -52 0 -72 15 -33 25 34 9 23 26 -13 19 -18 -3 -36 -3 -40 1 -13 12 -77 14
-77 2 0 -7 -10 -9 -25 -7 -14 3 -28 2 -31 -3 -2 -4 -10 -6 -17 -4 -7 2 -43 6
-82 10 -38 3 -79 7 -89 8 -10 1 -21 -3 -23 -9 -5 -14 215 -33 221 -19 3 6 5 4
5 -2 1 -17 28 -17 35 0 3 8 9 7 20 -7 13 -16 18 -17 31 -6 8 7 15 8 15 2 0
-14 35 -21 146 -27 55 -4 126 -10 159 -15 49 -8 61 -7 68 5 4 8 13 15 19 15 7
0 7 -4 -1 -14 -9 -11 -8 -15 5 -20 10 -4 21 -1 26 6 6 10 8 8 8 -4 0 -24 17
-23 25 2 7 22 20 26 30 10 3 -5 -1 -10 -9 -10 -9 0 -16 -4 -16 -9 0 -11 85
-20 220 -24 52 -2 105 -9 118 -16 20 -11 26 -8 23 12 0 4 4 7 9 7 6 0 10 -7
10 -15 0 -18 12 -19 28 -3 9 9 12 9 12 -3 0 -12 15 -15 78 -16 80 0 207 -9
277 -20 36 -5 38 -4 26 11 -7 9 -10 16 -6 16 4 0 14 -8 21 -17 11 -15 15 -15
22 -5 8 11 10 11 15 -1 4 -11 29 -15 114 -16 59 -1 122 -4 138 -6 88 -13 164
-14 168 -2 4 9 7 9 14 -1 11 -14 433 -23 433 -8 0 5 7 3 15 -4 10 -8 42 -10
107 -6 51 3 148 8 216 12 67 4 125 11 128 16 3 4 13 4 22 0 10 -5 76 -3 152 4
74 7 173 14 219 16 56 2 85 7 88 15 3 7 9 13 14 13 4 0 6 -7 3 -15 -4 -8 -1
-15 5 -15 7 0 14 7 17 15 5 12 9 13 20 4 11 -9 47 -9 152 0 126 11 483 35 662
46 41 2 152 9 245 15 94 6 208 13 255 15 47 3 108 8 135 10 28 3 131 10 230
15 99 5 263 17 365 25 102 9 268 22 370 30 102 9 223 20 270 26 47 5 114 12
150 15 118 9 655 79 915 119 55 8 105 15 111 15 6 0 11 6 11 13 0 10 -10 13
-31 10 -17 -1 -48 -5 -68 -7 -29 -4 -38 -1 -38 10 0 14 -31 18 -57 7z m-2833
-273 c0 -5 -2 -10 -4 -10 -3 0 -8 5 -11 10 -3 6 -1 10 4 10 6 0 11 -4 11 -10z
m-3491 -21 c29 -10 43 -29 22 -29 -20 0 -61 20 -61 30 0 12 0 12 39 -1z m831
-74 c-7 -8 -20 -15 -29 -15 -11 1 -8 5 9 15 32 18 35 18 20 0z m1345 -5 c3 -5
2 -10 -4 -10 -5 0 -13 5 -16 10 -3 6 -2 10 4 10 5 0 13 -4 16 -10z"/>
<path d="M18446 2862 c-3 -6 -1 -14 5 -17 15 -10 25 3 12 16 -7 7 -13 7 -17 1z"/>
<path d="M9838 2823 c6 -2 18 -2 25 0 6 3 1 5 -13 5 -14 0 -19 -2 -12 -5z"/>
<path d="M10514 2729 c-22 -25 -15 -31 43 -35 26 -2 42 -1 35 2 -10 5 -10 9
-1 20 15 18 9 24 -29 29 -21 3 -36 -2 -48 -16z"/>
<path d="M10645 2730 c3 -5 13 -10 21 -10 8 0 12 5 9 10 -3 6 -13 10 -21 10
-8 0 -12 -4 -9 -10z"/>
<path d="M10878 2703 c6 -3 12 -8 12 -13 0 -9 -173 -5 -218 5 -17 3 -39 2 -48
-3 -19 -11 107 -26 221 -27 33 0 62 -3 65 -6 3 -4 32 -9 65 -13 33 -3 52 -3
42 0 -22 7 -17 29 6 29 22 0 34 15 14 16 -54 3 -74 2 -84 -4 -6 -4 -16 -1 -22
7 -6 7 -24 13 -39 13 -15 0 -21 -2 -14 -4z"/>
<path d="M11068 2683 c7 -3 16 -2 19 1 4 3 -2 6 -13 5 -11 0 -14 -3 -6 -6z"/>
<path d="M6671 2578 c-14 -39 -5 -51 9 -13 6 15 13 32 16 36 3 5 1 9 -4 9 -6
0 -15 -14 -21 -32z"/>
<path d="M5578 2550 c-15 -50 -11 -62 24 -58 38 4 51 28 14 28 -20 0 -25 6
-28 28 l-3 27 -7 -25z"/>
<path d="M6600 2525 c0 -14 2 -25 4 -25 2 0 6 11 8 25 3 14 1 25 -3 25 -5 0
-9 -11 -9 -25z"/>
<path d="M5756 2532 c-2 -4 -1 -14 5 -22 7 -12 9 -10 9 8 0 23 -5 28 -14 14z"/>
<path d="M14163 2533 c-34 -7 -28 -20 7 -15 16 2 27 8 24 13 -3 5 -6 8 -7 8
-1 -1 -12 -4 -24 -6z"/>
<path d="M5307 2493 c-3 -21 -8 -46 -12 -56 -7 -16 -4 -18 16 -15 21 3 23 7
21 48 -5 59 -18 71 -25 23z"/>
<path d="M6306 2491 c-3 -21 -9 -47 -12 -56 -5 -13 -2 -16 17 -13 21 3 23 7
21 48 -5 60 -18 71 -26 21z"/>
<path d="M5891 2503 c0 -12 -4 -30 -7 -40 -5 -14 -4 -15 5 -7 7 6 11 24 8 40
-3 21 -4 23 -6 7z"/>
<path d="M6019 2483 c-26 -11 -30 -17 -27 -45 4 -42 21 -39 28 4 5 33 6 33 70
39 61 5 58 7 -13 13 -16 1 -42 -4 -58 -11z"/>
<path d="M6415 2480 c3 -5 8 -10 11 -10 2 0 4 5 4 10 0 6 -5 10 -11 10 -5 0
-7 -4 -4 -10z"/>
<path d="M5705 2461 c-3 -5 -1 -12 5 -16 5 -3 10 1 10 9 0 18 -6 21 -15 7z"/>
<path d="M5861 2439 c-1 -9 6 -22 14 -29 13 -10 15 -9 15 9 0 12 -4 20 -9 17
-5 -4 -12 0 -14 6 -4 9 -6 7 -6 -3z"/>
<path d="M2263 2417 c1 -32 -4 -48 -13 -42 -6 4 -7 -1 -3 -10 3 -10 0 -21 -8
-26 -12 -7 -12 -10 -1 -18 12 -7 11 -14 -2 -38 -8 -17 -12 -33 -9 -37 8 -8
-44 -86 -60 -87 -6 -1 -31 -3 -55 -3 -24 -1 -47 -8 -51 -15 -5 -7 -21 -12 -37
-10 -68 5 -92 -25 -80 -99 3 -20 6 -45 7 -54 0 -10 5 -21 11 -24 7 -4 6 -9 -3
-14 -9 -6 -10 -13 -3 -22 6 -7 11 -29 12 -48 5 -70 26 -176 44 -218 10 -24 13
-40 7 -36 -22 13 9 -31 54 -77 73 -77 204 -158 362 -225 50 -21 83 -40 74 -42
-17 -3 -32 -39 -23 -54 3 -4 11 -8 19 -8 7 0 15 -6 18 -14 3 -7 25 -18 49 -25
23 -6 67 -18 96 -26 29 -8 87 -17 130 -21 42 -3 80 -8 83 -10 23 -14 380 -38
669 -45 1038 -25 1216 -28 1335 -24 72 3 339 7 595 10 256 2 652 10 880 16
531 15 1878 17 3870 4 866 -6 1766 -9 2000 -8 635 4 1916 23 2235 34 154 5
408 13 565 19 337 11 1530 65 1780 80 878 53 1510 128 1684 201 41 16 52 26
54 45 1 17 -3 24 -16 24 -10 0 -23 5 -30 12 -6 6 -20 13 -29 14 -29 4 -137 35
-155 45 -25 12 -207 38 -328 46 -58 4 -96 9 -85 11 51 10 196 57 254 83 35 16
73 29 85 29 36 0 240 76 340 126 52 26 134 77 182 113 136 102 183 191 183
345 0 54 -2 61 -37 95 l-37 37 -36 -18 c-199 -96 -1048 -245 -1944 -342 -205
-22 -223 -24 -305 -36 -41 -5 -169 -19 -285 -30 -400 -38 -631 -61 -800 -79
-94 -11 -182 -17 -196 -14 -14 2 -126 0 -249 -6 -124 -6 -373 -17 -555 -26
-539 -25 -601 -39 -1160 -267 -370 -151 -436 -169 -635 -169 -160 0 -380 17
-393 30 -5 5 -16 7 -25 4 -9 -4 -13 -2 -9 4 11 18 -37 24 -229 28 -98 2 -271
5 -384 8 -213 6 -236 3 -67 -8 54 -4 96 -9 93 -12 -8 -8 -296 8 -296 17 0 4
11 5 24 3 13 -3 26 -1 30 5 3 6 -28 10 -82 11 -48 1 -103 4 -122 6 -31 4 -32
3 -10 -5 50 -19 -412 2 -987 45 -183 14 -336 24 -340 23 -4 -1 -28 2 -53 5
-25 4 -153 12 -285 18 -132 5 -258 12 -280 14 -22 2 -112 6 -200 10 -88 3
-209 8 -270 10 l-110 4 -12 48 c-7 27 -13 64 -13 83 0 43 -20 74 -63 98 -30
16 -90 17 -842 17 -445 0 -1192 -3 -1660 -6 -1121 -8 -1695 5 -2390 57 -580
43 -992 165 -1365 405 -47 30 -90 58 -96 62 -7 4 -12 1 -11 -6z m12597 -728
c-22 -42 -23 -47 -35 -162 -4 -37 -10 -66 -12 -63 -3 3 -7 36 -8 75 -2 38 -6
74 -9 79 -7 12 -118 23 -155 16 -16 -4 -33 -14 -36 -23 -8 -17 -15 -113 -19
-261 -2 -52 -6 -112 -11 -134 -16 -81 -29 -5 -32 193 -3 184 -4 196 -25 218
-14 15 -33 23 -55 23 -89 0 -103 -38 -103 -273 0 -110 -4 -177 -9 -171 -5 5
-11 25 -12 44 -2 19 -5 39 -7 44 -8 16 -7 86 1 86 5 0 5 15 1 33 -4 17 -7 56
-5 86 2 77 -6 83 -112 79 -72 -2 -91 -6 -98 -20 -7 -12 -6 -18 2 -18 7 0 9 -9
4 -27 -4 -16 -8 -77 -11 -138 -2 -60 -9 -132 -15 -160 l-12 -50 -9 30 c-6 17
-12 108 -15 203 -5 151 -8 176 -25 197 -28 36 -80 34 -119 -4 l-29 -29 0 -202
0 -202 -22 15 c-17 11 -23 23 -21 48 3 61 5 133 4 187 -1 40 -5 52 -17 52 -8
0 -13 4 -10 9 3 5 -1 14 -8 20 -11 9 -23 8 -53 -5 -21 -10 -42 -18 -48 -18
-26 -2 -46 -71 -47 -156 0 -25 -5 -51 -11 -58 -8 -10 -7 -16 3 -22 11 -7 9
-15 -10 -43 -14 -20 -27 -34 -31 -31 -11 7 -30 132 -24 157 9 35 -12 104 -37
121 -18 13 -26 13 -67 -2 -61 -23 -71 -46 -71 -164 0 -91 -1 -97 -20 -93 -32
6 -41 15 -38 38 3 19 -2 21 -56 22 -40 0 -60 -4 -64 -13 -2 -8 -13 -11 -23 -9
-14 4 -19 0 -19 -15 0 -11 -8 -22 -19 -25 -11 -3 -21 -15 -23 -27 -2 -13 -8
-2 -17 32 -15 59 -52 92 -104 92 -31 0 -74 -39 -83 -77 -6 -23 -8 -23 -153
-25 -135 -2 -224 -5 -311 -11 -32 -2 -35 1 -38 27 -2 17 -1 49 3 71 l6 42 142
1 c133 1 314 20 415 43 55 12 285 89 407 136 94 36 165 67 355 153 63 28 135
56 160 61 25 5 204 12 397 15 194 3 374 9 400 14 27 4 69 8 96 9 l47 1 -20
-41z m3003 -96 c-7 -2 -19 -2 -25 0 -7 3 -2 5 12 5 14 0 19 -2 13 -5z m-6495
-80 c-16 -2 -40 -2 -55 0 -16 2 -3 4 27 4 30 0 43 -2 28 -4z m2422 -253 c0 -5
-2 -10 -4 -10 -3 0 -8 5 -11 10 -3 6 -1 10 4 10 6 0 11 -4 11 -10z"/>
<path d="M13265 1280 c3 -5 13 -10 21 -10 8 0 12 5 9 10 -3 6 -13 10 -21 10
-8 0 -12 -4 -9 -10z"/>
<path d="M6158 2380 c-16 -116 -4 -143 21 -50 23 83 23 87 7 60 l-14 -25 -4
35 c-3 30 -4 28 -10 -20z"/>
<path d="M5731 2383 c-1 -17 5 -34 12 -36 10 -4 10 -6 0 -6 -15 -1 -18 -47 -4
-55 14 -9 21 20 20 77 -1 31 -4 42 -7 27 l-5 -25 -8 25 c-7 24 -7 23 -8 -7z"/>
<path d="M6050 2385 c-7 -8 -16 -13 -20 -10 -4 2 -15 -1 -24 -8 -16 -12 -16
-14 -2 -26 21 -18 44 -7 56 25 12 32 8 40 -10 19z"/>
<path d="M5461 2355 c-1 -17 -3 -18 -11 -5 -8 12 -10 11 -9 -5 1 -11 4 -31 9
-45 l7 -25 7 26 c4 15 6 38 3 50 -4 20 -5 21 -6 4z"/>
<path d="M6760 2355 c0 -17 28 -27 46 -17 10 6 6 11 -16 19 -24 9 -30 9 -30
-2z"/>
<path d="M11048 1543 c7 -3 16 -2 19 1 4 3 -2 6 -13 5 -11 0 -14 -3 -6 -6z"/>
<path d="M11178 1533 c6 -2 18 -2 25 0 6 3 1 5 -13 5 -14 0 -19 -2 -12 -5z"/>
</g>
</svg>
