<?xml version="1.0" standalone="no"?>
<!DOCTYPE svg PUBLIC "-//W3C//DTD SVG 20010904//EN"
 "http://www.w3.org/TR/2001/REC-SVG-20010904/DTD/svg10.dtd">
<svg version="1.0" xmlns="http://www.w3.org/2000/svg"
 width="690.000000pt" height="690.000000pt" viewBox="0 0 690.000000 690.000000"
 preserveAspectRatio="xMidYMid meet">

<g transform="translate(0.000000,690.000000) scale(0.100000,-0.100000)"
fill="#000000" stroke="none">
<path d="M2824 4952 c-59 -43 -190 -188 -226 -251 -32 -54 -33 -60 -32 -161 0
-75 5 -118 18 -150 9 -25 19 -52 22 -60 3 -10 -17 -28 -63 -57 -162 -99 -283
-131 -521 -138 -168 -4 -256 6 -356 40 -129 45 -197 90 -277 185 -94 112 -153
154 -222 157 -29 1 -70 5 -92 8 -32 6 -45 3 -68 -15 -15 -12 -25 -25 -22 -30
3 -4 -1 -13 -9 -19 -7 -6 -19 -33 -26 -59 -42 -159 -65 -229 -82 -252 -27 -38
-40 -130 -24 -183 10 -32 11 -68 3 -147 -5 -58 -10 -203 -12 -323 -2 -142 -7
-223 -14 -230 -8 -8 -11 -6 -11 6 0 11 -5 14 -16 10 -9 -3 -28 -6 -43 -7 -33
-1 -38 -34 -17 -107 32 -107 12 -169 -69 -209 -61 -30 -104 -98 -86 -137 30
-67 296 -104 866 -123 171 -6 420 -10 553 -10 l244 0 63 61 64 61 108 -6 c59
-4 135 -9 168 -12 l60 -4 -50 17 c-58 21 -77 46 -202 262 -91 157 -160 234
-251 280 -100 51 -386 144 -677 221 -76 20 -127 34 -292 78 -120 32 -184 78
-208 149 -11 32 -11 42 1 65 8 16 16 28 19 28 4 0 265 -80 412 -126 l82 -26
47 41 c26 23 76 55 111 73 34 17 63 34 63 39 0 4 -35 15 -77 24 -76 16 -504
134 -512 141 -8 7 72 96 96 107 20 9 33 6 76 -16 131 -68 299 -97 527 -92 233
4 393 39 564 120 68 32 235 139 321 204 22 17 47 34 55 38 8 5 50 32 93 60 96
64 172 94 257 100 45 4 76 12 100 28 19 13 51 26 70 30 19 4 39 9 43 12 4 3
-47 43 -115 90 -68 47 -132 93 -143 103 -11 11 -45 30 -75 44 -31 14 -78 41
-105 61 -28 19 -55 35 -61 35 -6 0 -29 -13 -50 -28z m-1969 -1752 l20 -9 -20
0 c-11 0 -27 4 -35 9 -13 9 -13 10 0 9 8 0 24 -4 35 -9z m56 -258 c8 -22 6
-23 -32 -20 -44 2 -52 8 -43 33 10 25 65 16 75 -13z"/>
<path d="M3390 4546 c0 -11 154 -76 162 -68 5 5 -9 14 -33 21 -26 8 -43 20
-46 32 -4 15 -14 19 -44 19 -22 0 -39 -2 -39 -4z"/>
<path d="M3600 4515 c0 -8 16 -19 38 -25 22 -5 47 -19 57 -30 21 -23 45 -26
45 -6 0 8 3 21 6 30 8 21 -45 46 -101 46 -33 0 -45 -4 -45 -15z"/>
<path d="M3155 4447 c-4 -10 -3 -23 4 -30 16 -16 26 0 14 25 -10 21 -11 22
-18 5z"/>
<path d="M3860 4401 c0 -5 -3 -16 -6 -25 -4 -11 0 -16 14 -16 15 0 19 5 15 20
-6 22 -23 38 -23 21z"/>
<path d="M3460 4351 c0 -11 9 -25 21 -31 34 -19 38 -7 8 23 -27 26 -29 27 -29
8z"/>
<path d="M3727 4223 c-10 -9 13 -33 30 -33 10 0 13 6 9 16 -3 9 -6 18 -6 20 0
7 -26 5 -33 -3z"/>
<path d="M4015 4091 c-3 -6 3 -15 14 -20 28 -16 33 -14 21 9 -12 22 -25 26
-35 11z"/>
<path d="M4360 4050 c0 -5 10 -10 23 -10 18 0 19 2 7 10 -19 13 -30 13 -30 0z"/>
<path d="M4334 3925 c21 -16 32 -13 21 4 -3 6 -14 11 -23 11 -15 -1 -15 -2 2
-15z"/>
<path d="M3574 3849 c-2 -3 -25 -4 -51 -2 -27 3 -89 0 -138 -7 -50 -7 -100
-12 -112 -11 -13 0 -23 -3 -23 -8 0 -4 -11 -6 -25 -3 -13 2 -33 1 -42 -3 -10
-4 -31 -9 -48 -10 -28 -3 -46 -6 -118 -21 -16 -3 -26 -8 -23 -12 3 -3 1 -11
-5 -18 -7 -8 -7 -14 1 -19 5 -3 10 1 10 9 0 9 6 17 13 18 6 0 17 2 22 2 6 1
15 4 20 7 10 5 46 10 93 13 12 0 22 4 22 8 0 3 16 7 35 8 72 3 85 5 85 11 0 4
10 7 23 7 33 0 129 12 139 18 4 3 8 -2 8 -10 0 -19 4 -19 50 -6 60 18 150 23
150 9 0 -8 7 -5 16 7 10 12 14 13 11 4 -3 -10 3 -15 19 -15 13 0 24 2 24 5 0
3 20 7 45 8 28 1 44 -2 40 -8 -3 -6 -2 -10 4 -10 5 0 12 6 14 13 4 9 8 9 15
-1 7 -11 10 -10 16 3 6 15 -2 17 -73 14 -44 -2 -78 -2 -76 1 2 3 -28 5 -67 5
-38 0 -72 -3 -74 -6z m-79 -19 c-3 -5 -10 -10 -16 -10 -5 0 -9 5 -9 10 0 6 7
10 16 10 8 0 12 -4 9 -10z"/>
<path d="M3890 3840 c-18 -11 -16 -12 55 -14 30 0 55 3 55 8 0 4 -20 6 -45 4
-25 -2 -46 0 -47 4 -2 4 -10 3 -18 -2z"/>
<path d="M4010 3815 c0 -8 2 -15 4 -15 2 0 6 7 10 15 3 8 1 15 -4 15 -6 0 -10
-7 -10 -15z"/>
<path d="M4040 3820 c0 -5 4 -10 9 -10 6 0 13 5 16 10 3 6 -1 10 -9 10 -9 0
-16 -4 -16 -10z"/>
<path d="M4080 3818 c0 -5 6 -8 13 -9 6 0 25 -2 40 -3 16 -1 30 1 33 5 2 4
-16 9 -41 11 -25 2 -45 0 -45 -4z"/>
<path d="M3580 3816 c0 -2 7 -7 16 -10 8 -3 12 -2 9 4 -6 10 -25 14 -25 6z"/>
<path d="M3340 3801 c0 -5 7 -12 16 -15 14 -5 15 -4 4 9 -14 17 -20 19 -20 6z"/>
<path d="M3540 3806 c0 -2 7 -7 16 -10 8 -3 12 -2 9 4 -6 10 -25 14 -25 6z"/>
<path d="M3699 3793 c-13 -16 -12 -17 4 -4 16 13 21 21 13 21 -2 0 -10 -8 -17
-17z"/>
<path d="M4205 3801 c-3 -5 -1 -12 4 -15 5 -3 11 1 15 9 6 16 -9 21 -19 6z"/>
<path d="M3300 3791 c0 -5 7 -11 15 -15 8 -3 15 -1 15 3 0 5 -7 11 -15 15 -8
3 -15 1 -15 -3z"/>
<path d="M3510 3790 c8 -5 20 -10 25 -10 6 0 3 5 -5 10 -8 5 -19 10 -25 10 -5
0 -3 -5 5 -10z"/>
<path d="M4240 3789 c0 -5 5 -7 10 -4 6 3 10 8 10 11 0 2 -4 4 -10 4 -5 0 -10
-5 -10 -11z"/>
<path d="M4270 3790 c0 -6 5 -10 11 -10 6 0 9 -6 6 -14 -3 -8 1 -17 8 -20 8
-3 12 -12 9 -19 -3 -8 2 -17 12 -21 13 -5 14 -4 6 7 -7 8 -9 16 -7 19 9 8 -16
56 -31 62 -8 3 -14 1 -14 -4z"/>
<path d="M3260 3779 c0 -6 -8 -8 -19 -4 -11 3 -22 2 -24 -3 -3 -4 6 -8 20 -7
15 0 28 6 31 13 2 6 1 12 -2 12 -3 0 -6 -5 -6 -11z"/>
<path d="M3185 3770 c-4 -6 -16 -8 -27 -4 -14 4 -18 2 -14 -5 4 -6 13 -11 19
-11 18 0 42 18 35 25 -3 4 -9 1 -13 -5z"/>
<path d="M3382 3768 c-7 -7 -12 -16 -12 -21 0 -5 7 -1 16 8 9 9 14 18 12 20
-2 3 -10 -1 -16 -7z"/>
<path d="M2938 3757 c-16 -6 -28 -18 -28 -26 0 -11 -3 -12 -11 -4 -14 14 -62
-9 -90 -45 -11 -15 -24 -27 -27 -27 -4 0 -6 -4 -4 -8 1 -5 -2 -6 -7 -3 -11 7
-45 -47 -56 -89 -14 -58 -17 -81 -16 -158 1 -102 31 -225 88 -360 25 -61 46
-116 46 -124 0 -16 9 -17 25 -1 17 17 15 29 -3 22 -11 -4 -13 -2 -10 9 4 8 -1
17 -12 21 -15 6 -15 8 -3 16 13 8 12 10 -3 10 -14 0 -17 5 -12 20 4 12 2 20
-5 20 -7 0 -10 7 -6 15 3 8 -5 25 -19 39 -26 26 -33 56 -13 56 6 0 1 11 -13
26 -21 22 -21 24 -4 18 16 -6 18 -5 8 7 -17 17 -16 24 3 44 9 9 13 19 9 23 -4
4 -10 1 -12 -5 -3 -7 -9 -13 -15 -13 -6 0 -7 7 -4 16 4 10 -2 24 -15 35 -12
11 -19 20 -16 20 4 1 11 2 16 3 16 2 37 26 23 26 -7 0 -12 -5 -12 -11 0 -8 -4
-8 -14 0 -29 24 -8 81 29 78 10 -1 20 5 22 13 3 9 1 11 -4 5 -8 -11 -63 -17
-63 -7 0 3 8 14 18 25 16 19 16 19 -5 13 -28 -9 -29 -3 -6 20 13 13 14 19 5
22 -6 2 -12 8 -12 14 0 6 6 8 14 5 16 -6 43 19 32 30 -3 3 -6 1 -6 -5 0 -7 -4
-12 -9 -12 -5 0 -8 11 -7 24 1 20 4 22 20 14 12 -7 21 -7 25 0 3 6 15 10 25 9
10 -1 21 5 23 13 4 12 3 13 -5 1 -5 -7 -15 -10 -21 -6 -7 4 -17 2 -24 -3 -8
-7 -16 -6 -24 3 -12 13 4 23 49 29 23 3 33 14 24 23 -4 4 -11 1 -16 -7 -5 -8
-12 -11 -16 -7 -9 9 16 39 30 34 6 -2 18 3 26 11 11 12 12 16 2 20 -6 2 -12 8
-12 13 0 6 4 8 8 5 5 -3 33 1 62 9 29 8 58 11 64 8 6 -4 5 1 -3 10 -9 11 -10
17 -2 17 6 0 11 5 11 10 0 12 -6 11 -42 -3z m12 -17 c0 -5 -5 -10 -11 -10 -5
0 -7 5 -4 10 3 6 8 10 11 10 2 0 4 -4 4 -10z m-110 -60 c0 -5 -4 -10 -10 -10
-5 0 -10 5 -10 10 0 6 5 10 10 10 6 0 10 -4 10 -10z m-100 -414 c0 -3 -4 -8
-10 -11 -5 -3 -10 -1 -10 4 0 6 5 11 10 11 6 0 10 -2 10 -4z m10 -40 c0 -3 -4
-8 -10 -11 -5 -3 -10 -1 -10 4 0 6 5 11 10 11 6 0 10 -2 10 -4z"/>
<path d="M3102 3758 c-7 -7 -12 -16 -12 -21 0 -5 7 -1 16 8 9 9 14 18 12 20
-2 3 -10 -1 -16 -7z"/>
<path d="M3340 3755 c-11 -13 -10 -14 4 -9 9 3 16 10 16 15 0 13 -6 11 -20 -6z"/>
<path d="M3706 3753 c-6 -14 -5 -15 5 -6 7 7 10 15 7 18 -3 3 -9 -2 -12 -12z"/>
<path d="M4250 3760 c0 -5 5 -10 11 -10 5 0 7 5 4 10 -3 6 -8 10 -11 10 -2 0
-4 -4 -4 -10z"/>
<path d="M3022 3748 c-7 -7 -12 -16 -12 -21 0 -5 7 -1 16 8 9 9 14 18 12 20
-2 3 -10 -1 -16 -7z"/>
<path d="M3057 3746 c-4 -10 -1 -13 9 -9 15 6 19 23 5 23 -5 0 -11 -7 -14 -14z"/>
<path d="M3220 3735 c-11 -13 -10 -14 4 -9 9 3 16 10 16 15 0 13 -6 11 -20 -6z"/>
<path d="M3466 3742 c-2 -4 4 -8 14 -8 10 0 16 4 14 8 -3 4 -9 8 -14 8 -5 0
-11 -4 -14 -8z"/>
<path d="M3595 3740 c-3 -5 -1 -10 4 -10 6 0 11 5 11 10 0 6 -2 10 -4 10 -3 0
-8 -4 -11 -10z"/>
<path d="M3795 3740 c-3 -5 -1 -10 4 -10 6 0 11 5 11 10 0 6 -2 10 -4 10 -3 0
-8 -4 -11 -10z"/>
<path d="M3182 3724 c-7 -8 -8 -14 -3 -14 10 0 25 19 20 25 -2 1 -10 -3 -17
-11z"/>
<path d="M3395 3730 c-4 -6 -15 -8 -25 -5 -10 3 -20 0 -23 -9 -5 -12 0 -13 25
-5 34 9 44 16 36 25 -3 3 -9 0 -13 -6z"/>
<path d="M3425 3730 c-3 -6 1 -7 9 -4 18 7 21 14 7 14 -6 0 -13 -4 -16 -10z"/>
<path d="M3552 3728 c-7 -7 -12 -16 -12 -21 0 -5 7 -1 16 8 9 9 14 18 12 20
-2 3 -10 -1 -16 -7z"/>
<path d="M3145 3720 c-4 -6 -11 -8 -16 -5 -5 4 -17 2 -26 -4 -15 -8 -13 -9 10
-7 23 2 64 26 45 26 -4 0 -10 -5 -13 -10z"/>
<path d="M4260 3720 c0 -5 5 -10 11 -10 5 0 7 5 4 10 -3 6 -8 10 -11 10 -2 0
-4 -4 -4 -10z"/>
<path d="M3065 3709 c-4 -6 -5 -12 -2 -15 2 -3 7 2 10 11 7 17 1 20 -8 4z"/>
<path d="M3272 3708 c-7 -7 -12 -16 -12 -21 0 -5 7 -1 16 8 9 9 14 18 12 20
-2 3 -10 -1 -16 -7z"/>
<path d="M3305 3709 c-11 -16 -1 -19 13 -3 7 8 8 14 3 14 -5 0 -13 -5 -16 -11z"/>
<path d="M3680 3716 c0 -2 7 -7 16 -10 8 -3 12 -2 9 4 -6 10 -25 14 -25 6z"/>
<path d="M2952 3698 c-7 -7 -12 -16 -12 -21 0 -5 7 -1 16 8 9 9 14 18 12 20
-2 3 -10 -1 -16 -7z"/>
<path d="M2995 3700 c3 -5 8 -10 11 -10 2 0 4 5 4 10 0 6 -5 10 -11 10 -5 0
-7 -4 -4 -10z"/>
<path d="M3025 3700 c-3 -6 1 -7 9 -4 18 7 21 14 7 14 -6 0 -13 -4 -16 -10z"/>
<path d="M3230 3695 c-11 -13 -10 -14 4 -9 9 3 16 10 16 15 0 13 -6 11 -20 -6z"/>
<path d="M2916 3693 c-4 -4 -15 -8 -23 -8 -9 0 -18 -7 -20 -15 -4 -11 -2 -12
5 -2 5 7 16 10 24 7 9 -4 19 -1 23 5 8 14 1 23 -9 13z"/>
<path d="M3152 3688 c-7 -7 -12 -16 -12 -21 0 -5 7 -1 16 8 9 9 14 18 12 20
-2 3 -10 -1 -16 -7z"/>
<path d="M3560 3685 c-11 -13 -10 -14 4 -9 9 3 16 10 16 15 0 13 -6 11 -20 -6z"/>
<path d="M3076 3674 c-5 -13 -9 -14 -21 -4 -10 9 -15 9 -15 1 0 -6 -10 -10
-21 -8 -12 1 -24 -5 -26 -13 -3 -10 -2 -11 4 -4 4 6 23 10 41 9 29 -2 62 18
50 31 -3 3 -8 -3 -12 -12z"/>
<path d="M3360 3686 c0 -2 7 -7 16 -10 8 -3 12 -2 9 4 -6 10 -25 14 -25 6z"/>
<path d="M3520 3675 c-11 -13 -10 -14 4 -9 9 3 16 10 16 15 0 13 -6 11 -20 -6z"/>
<path d="M4311 3677 c9 -7 14 -17 12 -24 -2 -6 0 -14 6 -17 13 -9 10 37 -4 46
-17 13 -31 8 -14 -5z"/>
<path d="M3280 3665 c-11 -13 -10 -14 4 -9 9 3 16 10 16 15 0 13 -6 11 -20 -6z"/>
<path d="M3316 3672 c-2 -4 4 -8 14 -8 10 0 16 4 14 8 -3 4 -9 8 -14 8 -5 0
-11 -4 -14 -8z"/>
<path d="M3480 3665 c-11 -13 -10 -14 4 -9 9 3 16 10 16 15 0 13 -6 11 -20 -6z"/>
<path d="M2962 3658 c-7 -7 -12 -16 -12 -21 0 -5 7 -1 16 8 9 9 14 18 12 20
-2 3 -10 -1 -16 -7z"/>
<path d="M3237 3656 c-4 -10 -1 -13 9 -9 15 6 19 23 5 23 -5 0 -11 -7 -14 -14z"/>
<path d="M2920 3645 c-11 -13 -10 -14 4 -9 9 3 16 10 16 15 0 13 -6 11 -20 -6z"/>
<path d="M3162 3648 c-7 -7 -12 -16 -12 -21 0 -5 7 -1 16 8 9 9 14 18 12 20
-2 3 -10 -1 -16 -7z"/>
<path d="M3570 3651 c0 -7 -7 -11 -15 -8 -8 4 -17 2 -21 -4 -3 -5 -15 -7 -27
-4 -20 5 -20 5 -4 -6 13 -7 22 -8 29 -1 6 6 16 8 23 6 14 -6 31 13 21 23 -3 4
-6 1 -6 -6z"/>
<path d="M2847 3637 c-3 -7 3 -13 14 -13 13 0 15 3 7 13 -6 7 -12 13 -13 13
-2 0 -5 -6 -8 -13z"/>
<path d="M3120 3635 c-11 -13 -10 -14 4 -9 9 3 16 10 16 15 0 13 -6 11 -20 -6z"/>
<path d="M3321 3633 c-7 -8 -11 -16 -8 -19 2 -2 10 2 17 11 17 20 9 27 -9 8z"/>
<path d="M3729 3633 c-13 -16 -12 -17 4 -4 9 7 17 15 17 17 0 8 -8 3 -21 -13z"/>
<path d="M3042 3624 c-7 -8 -8 -14 -3 -14 10 0 25 19 20 25 -2 1 -10 -3 -17
-11z"/>
<path d="M3290 3631 c0 -8 -7 -10 -19 -6 -11 3 -22 1 -25 -4 -4 -6 -13 -8 -20
-5 -8 3 -16 2 -19 -3 -3 -4 6 -9 19 -9 13 -1 24 2 24 8 0 5 9 7 19 3 19 -6 39
11 27 22 -3 4 -6 1 -6 -6z"/>
<path d="M3890 3625 c-11 -13 -10 -14 4 -9 9 3 16 10 16 15 0 13 -6 11 -20 -6z"/>
<path d="M3006 3623 c-4 -4 -15 -8 -23 -8 -9 0 -18 -7 -20 -15 -4 -11 -2 -12
5 -2 5 7 16 10 24 7 9 -4 18 0 21 9 7 17 4 20 -7 9z"/>
<path d="M2895 3610 c-3 -5 -1 -10 4 -10 6 0 11 5 11 10 0 6 -2 10 -4 10 -3 0
-8 -4 -11 -10z"/>
<path d="M2927 3606 c-4 -10 -1 -13 9 -9 15 6 19 23 5 23 -5 0 -11 -7 -14 -14z"/>
<path d="M3167 3606 c-4 -10 -1 -13 9 -9 7 3 14 9 14 14 0 14 -17 10 -23 -5z"/>
<path d="M3372 3608 c-7 -7 -12 -16 -12 -21 0 -5 7 -1 16 8 9 9 14 18 12 20
-2 3 -10 -1 -16 -7z"/>
<path d="M3405 3609 c-11 -16 -1 -19 13 -3 7 8 8 14 3 14 -5 0 -13 -5 -16 -11z"/>
<path d="M2850 3595 c-8 -9 -8 -15 -2 -15 12 0 26 19 19 26 -2 2 -10 -2 -17
-11z"/>
<path d="M3092 3598 c-7 -7 -12 -16 -12 -21 0 -5 7 -1 16 8 9 9 14 18 12 20
-2 3 -10 -1 -16 -7z"/>
<path d="M3135 3600 c3 -5 8 -10 11 -10 2 0 4 5 4 10 0 6 -5 10 -11 10 -5 0
-7 -4 -4 -10z"/>
<path d="M3332 3598 c-7 -7 -12 -16 -12 -21 0 -5 7 -1 16 8 9 9 14 18 12 20
-2 3 -10 -1 -16 -7z"/>
<path d="M3050 3585 c-11 -13 -10 -14 4 -9 9 3 16 10 16 15 0 13 -6 11 -20 -6z"/>
<path d="M2977 3577 c-3 -7 3 -13 14 -13 13 0 15 3 7 13 -6 7 -12 13 -13 13
-2 0 -5 -6 -8 -13z"/>
<path d="M3220 3581 c0 -5 7 -12 16 -15 14 -5 15 -4 4 9 -14 17 -20 19 -20 6z"/>
<path d="M3460 3586 c0 -2 7 -7 16 -10 8 -3 12 -2 9 4 -6 10 -25 14 -25 6z"/>
<path d="M3620 3575 c-11 -13 -10 -14 4 -9 9 3 16 10 16 15 0 13 -6 11 -20 -6z"/>
<path d="M3655 3580 c-3 -6 1 -7 9 -4 18 7 21 14 7 14 -6 0 -13 -4 -16 -10z"/>
<path d="M3825 3580 c-3 -5 -1 -10 4 -10 6 0 11 5 11 10 0 6 -2 10 -4 10 -3 0
-8 -4 -11 -10z"/>
<path d="M2940 3570 c0 -7 -9 -9 -22 -5 -20 5 -21 4 -5 -5 11 -7 23 -8 33 -2
11 6 13 11 5 16 -6 4 -11 2 -11 -4z"/>
<path d="M3180 3571 c0 -8 -8 -10 -22 -6 -21 5 -21 5 -5 -6 20 -11 48 3 34 18
-4 3 -7 1 -7 -6z"/>
<path d="M3416 3572 c-2 -4 4 -8 14 -8 10 0 16 4 14 8 -3 4 -9 8 -14 8 -5 0
-11 -4 -14 -8z"/>
<path d="M3580 3565 c-11 -13 -10 -14 4 -9 9 3 16 10 16 15 0 13 -6 11 -20 -6z"/>
<path d="M4300 3569 c0 -10 27 -19 34 -12 11 12 6 19 -14 19 -11 0 -20 -3 -20
-7z"/>
<path d="M2862 3558 c-7 -7 -12 -16 -12 -21 0 -5 7 -1 16 8 9 9 14 18 12 20
-2 3 -10 -1 -16 -7z"/>
<path d="M3096 3554 c-4 -9 -4 -19 -1 -22 3 -3 5 0 5 7 0 8 8 10 23 5 12 -3
20 -5 17 -2 -34 27 -38 28 -44 12z"/>
<path d="M3337 3556 c-4 -10 -1 -13 9 -9 15 6 19 23 5 23 -5 0 -11 -7 -14 -14z"/>
<path d="M3375 3560 c-3 -6 1 -7 9 -4 18 7 21 14 7 14 -6 0 -13 -4 -16 -10z"/>
<path d="M2781 3537 c-13 -21 -12 -21 5 -5 10 10 16 20 13 22 -3 3 -11 -5 -18
-17z"/>
<path d="M2820 3545 c-11 -13 -10 -14 4 -9 9 3 16 10 16 15 0 13 -6 11 -20 -6z"/>
<path d="M3057 3546 c-4 -10 -1 -13 9 -9 15 6 19 23 5 23 -5 0 -11 -7 -14 -14z"/>
<path d="M3262 3548 c-7 -7 -12 -16 -12 -21 0 -5 7 -1 16 8 9 9 14 18 12 20
-2 3 -10 -1 -16 -7z"/>
<path d="M3220 3535 c-11 -13 -10 -14 4 -9 9 3 16 10 16 15 0 13 -6 11 -20 -6z"/>
<path d="M3665 3540 c-3 -6 1 -7 9 -4 18 7 21 14 7 14 -6 0 -13 -4 -16 -10z"/>
<path d="M3835 3540 c-3 -5 -1 -10 4 -10 6 0 11 5 11 10 0 6 -2 10 -4 10 -3 0
-8 -4 -11 -10z"/>
<path d="M2950 3531 c0 -8 -8 -10 -22 -6 -21 5 -21 5 -5 -6 20 -11 48 3 34 18
-4 3 -7 1 -7 -6z"/>
<path d="M3390 3531 c0 -5 7 -12 16 -15 14 -5 15 -4 4 9 -14 17 -20 19 -20 6z"/>
<path d="M3586 3524 c-5 -14 -4 -15 9 -4 17 14 19 20 6 20 -5 0 -12 -7 -15
-16z"/>
<path d="M2867 3518 c-3 -8 5 -14 20 -14 13 -1 23 -1 21 0 -2 1 -10 7 -19 14
-13 10 -18 10 -22 0z"/>
<path d="M3102 3514 c-7 -8 -8 -14 -3 -14 10 0 25 19 20 25 -2 1 -10 -3 -17
-11z"/>
<path d="M3350 3521 c0 -8 -8 -10 -22 -6 -21 5 -21 5 -5 -6 20 -11 48 3 34 18
-4 3 -7 1 -7 -6z"/>
<path d="M4270 3526 c0 -2 7 -7 16 -10 8 -3 12 -2 9 4 -6 10 -25 14 -25 6z"/>
<path d="M2827 3506 c-4 -10 -1 -13 9 -9 15 6 19 23 5 23 -5 0 -11 -7 -14 -14z"/>
<path d="M3070 3512 c0 -7 -10 -11 -21 -9 -12 1 -24 -5 -26 -13 -3 -11 -2 -12
5 -2 5 7 16 10 24 7 16 -6 35 11 24 22 -3 4 -6 1 -6 -5z"/>
<path d="M2752 3498 c-7 -7 -12 -16 -12 -21 0 -5 7 -1 16 8 9 9 14 18 12 20
-2 3 -10 -1 -16 -7z"/>
<path d="M2785 3499 c-11 -16 -1 -19 13 -3 7 8 8 14 3 14 -5 0 -13 -5 -16 -11z"/>
<path d="M2992 3498 c-7 -7 -12 -16 -12 -21 0 -5 7 -1 16 8 9 9 14 18 12 20
-2 3 -10 -1 -16 -7z"/>
<path d="M3230 3495 c-11 -13 -10 -14 4 -9 9 3 16 10 16 15 0 13 -6 11 -20 -6z"/>
<path d="M3265 3499 c-11 -16 -1 -19 13 -3 7 8 8 14 3 14 -5 0 -13 -5 -16 -11z"/>
<path d="M3430 3495 c-11 -13 -10 -14 4 -9 9 3 16 10 16 15 0 13 -6 11 -20 -6z"/>
<path d="M3640 3500 c0 -5 5 -10 11 -10 5 0 7 5 4 10 -3 6 -8 10 -11 10 -2 0
-4 -4 -4 -10z"/>
<path d="M2950 3485 c-11 -13 -10 -14 4 -9 9 3 16 10 16 15 0 13 -6 11 -20 -6z"/>
<path d="M3190 3485 c-11 -13 -10 -14 4 -9 9 3 16 10 16 15 0 13 -6 11 -20 -6z"/>
<path d="M3392 3484 c-7 -8 -8 -14 -3 -14 10 0 25 19 20 25 -2 1 -10 -3 -17
-11z"/>
<path d="M3600 3489 c0 -6 -9 -8 -22 -4 -21 5 -21 5 -4 -6 14 -9 21 -8 34 5
11 10 12 16 4 16 -7 0 -12 -5 -12 -11z"/>
<path d="M2872 3474 c-7 -8 -8 -14 -3 -14 10 0 25 19 20 25 -2 1 -10 -3 -17
-11z"/>
<path d="M3112 3478 c-7 -7 -12 -16 -12 -21 0 -5 7 -1 16 8 9 9 14 18 12 20
-2 3 -10 -1 -16 -7z"/>
<path d="M3352 3474 c-7 -8 -8 -14 -3 -14 10 0 25 19 20 25 -2 1 -10 -3 -17
-11z"/>
<path d="M4660 3486 c0 -2 7 -9 15 -16 13 -11 14 -10 9 4 -5 14 -24 23 -24 12z"/>
<path d="M2840 3471 c0 -8 -7 -10 -19 -6 -11 3 -22 1 -26 -5 -5 -8 -10 -8 -20
0 -9 8 -14 7 -18 -2 -3 -8 5 -14 19 -14 13 -1 24 2 24 8 0 5 9 7 19 3 19 -6
39 11 27 22 -3 4 -6 1 -6 -6z"/>
<path d="M3080 3472 c0 -7 -10 -11 -21 -9 -12 1 -24 -5 -26 -13 -3 -11 -2 -12
5 -2 5 7 16 10 24 7 16 -6 35 11 24 22 -3 4 -6 1 -6 -5z"/>
<path d="M3276 3464 c-4 -9 -4 -19 -1 -22 3 -3 5 0 5 7 0 8 8 10 23 5 12 -3
20 -5 17 -2 -34 27 -38 28 -44 12z"/>
<path d="M3482 3468 c-7 -7 -12 -16 -12 -21 0 -5 7 -1 16 8 9 9 14 18 12 20
-2 3 -10 -1 -16 -7z"/>
<path d="M3237 3456 c-4 -10 -1 -13 8 -9 8 3 12 9 9 14 -7 12 -11 11 -17 -5z"/>
<path d="M3442 3458 c-7 -7 -12 -16 -12 -21 0 -5 7 -1 16 8 9 9 14 18 12 20
-2 3 -10 -1 -16 -7z"/>
<path d="M2922 3448 c-7 -7 -12 -16 -12 -21 0 -5 7 -1 16 8 9 9 14 18 12 20
-2 3 -10 -1 -16 -7z"/>
<path d="M2957 3446 c-4 -10 -1 -13 9 -9 7 3 14 9 14 14 0 14 -17 10 -23 -5z"/>
<path d="M2995 3450 c-3 -6 1 -7 9 -4 18 7 21 14 7 14 -6 0 -13 -4 -16 -10z"/>
<path d="M3400 3445 c-11 -13 -10 -14 4 -9 9 3 16 10 16 15 0 13 -6 11 -20 -6z"/>
<path d="M3610 3451 c0 -8 -8 -10 -22 -6 -21 5 -21 5 -5 -6 20 -11 48 3 34 18
-4 3 -7 1 -7 -6z"/>
<path d="M4616 3445 c-3 -9 -6 -22 -5 -28 0 -7 5 -1 10 12 5 13 8 26 5 28 -2
2 -6 -3 -10 -12z"/>
<path d="M2880 3435 c-11 -13 -10 -14 4 -9 9 3 16 10 16 15 0 13 -6 11 -20 -6z"/>
<path d="M3122 3438 c-7 -7 -12 -16 -12 -21 0 -5 7 -1 16 8 9 9 14 18 12 20
-2 3 -10 -1 -16 -7z"/>
<path d="M3360 3435 c-11 -13 -10 -14 4 -9 9 3 16 10 16 15 0 13 -6 11 -20 -6z"/>
<path d="M2801 3423 c-7 -8 -11 -16 -8 -19 2 -2 10 2 17 11 17 20 9 27 -9 8z"/>
<path d="M3046 3424 c-4 -11 -10 -13 -19 -6 -8 7 -16 6 -24 -3 -10 -11 -8 -13
13 -11 26 3 52 22 42 31 -3 3 -8 -2 -12 -11z"/>
<path d="M3286 3424 c-4 -9 -4 -19 -1 -22 3 -3 5 0 5 7 0 8 6 11 16 7 14 -5
15 -4 4 9 -16 19 -16 19 -24 -1z"/>
<path d="M3247 3416 c-4 -10 -1 -13 8 -9 8 3 12 9 9 14 -7 12 -11 11 -17 -5z"/>
<path d="M3452 3418 c-7 -7 -12 -16 -12 -21 0 -5 7 -1 16 8 9 9 14 18 12 20
-2 3 -10 -1 -16 -7z"/>
<path d="M3865 3420 c-3 -5 -1 -10 4 -10 6 0 11 5 11 10 0 6 -2 10 -4 10 -3 0
-8 -4 -11 -10z"/>
<path d="M2966 3403 c-6 -14 -5 -15 5 -6 7 7 10 15 7 18 -3 3 -9 -2 -12 -12z"/>
<path d="M3206 3404 c-5 -14 -4 -15 9 -4 17 14 19 20 6 20 -5 0 -12 -7 -15
-16z"/>
<path d="M3410 3405 c-11 -13 -10 -14 4 -9 9 3 16 10 16 15 0 13 -6 11 -20 -6z"/>
<path d="M3620 3411 c0 -8 -8 -10 -22 -6 -21 5 -21 5 -5 -6 20 -11 48 3 34 18
-4 3 -7 1 -7 -6z"/>
<path d="M2892 3398 c-7 -7 -12 -16 -12 -21 0 -5 7 -1 16 8 9 9 14 18 12 20
-2 3 -10 -1 -16 -7z"/>
<path d="M3132 3398 c-7 -7 -12 -16 -12 -21 0 -5 7 -1 16 8 9 9 14 18 12 20
-2 3 -10 -1 -16 -7z"/>
<path d="M2812 3388 c-7 -7 -12 -16 -12 -21 0 -5 7 -1 16 8 9 9 14 18 12 20
-2 3 -10 -1 -16 -7z"/>
<path d="M3055 3390 c-3 -5 -1 -10 4 -10 6 0 11 5 11 10 0 6 -2 10 -4 10 -3 0
-8 -4 -11 -10z"/>
<path d="M3087 3386 c-4 -10 -1 -13 9 -9 15 6 19 23 5 23 -5 0 -11 -7 -14 -14z"/>
<path d="M3296 3384 c-5 -12 -9 -14 -20 -5 -10 9 -15 8 -19 -1 -3 -8 4 -14 19
-14 20 -2 42 22 30 33 -2 2 -6 -4 -10 -13z"/>
<path d="M3705 3390 c-3 -5 -1 -10 4 -10 6 0 11 5 11 10 0 6 -2 10 -4 10 -3 0
-8 -4 -11 -10z"/>
<path d="M2730 3371 c-6 -12 -7 -21 -1 -21 10 0 24 30 17 37 -2 3 -9 -5 -16
-16z"/>
<path d="M2771 3373 c-7 -8 -11 -16 -8 -19 2 -2 10 2 17 11 17 20 9 27 -9 8z"/>
<path d="M3011 3373 c-7 -8 -11 -16 -8 -19 2 -2 10 2 17 11 17 20 9 27 -9 8z"/>
<path d="M3465 3380 c-3 -5 -1 -10 4 -10 6 0 11 5 11 10 0 6 -2 10 -4 10 -3 0
-8 -4 -11 -10z"/>
<path d="M2980 3371 c0 -8 -8 -10 -22 -6 -21 5 -21 5 -5 -6 20 -11 48 3 34 18
-4 3 -7 1 -7 -6z"/>
<path d="M3220 3369 c0 -6 -9 -8 -22 -4 -21 5 -21 5 -4 -6 14 -9 21 -8 34 5
11 10 12 16 4 16 -7 0 -12 -5 -12 -11z"/>
<path d="M3425 3370 c-3 -5 -1 -10 4 -10 6 0 11 5 11 10 0 6 -2 10 -4 10 -3 0
-8 -4 -11 -10z"/>
<path d="M3630 3371 c0 -8 -8 -10 -22 -6 -21 5 -21 5 -5 -6 20 -11 48 3 34 18
-4 3 -7 1 -7 -6z"/>
<path d="M2896 3354 c-8 -22 -4 -25 11 -9 7 8 9 16 4 19 -5 3 -12 -1 -15 -10z"/>
<path d="M2822 3348 c-7 -7 -12 -16 -12 -21 0 -5 7 -1 16 8 9 9 14 18 12 20
-2 3 -10 -1 -16 -7z"/>
<path d="M2857 3346 c-4 -10 -1 -13 9 -9 7 3 14 9 14 14 0 14 -17 10 -23 -5z"/>
<path d="M3100 3345 c-11 -13 -10 -14 4 -9 9 3 16 10 16 15 0 13 -6 11 -20 -6z"/>
<path d="M3135 3349 c-11 -16 -1 -19 13 -3 7 8 8 14 3 14 -5 0 -13 -5 -16 -11z"/>
<path d="M2782 3338 c-7 -7 -12 -16 -12 -21 0 -5 7 -1 16 8 9 9 14 18 12 20
-2 3 -10 -1 -16 -7z"/>
<path d="M3022 3338 c-7 -7 -12 -16 -12 -21 0 -5 7 -1 16 8 9 9 14 18 12 20
-2 3 -10 -1 -16 -7z"/>
<path d="M3056 3334 c-5 -14 -4 -15 9 -4 17 14 19 20 6 20 -5 0 -12 -7 -15
-16z"/>
<path d="M3270 3341 c0 -9 30 -24 36 -18 2 1 -6 8 -16 15 -11 7 -20 8 -20 3z"/>
<path d="M2982 3324 c-7 -8 -8 -14 -3 -14 10 0 25 19 20 25 -2 1 -10 -3 -17
-11z"/>
<path d="M3435 3330 c-3 -5 -1 -10 4 -10 6 0 11 5 11 10 0 6 -2 10 -4 10 -3 0
-8 -4 -11 -10z"/>
<path d="M3186 3314 c-9 -24 -7 -27 9 -10 17 17 19 26 6 26 -5 0 -12 -7 -15
-16z"/>
<path d="M3391 3313 c-7 -8 -11 -16 -8 -19 2 -2 10 2 17 11 17 20 9 27 -9 8z"/>
<path d="M6091 3308 c-6 -11 -29 -27 -49 -35 -55 -24 -301 -21 -527 6 -333 40
-383 41 -414 13 -7 -7 -20 -11 -28 -8 -8 3 -12 2 -9 -3 3 -5 -5 -12 -19 -15
-14 -4 -25 -11 -25 -16 0 -5 -8 -7 -17 -3 -10 3 -15 3 -11 -1 8 -10 -57 -68
-101 -91 -52 -26 -140 -15 -336 45 -124 38 -188 53 -236 54 -63 1 -69 -1 -139
-48 -87 -57 -234 -197 -334 -316 -39 -47 -98 -113 -131 -147 -52 -54 -57 -63
-40 -67 25 -6 317 -32 520 -46 314 -22 950 -10 1305 25 527 52 692 85 794 158
22 16 28 17 24 6 -4 -9 -1 -16 8 -16 7 0 16 7 18 14 3 8 10 12 15 8 19 -11 29
31 26 114 -1 63 -6 87 -18 96 -9 6 -26 37 -38 69 -24 66 -115 165 -185 203
-40 21 -40 21 -53 1z m280 -465 c-12 -20 -14 -14 -5 12 4 9 9 14 11 11 3 -2 0
-13 -6 -23z"/>
<path d="M2870 3309 c0 -6 -9 -8 -22 -4 -19 5 -20 4 -6 -5 9 -5 23 -7 32 -4
18 7 22 24 6 24 -5 0 -10 -5 -10 -11z"/>
<path d="M3112 3308 c-7 -7 -12 -16 -12 -21 0 -5 7 -1 16 8 9 9 14 18 12 20
-2 3 -10 -1 -16 -7z"/>
<path d="M3035 3300 c-3 -5 -1 -10 4 -10 6 0 11 5 11 10 0 6 -2 10 -4 10 -3 0
-8 -4 -11 -10z"/>
<path d="M3280 3301 c0 -9 30 -24 36 -18 2 1 -6 8 -16 15 -11 7 -20 8 -20 3z"/>
<path d="M2785 3289 c-11 -16 -1 -19 13 -3 7 8 8 14 3 14 -5 0 -13 -5 -16 -11z"/>
<path d="M2992 3284 c-7 -8 -8 -14 -3 -14 10 0 25 19 20 25 -2 1 -10 -3 -17
-11z"/>
<path d="M3240 3290 c0 -5 5 -10 11 -10 5 0 7 5 4 10 -3 6 -8 10 -11 10 -2 0
-4 -4 -4 -10z"/>
<path d="M2952 3274 c-7 -8 -8 -14 -3 -14 10 0 25 19 20 25 -2 1 -10 -3 -17
-11z"/>
<path d="M3196 3274 c-9 -24 -7 -27 9 -10 17 17 19 26 6 26 -5 0 -12 -7 -15
-16z"/>
<path d="M2876 3265 c-9 -26 -7 -32 5 -12 6 10 9 21 6 23 -2 3 -7 -2 -11 -11z"/>
<path d="M3125 3270 c-3 -5 -1 -10 4 -10 6 0 11 5 11 10 0 6 -2 10 -4 10 -3 0
-8 -4 -11 -10z"/>
<path d="M3330 3259 c0 -5 5 -7 10 -4 6 3 10 8 10 11 0 2 -4 4 -10 4 -5 0 -10
-5 -10 -11z"/>
<path d="M3295 3250 c3 -5 11 -10 16 -10 6 0 7 5 4 10 -3 6 -11 10 -16 10 -6
0 -7 -4 -4 -10z"/>
<path d="M3260 3240 c8 -5 20 -10 25 -10 6 0 3 5 -5 10 -8 5 -19 10 -25 10 -5
0 -3 -5 5 -10z"/>
<path d="M2890 3231 c0 -9 30 -24 36 -18 2 1 -6 8 -16 15 -11 7 -20 8 -20 3z"/>
<path d="M3175 3230 c3 -5 8 -10 11 -10 2 0 4 5 4 10 0 6 -5 10 -11 10 -5 0
-7 -4 -4 -10z"/>
<path d="M2860 3181 c0 -9 30 -24 36 -18 2 1 -6 8 -16 15 -11 7 -20 8 -20 3z"/>
<path d="M2900 3186 c0 -2 7 -7 16 -10 8 -3 12 -2 9 4 -6 10 -25 14 -25 6z"/>
<path d="M3145 3180 c3 -5 8 -10 11 -10 2 0 4 5 4 10 0 6 -5 10 -11 10 -5 0
-7 -4 -4 -10z"/>
<path d="M2830 3165 c7 -8 17 -15 22 -15 5 0 3 7 -6 15 -8 8 -18 15 -22 15 -3
0 -1 -7 6 -15z"/>
<path d="M2990 3161 c0 -5 7 -12 16 -15 14 -5 15 -4 4 9 -14 17 -20 19 -20 6z"/>
<path d="M3080 3133 c0 -22 22 -25 38 -7 14 14 14 16 1 6 -12 -9 -18 -9 -27 0
-9 9 -12 9 -12 1z"/>
<path d="M2794 3121 c4 -5 1 -12 -4 -14 -6 -3 -5 -4 2 -3 15 3 23 26 8 26 -6
0 -9 -4 -6 -9z"/>
<path d="M3045 3079 c-4 -6 -14 -8 -24 -4 -13 5 -14 4 -3 -6 10 -11 15 -10 29
4 10 9 14 17 11 17 -4 0 -10 -5 -13 -11z"/>
<path d="M2929 3043 c-13 -16 -12 -17 4 -4 16 13 21 21 13 21 -2 0 -10 -8 -17
-17z"/>
<path d="M2840 3030 c0 -5 5 -10 11 -10 5 0 7 5 4 10 -3 6 -8 10 -11 10 -2 0
-4 -4 -4 -10z"/>
<path d="M2940 3010 c-9 -6 -10 -10 -3 -10 6 0 15 5 18 10 8 12 4 12 -15 0z"/>
<path d="M2910 2970 c-9 -6 -10 -10 -3 -10 6 0 15 5 18 10 8 12 4 12 -15 0z"/>
<path d="M2920 2770 c0 -5 15 -10 33 -9 27 0 29 2 12 9 -28 12 -45 12 -45 0z"/>
<path d="M6242 2683 c-118 -149 -585 -290 -1162 -350 -151 -15 -251 -18 -720
-16 -300 2 -615 7 -700 12 -85 4 -652 9 -1259 10 -1157 1 -1492 10 -1614 42
-71 19 -157 124 -202 247 -20 54 -18 17 3 -48 9 -30 28 -70 42 -89 14 -19 39
-59 55 -89 27 -51 59 -78 105 -91 110 -31 543 -57 571 -34 19 16 165 18 174 3
8 -13 122 -13 130 0 4 6 69 10 162 10 131 0 159 -3 175 -16 14 -14 20 -14 33
-4 11 9 35 11 80 7 37 -4 67 -2 70 3 8 12 292 13 299 1 3 -5 40 -12 81 -16 61
-5 81 -4 100 9 34 22 300 23 329 1 28 -21 159 -21 176 0 18 21 98 20 123 -2
27 -25 336 -33 356 -9 11 13 36 14 169 9 113 -4 164 -9 180 -20 33 -21 197
-26 213 -7 16 20 47 17 76 -6 24 -18 41 -20 201 -20 165 0 177 1 198 21 20 19
38 22 168 26 130 5 148 4 166 -12 16 -14 30 -16 89 -10 49 5 75 12 87 26 22
25 77 34 114 19 19 -8 50 -10 91 -5 52 6 67 13 90 38 27 30 29 30 68 17 58
-19 168 3 184 37 12 27 53 41 70 24 16 -16 32 -14 99 11 41 14 62 28 68 44 5
12 14 25 20 29 5 3 8 11 5 16 -3 5 1 6 9 3 9 -3 16 -2 16 4 0 12 149 107 156
99 10 -9 -67 -67 -106 -78 -41 -12 -45 -29 -7 -29 32 0 122 71 122 97 1 28 25
55 43 48 8 -3 26 4 38 16 22 21 23 23 6 36 -9 8 -11 11 -3 7 9 -5 12 -3 7 4
-10 17 -11 16 -44 -25z"/>
</g>
</svg>
