<svg xmlns="http://www.w3.org/2000/svg" width="28.421" height="26.842" viewBox="0 0 28.421 26.842">
  <path id="cle" d="M8.889,26.842A8.733,8.733,0,0,1,.094,19.6a8.4,8.4,0,0,1,6.383-9.221,9.227,9.227,0,0,1,4.6-.054l9.368-8.842A5.5,5.5,0,0,1,24.241,0h0A4.08,4.08,0,0,1,28.43,3.955a4.9,4.9,0,0,1-1.573,3.587l-.8.752a2.46,2.46,0,0,1-1.675.654H22.507v1.118A2.306,2.306,0,0,1,20.137,12.3H18.953v1.774a2.16,2.16,0,0,1-.694,1.581l-.77.727a7.761,7.761,0,0,1-.056,4.339A8.8,8.8,0,0,1,9.818,26.8q-.463.045-.929.046Zm0-14.539a6.384,6.384,0,0,0-6.494,5.586A6.22,6.22,0,0,0,7.7,24.5a6.543,6.543,0,0,0,7.459-4.382,5.719,5.719,0,0,0-.118-3.691,1.074,1.074,0,0,1,.282-1.158l1.265-1.2V12.3a2.306,2.306,0,0,1,2.369-2.237h1.185V8.947A2.306,2.306,0,0,1,22.507,6.71h1.879l.8-.752a2.74,2.74,0,0,0,.879-2,1.772,1.772,0,0,0-1.818-1.718,3.077,3.077,0,0,0-2.124.831l-9.869,9.316a1.235,1.235,0,0,1-1.227.265A6.817,6.817,0,0,0,8.883,12.3ZM5.922,20.131a1.187,1.187,0,1,0,1.185-1.118A1.153,1.153,0,0,0,5.922,20.131Z" transform="translate(-0.009 0)" fill="#fff"/>
</svg>
