<svg xmlns="http://www.w3.org/2000/svg" width="13.085" height="13.085" viewBox="0 0 13.085 13.085">
  <path id="Icon_metro-cross" data-name="Icon metro-cross" d="M15.537,12.441h0l-3.97-3.97,3.97-3.97h0a.41.41,0,0,0,0-.578L13.662,2.048a.41.41,0,0,0-.578,0h0l-3.97,3.97-3.97-3.97h0a.41.41,0,0,0-.578,0L2.69,3.923a.41.41,0,0,0,0,.578h0l3.97,3.97-3.97,3.97h0a.41.41,0,0,0,0,.578l1.875,1.875a.41.41,0,0,0,.578,0h0l3.97-3.97,3.97,3.97h0a.41.41,0,0,0,.578,0l1.875-1.875a.41.41,0,0,0,0-.578Z" transform="translate(-2.571 -1.928)" fill="#fff"/>
</svg>
