<svg xmlns="http://www.w3.org/2000/svg" width="17.838" height="17.838" viewBox="0 0 17.838 17.838">
  <g id="Icon_feather-send" data-name="Icon feather-send" transform="translate(-2 -2)">
    <path id="Tracé_1" data-name="Tracé 1" d="M16.5,12.711A1,1,0,0,1,15.793,11L24.5,2.293a1,1,0,0,1,1.414,1.414l-8.711,8.711A1,1,0,0,1,16.5,12.711Z" transform="translate(-6.373)" fill="#6bbceb"/>
    <path id="Tracé_2" data-name="Tracé 2" d="M18.837,2a1,1,0,0,1,.944,1.33L14.238,19.168a1,1,0,0,1-1.858.076L9.369,12.468,2.594,9.457A1,1,0,0,1,2.67,7.6L18.507,2.056A1,1,0,0,1,18.837,2ZM13.184,16.126l4.024-11.5L5.711,8.654,10.533,10.8a1,1,0,0,1,.508.508Z" fill="#6bbceb"/>
  </g>
</svg>
