<svg xmlns="http://www.w3.org/2000/svg" width="13.754" height="9.723" viewBox="0 0 13.754 9.723">
  <path id="Icon_ionic-ios-return-left" data-name="Icon ionic-ios-return-left" d="M4.733,16.138l2.135-2.831a.446.446,0,0,1,.355-.2.439.439,0,0,1,.355.2.832.832,0,0,1,0,.944l0,0L6.1,16.166h9.359a1.6,1.6,0,0,0,1.264-.7,2.783,2.783,0,0,0,.527-1.683V11.5c0-.367.226-.667.5-.667s.5.3.5.667v2.288a4.374,4.374,0,0,1-.82,2.626A2.48,2.48,0,0,1,15.461,17.5H6.087l1.418,1.916a.787.787,0,0,1,.147.472.774.774,0,0,1-.147.472l0,0a.458.458,0,0,1-.351.186.429.429,0,0,1-.355-.2L4.733,17.62a1.251,1.251,0,0,1-.233-.748A1.208,1.208,0,0,1,4.733,16.138Z" transform="translate(-4.5 -10.828)" fill="#fff"/>
</svg>
