<svg id="Calque_1-2" xmlns="http://www.w3.org/2000/svg" width="83.222" height="51.73" viewBox="0 0 83.222 51.73">
  <g id="Group_4" data-name="Group 4">
    <path id="Path_18" data-name="Path 18" d="M75.863,172.351c-.956,0-1.886-.027-2.842,0-.425,0-.584-.133-.531-.558.027-.345,0-.691,0-1.036,0-.319-.133-.425-.451-.425s-.478.106-.451.425v.159A1.392,1.392,0,0,1,70.02,172.4c-.744,0-1.487-.027-2.231,0-.4,0-.611-.08-.558-.531.027-.345-.027-.691,0-1.036s-.106-.478-.478-.478c-.425,0-.4.212-.425.5-.053,1.54-.08,1.54-1.62,1.54-.664,0-1.354-.027-2.018,0-.425.027-.584-.159-.558-.584.027-.319,0-.637,0-.983,0-.266.08-.558-.372-.531-.4.027-.531.186-.5.558v.212a1.146,1.146,0,0,1-1.275,1.3c-.717,0-1.434,0-2.178.027-.451.027-.664-.133-.611-.584.027-.345,0-.691,0-1.036,0-.212.053-.451-.319-.451-.292.027-.558.027-.584.425v.452c0,1.222,0,1.222-1.275,1.222-3.824,0-7.675-.027-11.5-.027-.531,0-.956-.027-.823-.744.08-.372-.159-.425-.478-.451-.4-.027-.478.159-.425.478.106.584-.186.717-.717.691-1.089-.027-2.2-.027-3.293,0-.478,0-.691-.133-.637-.637.053-.319,0-.558-.451-.558s-.478.212-.451.558c.053,1.009-.691.558-1.142.664-.531.106-.744-.133-.637-.664.08-.5-.186-.531-.584-.558-.558-.027-.531.319-.451.611.133.478-.053.558-.478.558q-2.311-.04-4.621,0c-.531,0-.823-.106-.717-.691.053-.345-.053-.478-.451-.478-.345,0-.5.106-.451.478.133.8-.372.744-.9.744-.558.027-1.009,0-.876-.77.053-.372-.106-.451-.451-.451-.372,0-.5.133-.451.478.106.637-.212.717-.77.717a40.446,40.446,0,0,1-7.782-.93,84.814,84.814,0,0,1-8.525-2.072c-2.231-.637-4.409-1.434-5.949-3.346-.292-.372-.531-.77-.8-1.169-.08-.133-.186-.345-.027-.478.08-.08.292-.027.425,0,1.939.4,3.9.8,5.843,1.222,2.151.451,4.3.93,6.427,1.408a43.477,43.477,0,0,1,4.541,1.089c1.3.451,2.656.637,3.931,1.115a5.909,5.909,0,0,0,2.045.345c7.011-.027,14-.08,21.008,0A41.7,41.7,0,0,0,54.8,168.128a108.585,108.585,0,0,1,10.916-2.151,35.859,35.859,0,0,1,6.958-.345,49.035,49.035,0,0,1,10.013,1.7c.451.133.637.319.611.823a12.8,12.8,0,0,0,0,2.018,1.191,1.191,0,0,1-.876,1.354,12.415,12.415,0,0,1-3.8.664c-.93.053-1.833.027-2.762.027v.133Z" transform="translate(-0.089 -120.701)" fill="#fff"/>
    <path id="Path_19" data-name="Path 19" d="M26.2,123.891a4.729,4.729,0,0,0,.8,5.6c1.115,1.036,2.125,2.151,3.16,3.293.8.85.664,1.354-.451,1.806a4.337,4.337,0,0,1-1.434.319,54.8,54.8,0,0,1-6.268-.425c-2.337-.186-4.648-.611-6.932-.956-2.736-.425-5.418-1.089-8.127-1.673a6.8,6.8,0,0,1-1.222-.292c-.451-.212-.451-.372-.292-.77.956-2.576,3.028-3.745,5.551-4.223,2.1-.4,4.223-.584,6.321-.9A64.848,64.848,0,0,0,25.431,124a1.067,1.067,0,0,1,.77-.106Z" transform="translate(-3.943 -90.964)" fill="#fff"/>
    <path id="Path_20" data-name="Path 20" d="M97.121,110.487a20.909,20.909,0,0,0,2.842,7.675c.9,1.594,2.045,3.054,2.842,4.7.372.77.345.9-.478.9-3.426,0-6.826-.027-10.252,0-.451,0-.664-.106-.77-.558a4.632,4.632,0,0,0-1.594-2.1c-1.381-1.354-2.656-2.789-3.9-4.249a2.454,2.454,0,0,1-.558-2.682,3.271,3.271,0,0,1,2.018-1.514c.239-.08.266.159.345.292.186.319.345.664.558.983a.845.845,0,0,0,1.009.425,1.1,1.1,0,0,0,.85-.93,1.949,1.949,0,0,0,0-.876c-.345-.823.239-1.062.77-1.328.823-.425.823-.425,1.115.372.133.345.133.823.717.77a1.245,1.245,0,0,0,1.115-.956c.133-.4-.106-.77-.133-1.169,0-.239-.4-.478-.053-.717a16.507,16.507,0,0,1,1.487-.85c.106-.053.186.212.239.345a4.039,4.039,0,0,0,.717,1.381c.292.266.637.531,1.115.08Z" transform="translate(-62.486 -79.817)" fill="#fff"/>
    <path id="Path_21" data-name="Path 21" d="M143.113,75.024c-3.346-.451-6.4.876-9.083,3.293-.5.451-1.089.8-1.62,1.2-.319.239-.5.133-.558-.239a11.564,11.564,0,0,0-1.062-3.851.393.393,0,0,1,0-.345,8.175,8.175,0,0,1,1.939-1.62c.266-.159.292.106.345.212.159.319.266.691.452,1.009a.952.952,0,0,0,.956.451.739.739,0,0,0,.691-.664,2.338,2.338,0,0,0-.08-1.593.911.911,0,0,1,.345-1.328,5.091,5.091,0,0,0,.584-.478c.319-.292.531-.239.744.159.239.425.5,1.036,1.142.85a1.26,1.26,0,0,0,.77-1.461,3.008,3.008,0,0,0-.159-.956c-.106-.239-.5-.478-.186-.77.5-.478.85-1.115,1.567-1.328.186-.053.319.08.451.212.159.159.319.319.451.478.4.5.876.876,1.514.5a1.548,1.548,0,0,0,.4-1.833,3.119,3.119,0,0,0-.717-.956c-.319-.319-.345-.558.053-.823.212-.133.372-.319.584-.478.292-.212.531-.319.876.053.558.584,1.222,1.062,2.1.584.186-.106.319.027.478.133.823.531,1.673,1.089,2.523,1.594a.759.759,0,0,1,.425.717,37.02,37.02,0,0,1-.027,4.541,3.219,3.219,0,0,1-2.257,2.55,17.228,17.228,0,0,1-3.639.186Z" transform="translate(-96.048 -47.356)" fill="#fff"/>
    <path id="Path_22" data-name="Path 22" d="M203.394,77.4c5.551,3.4,10.915,6.693,16.44,10.092-1.328.531-2.55,1.009-3.8,1.461-.5.186-1.009.558-1.54.451-.584-.106-.637-.8-.983-1.2a16.753,16.753,0,0,0-3.878-2.975c-1.912-1.2-3.851-2.364-5.79-3.532-.239-.133-.478-.239-.452-.584C203.421,79.923,203.394,78.754,203.394,77.4Z" transform="translate(-149.398 -56.849)" fill="#fff"/>
    <path id="Path_23" data-name="Path 23" d="M203.437,56.611c-.266.159-.452-.08-.664-.186-2.736-1.487-5.285-3.24-7.941-4.834-1.779-1.062-3.479-2.231-5.259-3.293-1.806-1.089-3.559-2.231-5.365-3.293A5.322,5.322,0,0,1,181.5,41.95c.558.133,1.089.292,1.647.372.425.08.93.266,1.222-.212.319-.5-.106-.93-.4-1.248a13.574,13.574,0,0,0-1.567-1.3,13.307,13.307,0,0,0,2.178.292c.266-.027.611.106.744-.212a.984.984,0,0,0-.133-1.062,6.485,6.485,0,0,0-1.169-.983,2.789,2.789,0,0,1,1.912-.027,34.826,34.826,0,0,1,5.63,2.815c2.682,1.514,5.365,3.107,8.021,4.674.717.425,1.408.93,2.151,1.328.319.159.266.531.531.637-.372.451-.053.9,0,1.328.212,1.567.478,3.134.664,4.674.186,1.222.744,2.364.5,3.585Z" transform="translate(-133.32 -27.482)" fill="#fff"/>
    <path id="Path_24" data-name="Path 24" d="M261.533,114.528c0,.823-.027,1.514,0,2.178.053.611-.239.664-.717.558-1.328-.266-2.629-.611-3.984-.77a37.461,37.461,0,0,0-8.446-.372,26.906,26.906,0,0,0-4.117.558c-.451.106-.478-.106-.425-.478a3.1,3.1,0,0,1,1.939-2.55c1.3-.5,2.656-.956,3.984-1.461,1.062-.4,1.275-.744,1.248-1.833a1.2,1.2,0,0,0-1.673-1.2c-1.328.425-2.629.876-3.931,1.3a.767.767,0,0,1-.956-.8c.027-.212.212-.186.319-.239,3.107-1.169,6.082-2.682,9.163-3.957,1.54-.637,3.081-1.275,4.595-1.992.558-.266.77-.212,1.009.4a40.427,40.427,0,0,1,1.753,7.011,13.248,13.248,0,0,1,.239,3.638Z" transform="translate(-179.093 -75.892)" fill="#fff"/>
    <path id="Path_25" data-name="Path 25" d="M216.225,43.974c-1.912-1.3-3.665-2.5-5.444-3.692a168.042,168.042,0,0,0-18.644-10.969,6.291,6.291,0,0,0-1.859-.717,2.669,2.669,0,0,0-1.726.531c-.133.08-.239.319-.425.106-.133-.133-.027-.292.053-.4a4.133,4.133,0,0,1,3.4-2.072,16.647,16.647,0,0,1,7.171,1.7c1.859.744,3.718,1.567,5.524,2.443A24.015,24.015,0,0,0,211.6,32.9c1.248.159,1.381.239,1.753,1.461.9,3.028,1.779,6.082,2.815,9.083a4.8,4.8,0,0,1,.053.531Z" transform="translate(-138.14 -19.652)" fill="#fff"/>
    <path id="Path_26" data-name="Path 26" d="M188.4,7.4A34.707,34.707,0,0,1,191.826.972a1.7,1.7,0,0,1,2.231-.823,12.949,12.949,0,0,1,3.559,1.594,20.337,20.337,0,0,1,2.018,1.328c1.673,1.381,1.673,3.16.956,4.94-.186.478-.478.212-.717.133-1.461-.531-2.895-1.169-4.409-1.594-2.5-.744-4.834-.691-6.985.956,0-.053-.027-.08-.08-.106Z" transform="translate(-138.388 -0.021)" fill="#fff"/>
    <path id="Path_27" data-name="Path 27" d="M260.451,83.334c.239-1.222-.319-2.364-.478-3.532-.186-1.567-.452-3.134-.664-4.674-.053-.425-.372-.876,0-1.328a10.549,10.549,0,0,1,3.24,1.833c1.806,1.169,3.585,2.364,5.391,3.559.531.345,1.248.425,1.514,1.169.159.425.133.584-.292.77-2.364.983-4.7,1.965-7.038,2.921-.691.292-1.222.027-1.673-.717Z" transform="translate(-190.333 -54.206)" fill="#fff"/>
  </g>
</svg>
