<svg xmlns="http://www.w3.org/2000/svg" xmlns:xlink="http://www.w3.org/1999/xlink" width="48" height="47.167" viewBox="0 0 48 47.167">
  <defs>
    <linearGradient id="linear-gradient" y1="0.016" x2="1" y2="0.95" gradientUnits="objectBoundingBox">
      <stop offset="0" stop-color="#d2d2d2"/>
      <stop offset="1" stop-color="#f2f2f2"/>
    </linearGradient>
    <filter id="Tracé_51" x="0" y="0" width="48" height="47.167" filterUnits="userSpaceOnUse">
      <feOffset dy="3" input="SourceAlpha"/>
      <feGaussianBlur stdDeviation="3" result="blur"/>
      <feFlood flood-opacity="0.161"/>
      <feComposite operator="in" in2="blur"/>
      <feComposite in="SourceGraphic"/>
    </filter>
  </defs>
  <g id="person_guest" data-name="person guest" transform="translate(9 6)">
    <g transform="matrix(1, 0, 0, 1, -9, -6)" filter="url(#Tracé_51)">
      <path id="Tracé_51-2" data-name="Tracé 51" d="M15,0A14.8,14.8,0,0,1,30,14.583,14.8,14.8,0,0,1,15,29.167,14.8,14.8,0,0,1,0,14.583,14.8,14.8,0,0,1,15,0Z" transform="translate(9 6)" fill="url(#linear-gradient)"/>
    </g>
    <path id="Icon_zocial-guest" data-name="Icon zocial-guest" d="M4.7,21.284a6.521,6.521,0,0,1,.307-1.636,9.736,9.736,0,0,1,2.21-4.038,9.606,9.606,0,0,1,3.769-2.631A5.034,5.034,0,0,1,8.97,8.863a4.978,4.978,0,0,1,1.6-3.731,5.463,5.463,0,0,1,7.59,0,4.978,4.978,0,0,1,1.6,3.731,5.057,5.057,0,0,1-1.968,4.089A10,10,0,0,1,22.309,16.2a7.912,7.912,0,0,1,1.814,5.06q0,2.351-1.865,2.71a2.924,2.924,0,0,1-.332.664,1.6,1.6,0,0,1-.6.728,3.794,3.794,0,0,1-1.239.524c-.529.136-.95.239-1.265.306s-.8.145-1.445.231-.98.128-1,.128a1.09,1.09,0,0,0-.179.025,1.155,1.155,0,0,1-.177.027H12.956a16.6,16.6,0,0,1-3.3-.422q-1.993-.42-2.274-1.137a2.63,2.63,0,0,1-.639-1.073,2.142,2.142,0,0,1-1.073-.537Q4.7,23.046,4.7,21.284Z" transform="translate(0.587 -0.516)"/>
    <text id="_" data-name="?" transform="translate(12.5 22.083)" fill="#fff" font-size="10" font-family="Montserrat-SemiBold, Montserrat" font-weight="600"><tspan x="0" y="0">?</tspan></text>
  </g>
</svg>
