<svg id="shopping-bag-add" xmlns="http://www.w3.org/2000/svg" width="28.421" height="29.333" viewBox="0 0 28.421 29.333">
  <path id="Tracé_39" data-name="Tracé 39" d="M24.281,19.549H21.915V17.183a1.183,1.183,0,1,0-2.366,0v2.366H17.183a1.183,1.183,0,0,0,0,2.366h2.366v2.366a1.183,1.183,0,1,0,2.366,0V21.915h2.366a1.183,1.183,0,0,0,0-2.366Z" transform="translate(2.957 3.869)" fill="#fff"/>
  <path id="Tracé_40" data-name="Tracé 40" d="M24.868,7.333H21.315A7.222,7.222,0,0,0,14.21,0,7.222,7.222,0,0,0,7.105,7.333H3.553A3.611,3.611,0,0,0,0,11V23.222a6.025,6.025,0,0,0,5.921,6.111H16.579a1.223,1.223,0,0,0,0-2.444H5.921a3.611,3.611,0,0,1-3.553-3.667V11A1.2,1.2,0,0,1,3.553,9.778H7.105v2.444a1.185,1.185,0,1,0,2.368,0V9.778h9.474v2.444a1.185,1.185,0,1,0,2.368,0V9.778h3.553A1.2,1.2,0,0,1,26.052,11v6.111a1.185,1.185,0,1,0,2.368,0V11A3.611,3.611,0,0,0,24.868,7.333Zm-15.394,0A4.815,4.815,0,0,1,14.21,2.444a4.815,4.815,0,0,1,4.737,4.889Z" fill="#fff"/>
</svg>
