<svg xmlns="http://www.w3.org/2000/svg" width="168" height="104.428" viewBox="0 0 168 104.428">
  <g id="sneak_me_white" transform="translate(-0.089 -0.021)">
    <g id="Calque_1-2" transform="translate(0.089 0.021)">
      <g id="Groupe_4" data-name="Groupe 4">
        <path id="Tracé_18" data-name="Tracé 18" d="M153.054,180.511c-1.93,0-3.807-.054-5.737,0-.858,0-1.18-.268-1.072-1.126.054-.7,0-1.394,0-2.091,0-.643-.268-.858-.911-.858s-.965.214-.911.858v.322a2.81,2.81,0,0,1-3.163,3c-1.5,0-3-.054-4.5,0-.8,0-1.233-.161-1.126-1.072.054-.7-.054-1.394,0-2.091s-.214-.965-.965-.965c-.858,0-.8.429-.858,1.019-.107,3.11-.161,3.11-3.27,3.11-1.34,0-2.734-.054-4.075,0-.858.054-1.179-.322-1.126-1.179.054-.643,0-1.287,0-1.984,0-.536.161-1.126-.751-1.072-.8.054-1.072.375-1.019,1.126v.429a2.313,2.313,0,0,1-2.573,2.627c-1.448,0-2.9,0-4.4.054-.911.054-1.34-.268-1.233-1.179.054-.7,0-1.394,0-2.091,0-.429.107-.911-.643-.911-.59.054-1.126.054-1.179.858v.911c0,2.466,0,2.466-2.573,2.466-7.72,0-15.494-.054-23.215-.054-1.072,0-1.93-.054-1.662-1.5.161-.751-.322-.858-.965-.911-.8-.054-.965.322-.858.965.214,1.179-.375,1.448-1.448,1.394-2.2-.054-4.45-.054-6.648,0-.965,0-1.394-.268-1.287-1.287.107-.643,0-1.126-.911-1.126s-.965.429-.911,1.126c.107,2.037-1.394,1.126-2.305,1.34-1.072.214-1.5-.268-1.287-1.34.161-1.019-.375-1.072-1.179-1.126-1.126-.054-1.072.643-.911,1.233.268.965-.107,1.126-.965,1.126q-4.664-.08-9.329,0c-1.072,0-1.662-.214-1.448-1.394.107-.7-.107-.965-.911-.965-.7,0-1.019.214-.911.965.268,1.608-.751,1.5-1.823,1.5-1.126.054-2.037,0-1.769-1.555.107-.751-.214-.911-.911-.911-.751,0-1.019.268-.911.965.214,1.287-.429,1.448-1.555,1.448a81.649,81.649,0,0,1-15.709-1.876,171.223,171.223,0,0,1-17.21-4.182c-4.5-1.287-8.9-2.9-12.009-6.755C1.328,167,.845,166.2.309,165.392c-.161-.268-.375-.7-.054-.965.161-.161.59-.054.858,0,3.914.8,7.881,1.608,11.795,2.466,4.343.911,8.685,1.876,12.974,2.842a87.76,87.76,0,0,1,9.168,2.2c2.627.911,5.361,1.287,7.935,2.252a11.928,11.928,0,0,0,4.128.7c14.154-.054,28.254-.161,42.408,0,7.184.107,14.1-1.233,21.017-2.9a219.2,219.2,0,0,1,22.035-4.343,72.389,72.389,0,0,1,14.047-.7,98.988,98.988,0,0,1,20.212,3.431c.911.268,1.287.643,1.233,1.662a25.843,25.843,0,0,0,0,4.075,2.4,2.4,0,0,1-1.769,2.734,25.06,25.06,0,0,1-7.667,1.34c-1.876.107-3.7.054-5.576.054v.268Z" transform="translate(-0.089 -76.244)" fill="#fff"/>
        <path id="Tracé_19" data-name="Tracé 19" d="M47.457,123.931a9.546,9.546,0,0,0,1.608,11.312c2.252,2.091,4.289,4.343,6.38,6.648,1.608,1.716,1.34,2.734-.911,3.646a8.754,8.754,0,0,1-2.9.643,110.615,110.615,0,0,1-12.653-.858c-4.718-.375-9.382-1.233-13.993-1.93-5.522-.858-10.937-2.2-16.406-3.378a13.731,13.731,0,0,1-2.466-.59c-.911-.429-.911-.751-.59-1.555,1.93-5.2,6.112-7.56,11.205-8.525,4.235-.8,8.525-1.179,12.76-1.823A130.913,130.913,0,0,0,45.9,124.145a2.154,2.154,0,0,1,1.555-.214Z" transform="translate(-2.523 -57.462)" fill="#fff"/>
        <path id="Tracé_20" data-name="Tracé 20" d="M109.417,112.334c.751,5.737,3,10.669,5.737,15.494,1.823,3.217,4.128,6.166,5.737,9.49.751,1.555.7,1.823-.965,1.823-6.916,0-13.779-.054-20.695,0-.911,0-1.34-.214-1.555-1.126-.429-1.876-1.984-3-3.217-4.235-2.788-2.734-5.361-5.629-7.881-8.578-1.287-1.5-2.037-3.431-1.126-5.415.751-1.662,2.413-2.413,4.075-3.056.483-.161.536.322.7.59.375.643.7,1.34,1.126,1.984a1.7,1.7,0,0,0,2.037.858,2.225,2.225,0,0,0,1.716-1.876,3.935,3.935,0,0,0,0-1.769c-.7-1.662.483-2.145,1.555-2.681,1.662-.858,1.662-.858,2.252.751.268.7.268,1.662,1.448,1.555a2.513,2.513,0,0,0,2.252-1.93c.268-.8-.214-1.555-.268-2.359,0-.483-.8-.965-.107-1.448a33.319,33.319,0,0,1,3-1.716c.214-.107.375.429.483.7a8.154,8.154,0,0,0,1.448,2.788c.59.536,1.287,1.072,2.252.161Z" transform="translate(-39.499 -50.421)" fill="#fff"/>
        <path id="Tracé_21" data-name="Tracé 21" d="M155.707,85.772c-6.755-.911-12.921,1.769-18.336,6.648-1.019.911-2.2,1.608-3.27,2.413-.643.483-1.019.268-1.126-.483a23.344,23.344,0,0,0-2.145-7.774.793.793,0,0,1,0-.7,16.5,16.5,0,0,1,3.914-3.27c.536-.322.59.214.7.429.322.643.536,1.394.911,2.037a1.923,1.923,0,0,0,1.93.911,1.491,1.491,0,0,0,1.394-1.34c.161-1.072.429-2.252-.161-3.217a1.838,1.838,0,0,1,.7-2.681,10.277,10.277,0,0,0,1.18-.965c.643-.59,1.072-.483,1.5.322.483.858,1.019,2.091,2.305,1.716,1.287-.429,1.662-1.608,1.555-2.949a6.073,6.073,0,0,0-.322-1.93c-.214-.483-1.019-.965-.375-1.555,1.019-.965,1.716-2.252,3.163-2.681.375-.107.643.161.911.429.322.322.643.643.911.965.8,1.019,1.769,1.769,3.056,1.019,1.019-.59,1.34-2.305.8-3.7a6.3,6.3,0,0,0-1.448-1.93c-.643-.643-.7-1.126.107-1.662.429-.268.751-.643,1.179-.965.59-.429,1.072-.643,1.769.107,1.126,1.179,2.466,2.145,4.235,1.179.375-.214.643.054.965.268,1.662,1.072,3.378,2.2,5.093,3.217a1.531,1.531,0,0,1,.858,1.448,74.728,74.728,0,0,1-.054,9.168,6.5,6.5,0,0,1-4.557,5.147c-2.2.59-4.45.268-7.345.375Z" transform="translate(-60.698 -29.918)" fill="#fff"/>
        <path id="Tracé_22" data-name="Tracé 22" d="M203.4,77.4c11.205,6.863,22.035,13.511,33.187,20.373-2.681,1.072-5.147,2.037-7.667,2.949-1.019.375-2.037,1.126-3.11.911-1.18-.214-1.287-1.608-1.984-2.413a33.82,33.82,0,0,0-7.828-6c-3.86-2.413-7.774-4.772-11.688-7.131-.483-.268-.965-.483-.911-1.179C203.45,82.493,203.4,80.134,203.4,77.4Z" transform="translate(-94.394 -35.915)" fill="#fff"/>
        <path id="Tracé_23" data-name="Tracé 23" d="M225.785,76.168c-.536.322-.911-.161-1.34-.375-5.522-3-10.669-6.541-16.03-9.758-3.592-2.145-7.023-4.5-10.616-6.648-3.646-2.2-7.184-4.5-10.83-6.648-2.413-1.394-4.557-3.163-5.469-6.166,1.126.268,2.2.59,3.324.751.858.161,1.876.536,2.466-.429.643-1.019-.214-1.876-.8-2.52a27.4,27.4,0,0,0-3.163-2.627c1.608.161,2.949.7,4.4.59.536-.054,1.233.214,1.5-.429a1.987,1.987,0,0,0-.268-2.145,13.093,13.093,0,0,0-2.359-1.984,5.629,5.629,0,0,1,3.86-.054A70.3,70.3,0,0,1,201.82,43.41c5.415,3.056,10.83,6.273,16.191,9.436,1.448.858,2.842,1.876,4.343,2.681.643.322.536,1.072,1.072,1.287-.751.911-.107,1.823,0,2.681.429,3.163.965,6.326,1.34,9.436.375,2.466,1.5,4.772,1.019,7.238Z" transform="translate(-84.239 -17.365)" fill="#fff"/>
        <path id="Tracé_24" data-name="Tracé 24" d="M279.572,125.938c0,1.662-.054,3.056,0,4.4.107,1.233-.483,1.34-1.448,1.126-2.681-.536-5.308-1.233-8.042-1.555a75.622,75.622,0,0,0-17.049-.751,54.318,54.318,0,0,0-8.31,1.126c-.911.214-.965-.214-.858-.965a6.251,6.251,0,0,1,3.914-5.147c2.627-1.019,5.361-1.93,8.042-2.949,2.145-.8,2.573-1.5,2.52-3.7a2.43,2.43,0,0,0-3.378-2.413c-2.681.858-5.308,1.769-7.935,2.627a1.548,1.548,0,0,1-1.93-1.608c.054-.429.429-.375.643-.483,6.273-2.359,12.277-5.415,18.5-7.988,3.11-1.287,6.219-2.573,9.275-4.021,1.126-.536,1.555-.429,2.037.8a81.608,81.608,0,0,1,3.538,14.154,26.743,26.743,0,0,1,.483,7.345Z" transform="translate(-113.15 -47.942)" fill="#fff"/>
        <path id="Tracé_25" data-name="Tracé 25" d="M244.913,61.519c-3.86-2.627-7.4-5.04-10.991-7.452a339.225,339.225,0,0,0-37.637-22.142,12.7,12.7,0,0,0-3.753-1.448,5.388,5.388,0,0,0-3.485,1.072c-.268.161-.483.643-.858.214-.268-.268-.054-.59.107-.8a8.344,8.344,0,0,1,6.863-4.182c5.2-.268,9.865,1.555,14.476,3.431,3.753,1.5,7.506,3.163,11.152,4.932a48.48,48.48,0,0,0,14.8,4.021c2.52.322,2.788.483,3.538,2.949,1.823,6.112,3.592,12.277,5.683,18.336a9.68,9.68,0,0,1,.107,1.072Z" transform="translate(-87.283 -12.42)" fill="#fff"/>
        <path id="Tracé_26" data-name="Tracé 26" d="M188.4,14.914A70.065,70.065,0,0,1,195.316,1.94C196.6.063,197.675-.312,199.82.278A26.141,26.141,0,0,1,207,3.495a41.056,41.056,0,0,1,4.075,2.681c3.378,2.788,3.378,6.38,1.93,9.972-.375.965-.965.429-1.448.268-2.949-1.072-5.844-2.359-8.9-3.217-5.04-1.5-9.758-1.394-14.1,1.93,0-.107-.054-.161-.161-.214Z" transform="translate(-87.44 -0.021)" fill="#fff"/>
        <path id="Tracé_27" data-name="Tracé 27" d="M261.8,93.047c.482-2.466-.643-4.772-.965-7.131-.375-3.163-.911-6.326-1.34-9.436-.107-.858-.751-1.769,0-2.681,2.573.59,4.45,2.359,6.541,3.7,3.646,2.359,7.238,4.772,10.884,7.184,1.072.7,2.52.858,3.056,2.359.322.858.268,1.179-.59,1.555-4.772,1.984-9.49,3.967-14.208,5.9-1.394.59-2.466.054-3.378-1.448Z" transform="translate(-120.249 -34.245)" fill="#fff"/>
      </g>
    </g>
    <g id="Groupe_6" data-name="Groupe 6" transform="translate(15.61 0.975)">
      <g id="Groupe_5" data-name="Groupe 5">
        <path id="Tracé_28" data-name="Tracé 28" d="M48.963,103.134a4.5,4.5,0,0,1,.107,4.825,7.909,7.909,0,0,1-4.879,3.163,12.832,12.832,0,0,1-6.058,0,8.345,8.345,0,0,1-3.11-1.5,7.559,7.559,0,0,1-2.252-2.627c1.233-.322,2.52-.643,3.753-.965a3.525,3.525,0,0,0,2.52,1.823,6.412,6.412,0,0,0,3.485,0c2.52-.643,3.324-1.823,2.52-3.324-.643-1.233-1.876-1.716-3.646-1.448-1.18.214-2.413.429-3.592.59a9.328,9.328,0,0,1-4.932-.643,6.469,6.469,0,0,1-3.324-3.217,3.89,3.89,0,0,1,.268-4.289,7.81,7.81,0,0,1,4.557-2.842,10.9,10.9,0,0,1,5.844-.161,6.388,6.388,0,0,1,3.914,3c-1.126.429-2.305.858-3.431,1.287a3.974,3.974,0,0,0-4.5-1.179,4.3,4.3,0,0,0-2.413,1.394,1.635,1.635,0,0,0-.214,1.823,2.531,2.531,0,0,0,1.448,1.233,4.746,4.746,0,0,0,2.145.161c1.18-.214,2.305-.375,3.485-.643C44.459,98.952,47.247,100.024,48.963,103.134Z" transform="translate(-29.039 -43.73)" fill="#fff"/>
        <path id="Tracé_29" data-name="Tracé 29" d="M73.1,74Q78,81.881,83.23,90.084a2.347,2.347,0,0,1,.375,1.769,1.775,1.775,0,0,1-.911,1.287c-1.233.643-2.734.483-4.4-.483-4.289-2.2-8.471-4.5-12.6-6.809,2.2,3.86,4.5,7.774,6.809,11.741-1.34.536-2.681,1.072-4.021,1.555C65,92.926,61.57,86.867,58.3,80.97c1.233-.483,2.413-.965,3.646-1.448,4.825,2.734,9.758,5.469,14.8,8.1-2.413-3.967-4.825-7.881-7.131-11.688C70.792,75.287,71.971,74.643,73.1,74Z" transform="translate(-42.612 -35.291)" fill="#fff"/>
        <path id="Tracé_30" data-name="Tracé 30" d="M116.183,72.871c-2.037,1.608-4.128,3.163-6.273,4.611-2.037,1.394-3.753,1.984-5.04,1.769-1.287-.161-2.573-1.179-3.7-2.949-2.9-4.4-5.683-8.739-8.471-13.028A104.318,104.318,0,0,0,103.691,55.5c.7.965,1.394,1.984,2.145,3-2.52,1.984-5.093,3.914-7.72,5.683.911,1.34,1.823,2.734,2.734,4.128,1.876-1.233,3.753-2.573,5.576-3.967l1.93,3.217c-1.769,1.34-3.592,2.573-5.415,3.807.536.8,1.126,1.662,1.662,2.466a2.25,2.25,0,0,0,1.448,1.126,3.426,3.426,0,0,0,2.037-.8c2.037-1.394,4.021-2.842,5.951-4.4C114.682,70.833,115.432,71.852,116.183,72.871Z" transform="translate(-58.569 -26.71)" fill="#fff"/>
        <path id="Tracé_31" data-name="Tracé 31" d="M147.134,51.553c-1.019,1.126-2.037,2.305-3.056,3.378-1.072-.643-2.2-1.34-3.27-1.984-1.716,1.769-3.485,3.485-5.254,5.147.483,1.233.911,2.52,1.394,3.753-1.126,1.019-2.252,1.984-3.431,2.949-2.145-6.863-4.4-13.564-6.7-20.212a3.591,3.591,0,0,1-.161-1.769,2.618,2.618,0,0,1,.7-1.233,1.666,1.666,0,0,1,1.126-.59,2.292,2.292,0,0,1,1.448.483C135.5,45.012,141.236,48.39,147.134,51.553Zm-9.222-.643c-2.359-1.608-4.718-3.217-7.023-4.825,1.126,2.788,2.2,5.629,3.324,8.471C135.446,53.376,136.679,52.2,137.912,50.91Z" transform="translate(-74.294 -19.975)" fill="#fff"/>
        <path id="Tracé_32" data-name="Tracé 32" d="M154.785,14.667c3.967.7,7.988,1.233,12.063,1.555-.911,1.5-1.823,2.949-2.788,4.4-2.9-.429-5.79-.911-8.632-1.5.322,1.769.59,3.538.858,5.308.965,1.019,1.876,2.091,2.842,3.11-.911,1.179-1.823,2.305-2.734,3.431q-7.238-8.122-13.993-16.084c.858-1.019,1.662-2.091,2.466-3.163q3.86,4.423,7.881,8.846c-1.019-5.147-2.145-10.24-3.431-15.28.751-1.126,1.448-2.305,2.145-3.485C152.694,6.035,153.766,10.378,154.785,14.667Z" transform="translate(-81.623 -1.8)" fill="#fff"/>
      </g>
    </g>
    <text id="ME" transform="translate(83.892 81.678) rotate(-1.037)" fill="#e04d23" font-size="28" font-family="Viga-Regular, Viga"><tspan x="0" y="0">ME</tspan></text>
    <text id="ME-2" data-name="ME" transform="translate(83.892 81.678) rotate(-1.037)" fill="#fff" font-size="28" font-family="Viga-Regular, Viga"><tspan x="0" y="0">ME</tspan></text>
  </g>
</svg>
