<svg xmlns="http://www.w3.org/2000/svg" width="28.421" height="26.192" viewBox="0 0 28.421 26.192">
  <path id="tachymetre-alt-plus-rapide" d="M23.76,4.632a14.292,14.292,0,0,0-19.478,20.9,5.923,5.923,0,0,0,4.17,1.7H20.06A5.74,5.74,0,0,0,24.047,25.7,14.419,14.419,0,0,0,23.76,4.632ZM22.415,23.97a3.394,3.394,0,0,1-2.355.884H8.451A3.559,3.559,0,0,1,5.944,23.83a11.908,11.908,0,1,1,19.371-12.9,11.964,11.964,0,0,1-2.9,13.035Zm.238-8.673a1.189,1.189,0,0,1-1.345-1.012A7.167,7.167,0,0,0,14.252,8.15C7.99,8.03,4.7,16.127,9.268,20.421A1.192,1.192,0,0,1,7.6,22.128C1.518,16.32,5.859,5.662,14.252,5.763a9.562,9.562,0,0,1,9.412,8.183A1.192,1.192,0,0,1,22.655,15.3Zm.357,3.871a1.187,1.187,0,0,1-1.567.613l-5.785-2.549a2.389,2.389,0,1,1,.951-2.186l5.785,2.549a1.195,1.195,0,0,1,.617,1.573Z" transform="translate(-0.06 -1.049)" fill="#fff"/>
</svg>
