<svg xmlns="http://www.w3.org/2000/svg" width="24.827" height="28.537" viewBox="0 0 24.827 28.537">
  <path id="Tracé_45" data-name="Tracé 45" d="M26.125,21.4a3.388,3.388,0,0,0,4.71,1.31l0,0,.512-.306a10.244,10.244,0,0,0,3.274,1.955v.61a3.451,3.451,0,1,0,6.9,0v-.61A10.244,10.244,0,0,0,44.8,22.4l.514.307A3.39,3.39,0,0,0,50.025,21.4a3.637,3.637,0,0,0-1.265-4.875h0l-.51-.3a11.186,11.186,0,0,0,0-3.912l.51-.3a3.637,3.637,0,0,0,1.265-4.875,3.39,3.39,0,0,0-4.714-1.308l-.512.306a10.243,10.243,0,0,0-3.277-1.951v-.61a3.451,3.451,0,1,0-6.9,0v.61a10.243,10.243,0,0,0-3.274,1.957l-.514-.308a3.389,3.389,0,0,0-4.714,1.308,3.637,3.637,0,0,0,1.265,4.875h0l.51.3a11.186,11.186,0,0,0,0,3.912l-.51.3A3.642,3.642,0,0,0,26.125,21.4ZM38.074,9.513a4.68,4.68,0,0,1,4.6,4.756,4.6,4.6,0,1,1-9.2,0A4.68,4.68,0,0,1,38.074,9.513Z" transform="translate(-25.66)" fill="#fff"/>
</svg>
